Haelene.glyphspackage
{
glyphname = exclam;
kernLeft = h;
kernRight = H;
layers = (
{
background = {
shapes = (
{
closed = 1;
nodes = (
(231,253,l),
(264,521,l),
(264,715,l),
(60,715,l),
(60,521,l),
(92,253,l)
);
},
{
closed = 1;
nodes = (
(226,-10,o),
(268,31,o),
(268,90,cs),
(268,149,o),
(226,190,o),
(162,190,cs),
(97,190,o),
(55,149,o),
(55,90,cs),
(55,31,o),
(97,-10,o),
(162,-10,cs)
);
}
);
};
layerId = "42F8977D-8264-44FF-8A66-A72BD7D3E619";
shapes = (
{
closed = 1;
nodes = (
(231,253,l),
(264,521,l),
(264,716,l),
(60,716,l),
(60,521,l),
(92,253,l)
);
},
{
closed = 1;
nodes = (
(226,-10,o),
(268,31,o),
(268,90,cs),
(268,149,o),
(226,190,o),
(162,190,cs),
(97,190,o),
(55,149,o),
(55,90,cs),
(55,31,o),
(97,-10,o),
(162,-10,cs)
);
}
);
width = 323;
},
{
background = {
shapes = (
{
closed = 1;
nodes = (
(131,188,l),
(137,521,l),
(137,715,l),
(103,715,l),
(103,521,l),
(110,188,l)
);
},
{
closed = 1;
nodes = (
(137,-4,o),
(148,6,o),
(148,23,cs),
(148,39,o),
(137,49,o),
(120,49,cs),
(103,49,o),
(92,39,o),
(92,23,cs),
(92,6,o),
(103,-4,o),
(120,-4,cs)
);
}
);
};
layerId = "1750929F-40DF-47FF-8B11-7621AD6711F1";
shapes = (
{
closed = 1;
nodes = (
(121,188,l),
(127,521,l),
(127,716,l),
(93,716,l),
(93,521,l),
(99,188,l)
);
},
{
closed = 1;
nodes = (
(127,-4,o),
(138,6,o),
(138,23,cs),
(138,39,o),
(127,49,o),
(110,49,cs),
(93,49,o),
(82,39,o),
(82,23,cs),
(82,6,o),
(93,-4,o),
(110,-4,cs)
);
}
);
width = 220;
},
{
layerId = "502A2428-35F6-4863-AD44-5AC44627310C";
shapes = (
{
closed = 1;
nodes = (
(148,207,l),
(162,521,l),
(162,716,l),
(80,716,l),
(80,521,l),
(94,207,l)
);
},
{
closed = 1;
nodes = (
(150,-6,o),
(171,14,o),
(171,41,cs),
(171,69,o),
(150,89,o),
(121,89,cs),
(90,89,o),
(70,69,o),
(70,41,cs),
(70,14,o),
(90,-6,o),
(121,-6,cs)
);
}
);
width = 242;
}
);
unicode = 33;
}
{
glyphname = quotedbl;
kernLeft = quotedbl;
kernRight = quotedbl;
layers = (
{
background = {
shapes = (
{
closed = 1;
nodes = (
(477,366,l),
(504,715,l),
(313,715,l),
(340,366,l)
);
},
{
closed = 1;
nodes = (
(230,366,l),
(257,715,l),
(67,715,l),
(93,366,l)
);
}
);
};
layerId = "42F8977D-8264-44FF-8A66-A72BD7D3E619";
shapes = (
{
closed = 1;
nodes = (
(477,367,l),
(504,716,l),
(313,716,l),
(340,367,l)
);
},
{
closed = 1;
nodes = (
(230,367,l),
(257,716,l),
(67,716,l),
(93,367,l)
);
}
);
width = 570;
},
{
background = {
shapes = (
{
closed = 1;
nodes = (
(278,452,l),
(286,715,l),
(251,715,l),
(257,452,l)
);
},
{
closed = 1;
nodes = (
(131,452,l),
(137,715,l),
(103,715,l),
(110,452,l)
);
}
);
};
layerId = "1750929F-40DF-47FF-8B11-7621AD6711F1";
shapes = (
{
closed = 1;
nodes = (
(268,453,l),
(275,716,l),
(241,716,l),
(247,453,l)
);
},
{
closed = 1;
nodes = (
(121,453,l),
(127,716,l),
(93,716,l),
(99,453,l)
);
}
);
width = 367;
},
{
layerId = "502A2428-35F6-4863-AD44-5AC44627310C";
shapes = (
{
closed = 1;
nodes = (
(323,430,l),
(336,716,l),
(258,716,l),
(269,430,l)
);
},
{
closed = 1;
nodes = (
(148,430,l),
(160,716,l),
(81,716,l),
(94,430,l)
);
}
);
width = 418;
}
);
unicode = 34;
}
{
glyphname = numbersign;
kernLeft = numbersign;
kernRight = numbersign;
layers = (
{
background = {
shapes = (
{
closed = 1;
nodes = (
(234,0,l),
(265,167,l),
(361,167,l),
(332,0,l),
(492,0,l),
(522,167,l),
(618,167,l),
(641,294,l),
(544,294,l),
(566,423,l),
(663,423,l),
(686,549,l),
(589,549,l),
(618,715,l),
(458,715,l),
(428,549,l),
(332,549,l),
(361,715,l),
(201,715,l),
(170,549,l),
(74,549,l),
(51,423,l),
(149,423,l),
(127,294,l),
(29,294,l),
(6,167,l),
(104,167,l),
(74,0,l)
);
},
{
closed = 1;
nodes = (
(310,423,l),
(405,423,l),
(383,294,l),
(288,294,l)
);
}
);
};
layerId = "42F8977D-8264-44FF-8A66-A72BD7D3E619";
shapes = (
{
closed = 1;
nodes = (
(234,0,l),
(265,167,l),
(361,167,l),
(332,0,l),
(492,0,l),
(522,167,l),
(618,167,l),
(641,294,l),
(544,294,l),
(566,423,l),
(663,423,l),
(686,550,l),
(589,550,l),
(618,716,l),
(458,716,l),
(428,550,l),
(332,550,l),
(361,716,l),
(201,716,l),
(170,550,l),
(74,550,l),
(51,423,l),
(149,423,l),
(127,294,l),
(29,294,l),
(6,167,l),
(104,167,l),
(74,0,l)
);
},
{
closed = 1;
nodes = (
(310,423,l),
(405,423,l),
(383,294,l),
(288,294,l)
);
}
);
width = 692;
},
{
background = {
shapes = (
{
closed = 1;
nodes = (
(160,0,l),
(197,205,l),
(420,205,l),
(385,0,l),
(417,0,l),
(452,205,l),
(571,205,l),
(576,234,l),
(458,234,l),
(502,481,l),
(620,481,l),
(626,511,l),
(507,511,l),
(544,715,l),
(511,715,l),
(475,511,l),
(251,511,l),
(287,715,l),
(254,715,l),
(219,511,l),
(99,511,l),
(94,481,l),
(213,481,l),
(169,234,l),
(50,234,l),
(45,205,l),
(164,205,l),
(128,0,l)
);
},
{
closed = 1;
nodes = (
(246,481,l),
(470,481,l),
(426,234,l),
(202,234,l)
);
}
);
};
layerId = "1750929F-40DF-47FF-8B11-7621AD6711F1";
shapes = (
{
closed = 1;
nodes = (
(149,0,l),
(186,205,l),
(409,205,l),
(375,0,l),
(406,0,l),
(442,205,l),
(561,205,l),
(566,235,l),
(447,235,l),
(491,482,l),
(610,482,l),
(616,512,l),
(496,512,l),
(533,716,l),
(501,716,l),
(465,512,l),
(241,512,l),
(276,716,l),
(244,716,l),
(209,512,l),
(89,512,l),
(84,482,l),
(203,482,l),
(159,235,l),
(40,235,l),
(35,205,l),
(154,205,l),
(118,0,l)
);
},
{
closed = 1;
nodes = (
(235,481,l),
(460,481,l),
(416,235,l),
(191,235,l)
);
}
);
width = 650;
},
{
layerId = "502A2428-35F6-4863-AD44-5AC44627310C";
shapes = (
{
closed = 1;
nodes = (
(170,0,l),
(205,193,l),
(392,193,l),
(358,0,l),
(427,0,l),
(461,193,l),
(573,193,l),
(583,252,l),
(470,252,l),
(509,464,l),
(622,464,l),
(632,523,l),
(519,523,l),
(554,716,l),
(485,716,l),
(450,523,l),
(262,523,l),
(297,716,l),
(227,716,l),
(194,523,l),
(81,523,l),
(71,464,l),
(184,464,l),
(145,252,l),
(33,252,l),
(23,193,l),
(135,193,l),
(101,0,l)
);
},
{
closed = 1;
nodes = (
(253,464,l),
(441,464,l),
(402,252,l),
(214,252,l)
);
}
);
width = 655;
}
);
unicode = 35;
}
{
glyphname = dollar;
kernLeft = S;
kernRight = S;
layers = (
{
layerId = "1750929F-40DF-47FF-8B11-7621AD6711F1";
shapes = (
{
pos = (3,14);
ref = S;
scale = (0.96,0.96);
},
{
closed = 1;
nodes = (
(333,-107,l),
(333,823,l),
(298,823,l),
(298,-107,l)
);
}
);
width = 615;
},
{
layerId = "42F8977D-8264-44FF-8A66-A72BD7D3E619";
shapes = (
{
pos = (1,13);
ref = S;
scale = (0.96,0.96);
},
{
closed = 1;
nodes = (
(388,-107,l),
(386,823,l),
(246,823,l),
(245,-107,l)
);
}
);
width = 612;
},
{
associatedMasterId = "1750929F-40DF-47FF-8B11-7621AD6711F1";
attr = {
axisRules = (
{
min = 700;
}
);
};
layerId = "84D56100-B407-44BC-8398-F7B86C08C4B5";
name = "Dec 3, 23 at 00:41";
shapes = (
{
closed = 1;
nodes = (
(334,698,l),
(334,823,l),
(299,823,l),
(299,698,l)
);
},
{
closed = 1;
nodes = (
(334,-107,l),
(334,14,l),
(299,14,l),
(299,-107,l)
);
},
{
pos = (3,14);
ref = S;
scale = (0.96,0.96);
}
);
width = 615;
},
{
associatedMasterId = "42F8977D-8264-44FF-8A66-A72BD7D3E619";
attr = {
axisRules = (
{
min = 700;
}
);
};
layerId = "8D54F143-7F06-469F-BEB2-8CB27DD37629";
name = "Dec 3, 23 at 00:43";
shapes = (
{
closed = 1;
nodes = (
(393,624,l),
(393,823,l),
(238,823,l),
(238,624,l)
);
},
{
closed = 1;
nodes = (
(393,-107,l),
(393,99,l),
(238,99,l),
(238,-107,l)
);
},
{
pos = (1,14);
ref = S;
scale = (0.96,0.96);
}
);
width = 612;
},
{
layerId = "502A2428-35F6-4863-AD44-5AC44627310C";
shapes = (
{
alignment = -1;
pos = (2,13);
ref = S;
scale = (0.96,0.96);
},
{
closed = 1;
nodes = (
(336,-107,l),
(336,823,l),
(281,823,l),
(281,-107,l)
);
}
);
width = 613;
},
{
associatedMasterId = "502A2428-35F6-4863-AD44-5AC44627310C";
attr = {
axisRules = (
{
min = 700;
}
);
};
layerId = "F39C7633-809F-4CE6-B1A1-7E83F6F44525";
name = "Dec 9, 23 at 02:21";
shapes = (
{
closed = 1;
nodes = (
(342,675,l),
(342,823,l),
(274,823,l),
(274,675,l)
);
},
{
closed = 1;
nodes = (
(342,-107,l),
(342,30,l),
(274,30,l),
(274,-107,l)
);
},
{
pos = (2,14);
ref = S;
scale = (0.96,0.96);
}
);
width = 613;
}
);
metricLeft = S;
metricRight = "=|";
unicode = 36;
}
{
glyphname = ampersand;
kernLeft = ampersand;
kernRight = ampersand;
layers = (
{
background = {
shapes = (
{
closed = 1;
nodes = (
(356,-10,o),
(423,7,o),
(478,49,c),
(522,0,l),
(740,0,l),
(584,169,l),
(705,347,l),
(524,347,l),
(481,282,l),
(416,354,l),
(423,357,l),
(528,405,o),
(564,473,o),
(564,538,cs),
(564,637,o),
(487,727,o),
(342,727,cs),
(197,727,o),
(120,637,o),
(120,538,cs),
(120,496,o),
(132,445,o),
(178,389,c),
(165,385,l),
(74,351,o),
(28,284,o),
(28,186,cs),
(28,78,o),
(113,-10,o),
(263,-10,cs)
);
},
{
closed = 1;
nodes = (
(252,137,o),
(223,169,o),
(223,208,cs),
(223,242,o),
(240,268,o),
(264,279,c),
(271,282,l),
(380,161,l),
(355,144,o),
(329,137,o),
(302,137,cs)
);
},
{
closed = 1;
nodes = (
(309,476,o),
(296,504,o),
(296,530,cs),
(296,560,o),
(317,578,o),
(342,578,cs),
(366,578,o),
(388,560,o),
(388,530,cs),
(388,496,o),
(372,461,o),
(342,449,cs),
(334,446,l)
);
}
);
};
layerId = "42F8977D-8264-44FF-8A66-A72BD7D3E619";
shapes = (
{
closed = 1;
nodes = (
(356,-10,o),
(423,7,o),
(478,49,c),
(522,0,l),
(740,0,l),
(584,169,l),
(705,347,l),
(524,347,l),
(481,282,l),
(416,354,l),
(423,357,l),
(528,405,o),
(564,473,o),
(564,538,cs),
(564,637,o),
(487,726,o),
(342,726,cs),
(197,726,o),
(120,637,o),
(120,538,cs),
(120,496,o),
(132,445,o),
(178,389,c),
(165,385,l),
(74,351,o),
(28,284,o),
(28,186,cs),
(28,78,o),
(113,-10,o),
(263,-10,cs)
);
},
{
closed = 1;
nodes = (
(252,137,o),
(223,169,o),
(223,208,cs),
(223,242,o),
(240,268,o),
(264,279,c),
(271,282,l),
(380,161,l),
(355,144,o),
(329,137,o),
(302,137,cs)
);
},
{
closed = 1;
nodes = (
(309,476,o),
(296,504,o),
(296,530,cs),
(296,560,o),
(317,577,o),
(342,577,cs),
(366,577,o),
(388,560,o),
(388,530,cs),
(388,496,o),
(372,460,o),
(342,449,cs),
(334,446,l)
);
}
);
width = 721;
},
{
background = {
shapes = (
{
closed = 1;
nodes = (
(374,-10,o),
(439,26,o),
(514,129,c),
(650,0,l),
(697,0,l),
(531,157,l),
(662,347,l),
(626,347,l),
(510,177,l),
(316,361,l),
(382,385,ls),
(479,420,o),
(521,471,o),
(521,549,cs),
(521,647,o),
(456,727,o),
(342,727,cs),
(227,727,o),
(163,647,o),
(163,549,cs),
(163,492,o),
(185,441,o),
(259,371,c),
(208,353,ls),
(118,319,o),
(71,251,o),
(71,173,cs),
(71,79,o),
(145,-10,o),
(284,-10,cs)
);
},
{
closed = 1;
nodes = (
(179,19,o),
(105,83,o),
(105,173,cs),
(105,245,o),
(143,297,o),
(220,325,c),
(282,348,l),
(491,150,l),
(418,51,o),
(356,19,o),
(284,19,cs)
);
},
{
closed = 1;
nodes = (
(219,455,o),
(198,497,o),
(198,549,cs),
(198,632,o),
(253,697,o),
(342,697,cs),
(431,697,o),
(486,632,o),
(486,549,cs),
(486,484,o),
(453,442,o),
(372,412,cs),
(293,384,l)
);
}
);
};
layerId = "1750929F-40DF-47FF-8B11-7621AD6711F1";
shapes = (
{
closed = 1;
nodes = (
(363,-10,o),
(429,26,o),
(504,129,c),
(640,0,l),
(687,0,l),
(521,157,l),
(652,347,l),
(616,347,l),
(499,177,l),
(306,361,l),
(372,385,ls),
(469,420,o),
(511,471,o),
(511,549,cs),
(511,647,o),
(446,726,o),
(332,726,cs),
(217,726,o),
(153,647,o),
(153,549,cs),
(153,492,o),
(175,441,o),
(249,371,c),
(198,353,ls),
(106,321,o),
(60,251,o),
(60,173,cs),
(60,79,o),
(135,-10,o),
(273,-10,cs)
);
},
{
closed = 1;
nodes = (
(169,21,o),
(95,83,o),
(95,173,cs),
(95,245,o),
(133,297,o),
(210,325,c),
(272,348,l),
(481,150,l),
(407,51,o),
(346,21,o),
(273,21,cs)
);
},
{
closed = 1;
nodes = (
(209,455,o),
(187,497,o),
(187,549,cs),
(187,632,o),
(243,695,o),
(332,695,cs),
(421,695,o),
(476,632,o),
(476,549,cs),
(476,484,o),
(443,441,o),
(361,412,cs),
(282,384,l)
);
}
);
width = 700;
},
{
layerId = "502A2428-35F6-4863-AD44-5AC44627310C";
shapes = (
{
closed = 1;
nodes = (
(358,-10,o),
(425,20,o),
(491,101,c),
(592,0,l),
(696,0,l),
(534,163,l),
(662,347,l),
(579,347,l),
(487,212,l),
(338,362,l),
(380,379,ls),
(479,419,o),
(521,472,o),
(521,547,cs),
(521,645,o),
(451,726,o),
(329,726,cs),
(207,726,o),
(137,645,o),
(137,547,cs),
(137,494,o),
(158,444,o),
(221,379,c),
(182,363,ls),
(92,326,o),
(45,264,o),
(45,176,cs),
(45,78,o),
(124,-10,o),
(264,-10,cs)
);
},
{
closed = 1;
nodes = (
(182,63,o),
(125,113,o),
(125,182,cs),
(125,244,o),
(159,284,o),
(219,308,c),
(268,330,l),
(443,153,l),
(384,83,o),
(327,63,o),
(264,63,cs)
);
},
{
closed = 1;
nodes = (
(238,466,o),
(217,501,o),
(217,544,cs),
(217,611,o),
(257,658,o),
(329,658,cs),
(400,658,o),
(440,611,o),
(440,544,cs),
(440,487,o),
(416,459,o),
(350,431,cs),
(294,407,l)
);
}
);
width = 694;
}
);
unicode = 38;
}
{
glyphname = quotesingle;
kernLeft = quotedbl;
kernRight = quotedbl;
layers = (
{
background = {
shapes = (
{
closed = 1;
nodes = (
(230,366,l),
(257,715,l),
(67,715,l),
(93,366,l)
);
}
);
};
layerId = "42F8977D-8264-44FF-8A66-A72BD7D3E619";
shapes = (
{
closed = 1;
nodes = (
(230,367,l),
(257,716,l),
(67,716,l),
(93,367,l)
);
}
);
width = 323;
},
{
background = {
shapes = (
{
closed = 1;
nodes = (
(131,452,l),
(137,715,l),
(103,715,l),
(110,452,l)
);
}
);
};
layerId = "1750929F-40DF-47FF-8B11-7621AD6711F1";
shapes = (
{
closed = 1;
nodes = (
(121,453,l),
(127,716,l),
(93,716,l),
(99,453,l)
);
}
);
width = 220;
},
{
layerId = "502A2428-35F6-4863-AD44-5AC44627310C";
shapes = (
{
closed = 1;
nodes = (
(148,430,l),
(160,716,l),
(81,716,l),
(94,430,l)
);
}
);
width = 242;
}
);
unicode = 39;
}
{
glyphname = parenleft;
kernLeft = parenleft;
kernRight = parenleft;
layers = (
{
background = {
shapes = (
{
closed = 1;
nodes = (
(378,-270,l),
(291,-164,o),
(223,46,o),
(223,260,cs),
(223,476,o),
(292,682,o),
(378,791,c),
(236,791,l),
(129,706,o),
(39,475,o),
(39,260,cs),
(39,46,o),
(129,-185,o),
(236,-270,c)
);
}
);
};
layerId = "42F8977D-8264-44FF-8A66-A72BD7D3E619";
shapes = (
{
closed = 1;
nodes = (
(377,-195,l),
(303,-81,o),
(250,106,o),
(250,298,cs),
(250,491,o),
(305,677,o),
(380,792,c),
(226,792,l),
(136,689,o),
(66,487,o),
(66,298,cs),
(66,111,o),
(134,-91,o),
(223,-195,c)
);
}
);
width = 394;
},
{
background = {
shapes = (
{
closed = 1;
nodes = (
(311,-270,l),
(208,-184,o),
(116,46,o),
(116,260,cs),
(116,475,o),
(208,705,o),
(311,791,c),
(279,791,l),
(172,706,o),
(82,475,o),
(82,260,cs),
(82,46,o),
(172,-185,o),
(279,-270,c)
);
}
);
};
layerId = "1750929F-40DF-47FF-8B11-7621AD6711F1";
shapes = (
{
closed = 1;
nodes = (
(300,-195,l),
(215,-93,o),
(146,97,o),
(146,276,cs),
(146,456,o),
(215,646,o),
(300,748,c),
(266,748,l),
(179,647,o),
(113,455,o),
(113,276,cs),
(113,97,o),
(179,-94,o),
(266,-195,c)
);
}
);
width = 338;
},
{
background = {
shapes = (
{
closed = 1;
nodes = (
(311,-270,l),
(208,-184,o),
(116,46,o),
(116,260,cs),
(116,475,o),
(208,705,o),
(311,791,c),
(279,791,l),
(172,706,o),
(82,475,o),
(82,260,cs),
(82,46,o),
(172,-185,o),
(279,-270,c)
);
}
);
};
layerId = "502A2428-35F6-4863-AD44-5AC44627310C";
shapes = (
{
closed = 1;
nodes = (
(314,-195,l),
(232,-87,o),
(168,106,o),
(168,295,cs),
(168,481,o),
(232,674,o),
(314,782,c),
(247,782,l),
(159,677,o),
(91,479,o),
(91,295,cs),
(91,108,o),
(159,-90,o),
(247,-195,c)
);
}
);
width = 343;
},
{
associatedMasterId = "1750929F-40DF-47FF-8B11-7621AD6711F1";
background = {
shapes = (
{
closed = 1;
nodes = (
(311,-270,l),
(208,-184,o),
(116,46,o),
(116,260,cs),
(116,475,o),
(208,705,o),
(311,791,c),
(279,791,l),
(172,706,o),
(82,475,o),
(82,260,cs),
(82,46,o),
(172,-185,o),
(279,-270,c)
);
}
);
};
layerId = "C0B57ACC-C2B8-49D2-83FB-154AB48A1EE5";
name = "Dec 22, 23 at 14:41";
shapes = (
{
closed = 1;
nodes = (
(301,-195,l),
(198,-119,o),
(105,86,o),
(105,276,cs),
(105,468,o),
(198,673,o),
(301,749,c),
(269,749,l),
(162,675,o),
(72,468,o),
(72,276,cs),
(72,86,o),
(162,-120,o),
(269,-195,c)
);
}
);
width = 338;
},
{
associatedMasterId = "502A2428-35F6-4863-AD44-5AC44627310C";
background = {
shapes = (
{
closed = 1;
nodes = (
(311,-270,l),
(208,-184,o),
(116,46,o),
(116,260,cs),
(116,475,o),
(208,705,o),
(311,791,c),
(279,791,l),
(172,706,o),
(82,475,o),
(82,260,cs),
(82,46,o),
(172,-185,o),
(279,-270,c)
);
}
);
};
layerId = "06AF999B-52D6-4929-8B87-CA1211C066D2";
name = "Dec 22, 23 at 14:49";
shapes = (
{
closed = 1;
nodes = (
(316,-195,l),
(218,-110,o),
(133,95,o),
(133,294,cs),
(133,491,o),
(218,697,o),
(316,783,c),
(254,783,l),
(146,704,o),
(56,490,o),
(56,294,cs),
(56,96,o),
(146,-117,o),
(254,-195,c)
);
}
);
width = 339;
},
{
associatedMasterId = "42F8977D-8264-44FF-8A66-A72BD7D3E619";
background = {
shapes = (
{
closed = 1;
nodes = (
(378,-270,l),
(291,-164,o),
(223,46,o),
(223,260,cs),
(223,476,o),
(292,682,o),
(378,791,c),
(236,791,l),
(129,706,o),
(39,475,o),
(39,260,cs),
(39,46,o),
(129,-185,o),
(236,-270,c)
);
}
);
};
layerId = "6FBD5FFE-6DE0-4DA3-86EE-4F67CC4F6CE3";
name = "Dec 22, 23 at 14:54";
shapes = (
{
closed = 1;
nodes = (
(378,-195,l),
(291,-96,o),
(223,98,o),
(223,298,cs),
(223,498,o),
(292,690,o),
(378,792,c),
(236,792,l),
(129,713,o),
(39,497,o),
(39,298,cs),
(39,98,o),
(129,-117,o),
(236,-195,c)
);
}
);
width = 384;
}
);
unicode = 40;
}
{
glyphname = parenright;
kernLeft = parenright;
kernRight = parenright;
layers = (
{
background = {
shapes = (
{
closed = 1;
nodes = (
(156,-270,l),
(264,-183,o),
(355,45,o),
(355,260,cs),
(355,476,o),
(264,704,o),
(156,791,c),
(16,791,l),
(101,684,o),
(171,475,o),
(171,260,cs),
(171,48,o),
(101,-165,o),
(16,-270,c)
);
}
);
};
layerId = "42F8977D-8264-44FF-8A66-A72BD7D3E619";
shapes = (
{
angle = 180;
pos = (394,596);
ref = parenleft;
}
);
width = 394;
},
{
background = {
shapes = (
{
closed = 1;
nodes = (
(78,-270,l),
(185,-183,o),
(276,45,o),
(276,260,cs),
(276,476,o),
(185,704,o),
(78,791,c),
(47,791,l),
(150,705,o),
(243,475,o),
(243,260,cs),
(243,46,o),
(150,-184,o),
(47,-270,c)
);
}
);
};
layerId = "1750929F-40DF-47FF-8B11-7621AD6711F1";
shapes = (
{
angle = 180;
pos = (338,554);
ref = parenleft;
}
);
width = 338;
},
{
layerId = "502A2428-35F6-4863-AD44-5AC44627310C";
shapes = (
{
angle = 180;
pos = (343,588);
ref = parenleft;
}
);
width = 343;
}
);
metricLeft = "=|parenleft";
metricRight = "=|parenleft";
unicode = 41;
}
{
glyphname = asterisk;
kernLeft = asterisk;
kernRight = asterisk;
layers = (
{
background = {
shapes = (
{
closed = 1;
nodes = (
(257,396,l),
(329,279,l),
(442,362,l),
(353,468,l),
(486,499,l),
(444,632,l),
(316,578,l),
(327,715,l),
(187,715,l),
(199,578,l),
(71,632,l),
(28,499,l),
(162,468,l),
(72,362,l),
(185,279,l)
);
}
);
};
layerId = "42F8977D-8264-44FF-8A66-A72BD7D3E619";
shapes = (
{
closed = 1;
nodes = (
(257,397,l),
(329,280,l),
(442,363,l),
(353,469,l),
(486,501,l),
(444,633,l),
(316,579,l),
(327,716,l),
(187,716,l),
(199,579,l),
(71,633,l),
(28,501,l),
(162,469,l),
(72,363,l),
(185,280,l)
);
}
);
width = 515;
},
{
background = {
shapes = (
{
closed = 1;
nodes = (
(264,502,l),
(365,345,l),
(394,364,l),
(276,513,l),
(456,562,l),
(447,595,l),
(272,529,l),
(280,715,l),
(247,715,l),
(255,529,l),
(81,595,l),
(71,562,l),
(251,513,l),
(133,364,l),
(162,345,l)
);
}
);
};
layerId = "1750929F-40DF-47FF-8B11-7621AD6711F1";
shapes = (
{
closed = 1;
nodes = (
(254,503,l),
(355,346,l),
(384,365,l),
(266,514,l),
(446,563,l),
(437,596,l),
(262,530,l),
(270,716,l),
(236,716,l),
(245,530,l),
(71,596,l),
(60,563,l),
(241,514,l),
(123,365,l),
(151,346,l)
);
}
);
width = 507;
},
{
layerId = "502A2428-35F6-4863-AD44-5AC44627310C";
shapes = (
{
closed = 1;
nodes = (
(251,473,l),
(344,328,l),
(396,364,l),
(287,502,l),
(454,546,l),
(435,607,l),
(274,545,l),
(282,716,l),
(218,716,l),
(227,545,l),
(67,607,l),
(47,546,l),
(215,502,l),
(104,364,l),
(158,328,l)
);
}
);
width = 502;
}
);
unicode = 42;
}
{
glyphname = plus;
kernLeft = plus;
kernRight = plus;
layers = (
{
background = {
shapes = (
{
closed = 1;
nodes = (
(396,95,l),
(396,278,l),
(574,278,l),
(574,437,l),
(396,437,l),
(396,620,l),
(227,620,l),
(227,437,l),
(49,437,l),
(49,278,l),
(227,278,l),
(227,95,l)
);
}
);
};
layerId = "42F8977D-8264-44FF-8A66-A72BD7D3E619";
shapes = (
{
closed = 1;
nodes = (
(396,95,l),
(396,278,l),
(574,278,l),
(574,437,l),
(396,437,l),
(396,620,l),
(227,620,l),
(227,437,l),
(49,437,l),
(49,278,l),
(227,278,l),
(227,95,l)
);
}
);
width = 623;
},
{
background = {
shapes = (
{
closed = 1;
nodes = (
(329,149,l),
(329,343,l),
(521,343,l),
(521,373,l),
(329,373,l),
(329,567,l),
(295,567,l),
(295,373,l),
(103,373,l),
(103,343,l),
(295,343,l),
(295,149,l)
);
}
);
};
layerId = "1750929F-40DF-47FF-8B11-7621AD6711F1";
shapes = (
{
closed = 1;
nodes = (
(319,149,l),
(319,343,l),
(511,343,l),
(511,373,l),
(319,373,l),
(319,567,l),
(285,567,l),
(285,373,l),
(93,373,l),
(93,343,l),
(285,343,l),
(285,149,l)
);
}
);
width = 603;
},
{
layerId = "502A2428-35F6-4863-AD44-5AC44627310C";
shapes = (
{
closed = 1;
nodes = (
(334,134,l),
(334,325,l),
(523,325,l),
(523,391,l),
(334,391,l),
(334,582,l),
(263,582,l),
(263,391,l),
(75,391,l),
(75,325,l),
(263,325,l),
(263,134,l)
);
}
);
width = 597;
}
);
unicode = 43;
}
{
glyphname = comma;
kernLeft = comma;
kernRight = comma;
layers = (
{
background = {
shapes = (
{
closed = 1;
nodes = (
(204,-120,o),
(244,-50,o),
(244,64,cs),
(244,169,l),
(74,169,l),
(74,64,ls),
(74,10,o),
(50,-72,o),
(16,-132,c),
(115,-180,l)
);
}
);
};
layerId = "42F8977D-8264-44FF-8A66-A72BD7D3E619";
shapes = (
{
closed = 1;
nodes = (
(204,-120,o),
(244,-50,o),
(244,64,cs),
(244,169,l),
(74,169,l),
(74,64,ls),
(74,10,o),
(50,-72,o),
(16,-132,c),
(115,-180,l)
);
}
);
width = 323;
},
{
background = {
shapes = (
{
closed = 1;
nodes = (
(126,-124,o),
(137,-85,o),
(137,-24,cs),
(137,49,l),
(103,49,l),
(103,-24,ls),
(103,-79,o),
(95,-107,o),
(71,-144,c),
(91,-155,l)
);
}
);
};
layerId = "1750929F-40DF-47FF-8B11-7621AD6711F1";
shapes = (
{
closed = 1;
nodes = (
(116,-124,o),
(127,-85,o),
(127,-24,cs),
(127,49,l),
(93,49,l),
(93,-24,ls),
(93,-79,o),
(85,-107,o),
(60,-144,c),
(81,-155,l)
);
}
);
width = 220;
},
{
layerId = "502A2428-35F6-4863-AD44-5AC44627310C";
shapes = (
{
closed = 1;
nodes = (
(133,-123,o),
(154,-77,o),
(154,0,cs),
(154,83,l),
(81,83,l),
(81,0,ls),
(81,-55,o),
(68,-96,o),
(41,-141,c),
(83,-162,l)
);
}
);
width = 241;
}
);
unicode = 44;
}
{
glyphname = period;
kernLeft = comma;
kernRight = comma;
layers = (
{
background = {
shapes = (
{
closed = 1;
nodes = (
(226,-10,o),
(268,31,o),
(268,90,cs),
(268,149,o),
(226,190,o),
(162,190,cs),
(97,190,o),
(55,149,o),
(55,90,cs),
(55,31,o),
(97,-10,o),
(162,-10,cs)
);
}
);
};
layerId = "42F8977D-8264-44FF-8A66-A72BD7D3E619";
shapes = (
{
closed = 1;
nodes = (
(226,-10,o),
(268,31,o),
(268,90,cs),
(268,149,o),
(226,190,o),
(162,190,cs),
(97,190,o),
(55,149,o),
(55,90,cs),
(55,31,o),
(97,-10,o),
(162,-10,cs)
);
}
);
width = 323;
},
{
background = {
shapes = (
{
closed = 1;
nodes = (
(137,-4,o),
(148,6,o),
(148,23,cs),
(148,39,o),
(137,49,o),
(120,49,cs),
(103,49,o),
(92,39,o),
(92,23,cs),
(92,6,o),
(103,-4,o),
(120,-4,cs)
);
}
);
};
layerId = "1750929F-40DF-47FF-8B11-7621AD6711F1";
shapes = (
{
closed = 1;
nodes = (
(127,-4,o),
(138,6,o),
(138,23,cs),
(138,39,o),
(127,49,o),
(110,49,cs),
(93,49,o),
(82,39,o),
(82,23,cs),
(82,6,o),
(93,-4,o),
(110,-4,cs)
);
}
);
width = 220;
},
{
layerId = "502A2428-35F6-4863-AD44-5AC44627310C";
shapes = (
{
closed = 1;
nodes = (
(150,-6,o),
(171,14,o),
(171,41,cs),
(171,69,o),
(150,89,o),
(121,89,cs),
(90,89,o),
(70,69,o),
(70,41,cs),
(70,14,o),
(90,-6,o),
(121,-6,cs)
);
}
);
width = 241;
}
);
unicode = 46;
}
{
glyphname = slash;
kernLeft = slash;
kernRight = slash;
layers = (
{
background = {
shapes = (
{
closed = 1;
nodes = (
(178,0,l),
(411,715,l),
(241,715,l),
(6,0,l)
);
}
);
};
layerId = "42F8977D-8264-44FF-8A66-A72BD7D3E619";
shapes = (
{
closed = 1;
nodes = (
(178,0,l),
(411,716,l),
(241,716,l),
(6,0,l)
);
}
);
width = 418;
},
{
background = {
shapes = (
{
closed = 1;
nodes = (
(60,0,l),
(294,715,l),
(259,715,l),
(26,0,l)
);
}
);
};
layerId = "1750929F-40DF-47FF-8B11-7621AD6711F1";
shapes = (
{
closed = 1;
nodes = (
(50,0,l),
(284,716,l),
(249,716,l),
(15,0,l)
);
}
);
width = 299;
},
{
layerId = "502A2428-35F6-4863-AD44-5AC44627310C";
shapes = (
{
closed = 1;
nodes = (
(89,0,l),
(323,716,l),
(250,716,l),
(16,0,l)
);
}
);
width = 339;
}
);
unicode = 47;
}
{
glyphname = zero;
kernLeft = zero;
kernRight = zero;
layers = (
{
background = {
shapes = (
{
closed = 1;
nodes = (
(559,-10,o),
(660,143,o),
(660,358,cs),
(660,572,o),
(559,727,o),
(344,727,cs),
(130,727,o),
(28,572,o),
(28,358,cs),
(28,143,o),
(130,-10,o),
(344,-10,cs)
);
},
{
closed = 1;
nodes = (
(274,155,o),
(233,211,o),
(233,358,cs),
(233,505,o),
(274,562,o),
(344,562,cs),
(414,562,o),
(454,505,o),
(454,358,cs),
(454,211,o),
(414,155,o),
(344,155,cs)
);
}
);
};
layerId = "42F8977D-8264-44FF-8A66-A72BD7D3E619";
shapes = (
{
closed = 1;
nodes = (
(559,-10,o),
(660,143,o),
(660,358,cs),
(660,572,o),
(559,726,o),
(344,726,cs),
(130,726,o),
(28,572,o),
(28,358,cs),
(28,143,o),
(130,-10,o),
(344,-10,cs)
);
},
{
closed = 1;
nodes = (
(275,156,o),
(234,212,o),
(234,358,cs),
(234,504,o),
(275,560,o),
(344,560,cs),
(414,560,o),
(454,504,o),
(454,358,cs),
(454,212,o),
(414,156,o),
(344,156,cs)
);
}
);
width = 688;
},
{
background = {
shapes = (
{
closed = 1;
nodes = (
(516,-10,o),
(617,143,o),
(617,358,cs),
(617,572,o),
(516,727,o),
(344,727,cs),
(173,727,o),
(71,572,o),
(71,358,cs),
(71,143,o),
(173,-10,o),
(344,-10,cs)
);
},
{
closed = 1;
nodes = (
(210,19,o),
(107,136,o),
(107,358,cs),
(107,579,o),
(210,697,o),
(344,697,cs),
(478,697,o),
(581,579,o),
(581,358,cs),
(581,136,o),
(478,19,o),
(344,19,cs)
);
}
);
};
layerId = "1750929F-40DF-47FF-8B11-7621AD6711F1";
shapes = (
{
closed = 1;
nodes = (
(516,-10,o),
(617,143,o),
(617,358,cs),
(617,572,o),
(516,727,o),
(344,727,cs),
(173,727,o),
(71,572,o),
(71,358,cs),
(71,143,o),
(173,-10,o),
(344,-10,cs)
);
},
{
closed = 1;
nodes = (
(211,21,o),
(108,137,o),
(108,358,cs),
(108,579,o),
(210,696,o),
(344,696,cs),
(477,696,o),
(580,579,o),
(580,358,cs),
(580,137,o),
(477,21,o),
(344,21,cs)
);
}
);
width = 688;
},
{
layerId = "502A2428-35F6-4863-AD44-5AC44627310C";
shapes = (
{
closed = 1;
nodes = (
(528,-10,o),
(631,143,o),
(631,358,cs),
(631,572,o),
(528,726,o),
(344,726,cs),
(161,726,o),
(58,572,o),
(58,358,cs),
(58,143,o),
(161,-10,o),
(344,-10,cs)
);
},
{
closed = 1;
nodes = (
(228,58,o),
(143,158,o),
(143,358,cs),
(143,558,o),
(228,658,o),
(344,658,cs),
(461,658,o),
(546,558,o),
(546,358,cs),
(546,158,o),
(461,58,o),
(344,58,cs)
);
}
);
width = 688;
}
);
unicode = 48;
}
{
glyphname = one;
kernLeft = one;
kernRight = one;
layers = (
{
background = {
shapes = (
{
closed = 1;
nodes = (
(371,0,l),
(371,715,l),
(231,715,l),
(6,605,l),
(70,463,l),
(167,511,l),
(167,0,l)
);
}
);
};
layerId = "42F8977D-8264-44FF-8A66-A72BD7D3E619";
shapes = (
{
closed = 1;
nodes = (
(371,0,l),
(371,716,l),
(231,716,l),
(6,606,l),
(70,464,l),
(167,512,l),
(167,0,l)
);
}
);
width = 431;
},
{
background = {
shapes = (
{
closed = 1;
nodes = (
(306,0,l),
(306,715,l),
(272,715,l),
(49,594,l),
(69,569,l),
(272,683,l),
(272,0,l)
);
}
);
};
layerId = "1750929F-40DF-47FF-8B11-7621AD6711F1";
shapes = (
{
closed = 1;
nodes = (
(306,0,l),
(306,716,l),
(272,716,l),
(49,595,l),
(69,570,l),
(272,684,l),
(272,0,l)
);
}
);
width = 409;
},
{
layerId = "502A2428-35F6-4863-AD44-5AC44627310C";
shapes = (
{
closed = 1;
nodes = (
(324,0,l),
(324,716,l),
(259,716,l),
(37,598,l),
(72,532,l),
(242,626,l),
(242,0,l)
);
}
);
width = 415;
}
);
unicode = 49;
}
{
glyphname = two;
kernLeft = two;
kernRight = two;
layers = (
{
background = {
shapes = (
{
closed = 1;
nodes = (
(566,0,l),
(566,165,l),
(282,165,l),
(410,270,ls),
(513,355,o),
(555,420,o),
(555,498,cs),
(555,645,o),
(445,727,o),
(281,727,cs),
(187,727,o),
(114,697,o),
(28,637,c),
(91,495,l),
(172,538,o),
(219,562,o),
(271,562,cs),
(318,562,o),
(349,538,o),
(349,498,cs),
(349,470,o),
(332,435,o),
(293,401,cs),
(28,165,l),
(28,0,l)
);
}
);
};
layerId = "42F8977D-8264-44FF-8A66-A72BD7D3E619";
shapes = (
{
closed = 1;
nodes = (
(564,0,l),
(564,165,l),
(292,165,l),
(410,270,ls),
(510,359,o),
(555,420,o),
(555,498,cs),
(555,645,o),
(445,726,o),
(281,726,cs),
(187,726,o),
(114,697,o),
(28,637,c),
(91,494,l),
(172,537,o),
(219,560,o),
(271,560,cs),
(318,560,o),
(349,538,o),
(349,498,cs),
(349,470,o),
(332,435,o),
(293,401,cs),
(28,165,l),
(28,0,l)
);
}
);
width = 593;
},
{
background = {
shapes = (
{
closed = 1;
nodes = (
(523,0,l),
(523,30,l),
(117,30,l),
(432,335,ls),
(497,399,o),
(513,452,o),
(513,498,cs),
(513,635,o),
(412,727,o),
(281,727,cs),
(209,727,o),
(135,698,o),
(71,626,c),
(91,602,l),
(160,672,o),
(213,697,o),
(281,697,cs),
(395,697,o),
(476,615,o),
(476,498,cs),
(476,448,o),
(455,402,o),
(407,356,cs),
(71,30,l),
(71,0,l)
);
}
);
};
layerId = "1750929F-40DF-47FF-8B11-7621AD6711F1";
shapes = (
{
closed = 1;
nodes = (
(521,0,l),
(521,30,l),
(119,30,l),
(432,334,ls),
(497,398,o),
(513,460,o),
(513,506,cs),
(513,646,o),
(420,726,o),
(289,726,cs),
(217,726,o),
(135,698,o),
(71,626,c),
(91,602,l),
(160,672,o),
(221,695,o),
(289,695,cs),
(403,695,o),
(476,626,o),
(476,506,cs),
(476,455,o),
(455,402,o),
(407,356,cs),
(71,30,l),
(71,0,l)
);
}
);
width = 592;
},
{
layerId = "502A2428-35F6-4863-AD44-5AC44627310C";
shapes = (
{
closed = 1;
nodes = (
(536,0,l),
(536,68,l),
(165,68,l),
(426,317,ls),
(500,387,o),
(525,453,o),
(525,509,cs),
(525,648,o),
(427,726,o),
(286,726,cs),
(207,726,o),
(130,698,o),
(58,629,c),
(93,569,l),
(165,629,o),
(223,658,o),
(284,658,cs),
(379,658,o),
(440,604,o),
(440,509,cs),
(440,466,o),
(421,412,o),
(375,368,cs),
(58,69,l),
(58,0,l)
);
}
);
width = 594;
}
);
unicode = 50;
}
{
glyphname = three;
kernLeft = three;
kernRight = three;
layers = (
{
background = {
shapes = (
{
closed = 1;
nodes = (
(472,-10,o),
(588,83,o),
(588,207,cs),
(588,279,o),
(547,336,o),
(470,368,c),
(538,399,o),
(576,450,o),
(576,520,cs),
(576,645,o),
(460,727,o),
(298,727,cs),
(213,727,o),
(124,697,o),
(39,637,c),
(101,495,l),
(187,541,o),
(255,562,o),
(298,562,cs),
(340,562,o),
(371,544,o),
(371,504,cs),
(371,464,o),
(340,446,o),
(298,446,cs),
(185,446,l),
(185,292,l),
(298,292,ls),
(345,292,o),
(382,269,o),
(382,223,cs),
(382,177,o),
(345,155,o),
(298,155,cs),
(244,155,o),
(175,177,o),
(91,221,c),
(28,79,l),
(114,19,o),
(204,-10,o),
(298,-10,cs)
);
}
);
};
layerId = "42F8977D-8264-44FF-8A66-A72BD7D3E619";
shapes = (
{
closed = 1;
nodes = (
(472,-10,o),
(588,83,o),
(588,207,cs),
(588,279,o),
(547,336,o),
(470,368,c),
(538,399,o),
(576,450,o),
(576,520,cs),
(576,645,o),
(460,726,o),
(298,726,cs),
(213,726,o),
(124,695,o),
(39,635,c),
(101,493,l),
(185,541,o),
(255,560,o),
(298,560,cs),
(340,560,o),
(371,544,o),
(371,504,cs),
(371,464,o),
(340,446,o),
(298,446,cs),
(185,446,l),
(185,292,l),
(298,292,ls),
(345,292,o),
(382,269,o),
(382,223,cs),
(382,177,o),
(345,156,o),
(298,156,cs),
(244,156,o),
(175,176,o),
(91,223,c),
(28,81,l),
(114,21,o),
(204,-10,o),
(298,-10,cs)
);
}
);
width = 615;
},
{
background = {
shapes = (
{
closed = 1;
nodes = (
(449,-10,o),
(545,71,o),
(545,186,cs),
(545,277,o),
(482,346,o),
(377,368,c),
(474,393,o),
(533,459,o),
(533,540,cs),
(533,645,o),
(439,727,o),
(298,727,cs),
(204,727,o),
(142,698,o),
(82,626,c),
(101,602,l),
(161,673,o),
(215,697,o),
(298,697,cs),
(414,697,o),
(497,640,o),
(497,540,cs),
(497,440,o),
(414,384,o),
(298,384,cs),
(228,384,l),
(228,354,l),
(298,354,ls),
(425,354,o),
(508,286,o),
(508,186,cs),
(508,88,o),
(425,19,o),
(298,19,cs),
(221,19,o),
(153,42,o),
(91,114,c),
(71,90,l),
(132,18,o),
(200,-10,o),
(298,-10,cs)
);
}
);
};
layerId = "1750929F-40DF-47FF-8B11-7621AD6711F1";
shapes = (
{
closed = 1;
nodes = (
(459,-10,o),
(545,71,o),
(545,186,cs),
(545,277,o),
(482,346,o),
(377,368,c),
(474,393,o),
(533,452,o),
(533,540,cs),
(533,645,o),
(449,726,o),
(308,726,cs),
(214,726,o),
(142,697,o),
(82,625,c),
(101,601,l),
(161,672,o),
(225,695,o),
(308,695,cs),
(424,695,o),
(497,640,o),
(497,540,cs),
(497,440,o),
(414,384,o),
(298,384,cs),
(228,384,l),
(228,354,l),
(298,354,ls),
(425,354,o),
(508,286,o),
(508,186,cs),
(508,88,o),
(435,21,o),
(308,21,cs),
(231,21,o),
(158,47,o),
(91,114,c),
(71,90,l),
(137,23,o),
(210,-10,o),
(308,-10,cs)
);
}
);
width = 615;
},
{
layerId = "502A2428-35F6-4863-AD44-5AC44627310C";
shapes = (
{
closed = 1;
nodes = (
(458,-10,o),
(556,74,o),
(556,191,cs),
(556,278,o),
(498,344,o),
(402,368,c),
(491,394,o),
(546,456,o),
(546,534,cs),
(546,645,o),
(448,726,o),
(300,726,cs),
(209,726,o),
(137,697,o),
(70,628,c),
(104,568,l),
(171,632,o),
(232,658,o),
(300,658,cs),
(394,658,o),
(461,613,o),
(461,529,cs),
(461,446,o),
(391,402,o),
(297,402,cs),
(215,402,l),
(215,337,l),
(297,337,ls),
(401,337,o),
(471,281,o),
(471,198,cs),
(471,113,o),
(404,58,o),
(300,58,cs),
(233,58,o),
(161,83,o),
(93,147,c),
(58,88,l),
(127,18,o),
(202,-10,o),
(300,-10,cs)
);
}
);
width = 615;
}
);
unicode = 51;
}
{
glyphname = four;
kernLeft = four;
kernRight = four;
layers = (
{
background = {
shapes = (
{
closed = 1;
nodes = (
(545,0,l),
(545,135,l),
(639,135,l),
(639,290,l),
(545,290,l),
(545,715,l),
(341,715,l),
(28,321,l),
(28,135,l),
(351,135,l),
(351,0,l)
);
},
{
closed = 1;
nodes = (
(351,497,l),
(351,290,l),
(194,290,l)
);
}
);
};
layerId = "42F8977D-8264-44FF-8A66-A72BD7D3E619";
shapes = (
{
closed = 1;
nodes = (
(545,0,l),
(545,135,l),
(639,135,l),
(639,290,l),
(545,290,l),
(545,716,l),
(341,716,l),
(28,321,l),
(28,135,l),
(351,135,l),
(351,0,l)
);
},
{
closed = 1;
nodes = (
(351,498,l),
(351,290,l),
(194,290,l)
);
}
);
width = 666;
},
{
background = {
shapes = (
{
closed = 1;
nodes = (
(502,0,l),
(502,198,l),
(596,198,l),
(596,227,l),
(502,227,l),
(502,715,l),
(456,715,l),
(71,237,l),
(71,198,l),
(468,198,l),
(468,0,l)
);
},
{
closed = 1;
nodes = (
(468,680,l),
(468,227,l),
(104,227,l)
);
}
);
};
layerId = "1750929F-40DF-47FF-8B11-7621AD6711F1";
shapes = (
{
closed = 1;
nodes = (
(502,0,l),
(502,197,l),
(596,197,l),
(596,227,l),
(502,227,l),
(502,716,l),
(456,716,l),
(71,237,l),
(71,197,l),
(468,197,l),
(468,0,l)
);
},
{
closed = 1;
nodes = (
(468,681,l),
(468,227,l),
(104,227,l)
);
}
);
width = 666;
},
{
layerId = "502A2428-35F6-4863-AD44-5AC44627310C";
shapes = (
{
closed = 1;
nodes = (
(516,0,l),
(516,178,l),
(609,178,l),
(609,246,l),
(516,246,l),
(516,716,l),
(423,716,l),
(58,262,l),
(58,178,l),
(434,178,l),
(434,0,l)
);
},
{
closed = 1;
nodes = (
(434,628,l),
(434,246,l),
(131,246,l)
);
}
);
width = 666;
}
);
unicode = 52;
}
{
glyphname = five;
kernLeft = five;
kernRight = five;
layers = (
{
background = {
shapes = (
{
closed = 1;
nodes = (
(488,-10,o),
(596,100,o),
(596,241,cs),
(596,378,o),
(501,470,o),
(349,470,cs),
(308,470,o),
(271,459,o),
(242,442,c),
(266,562,l),
(542,562,l),
(542,727,l),
(114,727,l),
(39,302,l),
(209,273,l),
(223,300,o),
(250,321,o),
(296,321,cs),
(355,321,o),
(390,286,o),
(390,237,cs),
(390,190,o),
(355,155,o),
(296,155,cs),
(231,155,o),
(177,175,o),
(92,221,c),
(28,79,l),
(115,18,o),
(180,-10,o),
(306,-10,cs)
);
}
);
};
layerId = "42F8977D-8264-44FF-8A66-A72BD7D3E619";
shapes = (
{
closed = 1;
nodes = (
(488,-10,o),
(596,100,o),
(596,241,cs),
(596,378,o),
(501,471,o),
(349,471,cs),
(308,471,o),
(271,459,o),
(242,442,c),
(266,561,l),
(542,561,l),
(542,716,l),
(114,716,l),
(39,302,l),
(209,273,l),
(223,300,o),
(250,321,o),
(296,321,cs),
(355,321,o),
(390,286,o),
(390,237,cs),
(390,190,o),
(355,156,o),
(296,156,cs),
(231,156,o),
(177,176,o),
(92,222,c),
(28,79,l),
(115,18,o),
(180,-10,o),
(306,-10,cs)
);
}
);
width = 623;
},
{
background = {
shapes = (
{
closed = 1;
nodes = (
(455,-10,o),
(553,87,o),
(553,224,cs),
(553,361,o),
(455,459,o),
(306,459,cs),
(250,459,o),
(177,447,o),
(131,387,c),
(185,697,l),
(499,697,l),
(499,727,l),
(157,727,l),
(86,325,l),
(118,318,l),
(132,395,o),
(207,429,o),
(296,429,cs),
(434,429,o),
(517,354,o),
(517,224,cs),
(517,94,o),
(434,19,o),
(296,19,cs),
(215,19,o),
(155,42,o),
(93,114,c),
(71,90,l),
(131,19,o),
(199,-10,o),
(306,-10,cs)
);
}
);
};
layerId = "1750929F-40DF-47FF-8B11-7621AD6711F1";
shapes = (
{
closed = 1;
nodes = (
(455,-10,o),
(553,87,o),
(553,224,cs),
(553,361,o),
(455,460,o),
(306,460,cs),
(250,460,o),
(177,447,o),
(131,387,c),
(185,686,l),
(510,686,l),
(510,716,l),
(157,716,l),
(89,342,l),
(121,335,l),
(164,394,o),
(204,429,o),
(303,429,cs),
(431,429,o),
(516,354,o),
(516,224,cs),
(516,94,o),
(434,21,o),
(296,21,cs),
(215,21,o),
(155,42,o),
(93,114,c),
(71,90,l),
(131,19,o),
(199,-10,o),
(306,-10,cs)
);
}
);
width = 623;
},
{
layerId = "502A2428-35F6-4863-AD44-5AC44627310C";
shapes = (
{
closed = 1;
nodes = (
(465,-10,o),
(564,91,o),
(564,228,cs),
(564,365,o),
(470,464,o),
(309,464,cs),
(253,464,o),
(200,449,o),
(163,415,c),
(207,648,l),
(522,648,l),
(522,716,l),
(143,716,l),
(74,330,l),
(146,317,l),
(176,367,o),
(218,396,o),
(305,396,cs),
(410,396,o),
(479,335,o),
(479,227,cs),
(479,121,o),
(410,58,o),
(295,58,cs),
(224,58,o),
(162,81,o),
(94,146,c),
(58,88,l),
(124,19,o),
(192,-10,o),
(305,-10,cs)
);
}
);
width = 623;
}
);
unicode = 53;
}
{
glyphname = six;
kernLeft = zero;
kernRight = six;
layers = (
{
background = {
shapes = (
{
closed = 1;
nodes = (
(521,-10,o),
(628,100,o),
(628,241,cs),
(628,378,o),
(532,470,o),
(382,470,cs),
(320,470,o),
(265,446,o),
(233,412,c),
(240,529,o),
(323,562,o),
(392,562,cs),
(435,562,o),
(484,549,o),
(549,506,c),
(609,637,l),
(553,697,o),
(465,727,o),
(371,727,cs),
(145,727,o),
(28,562,o),
(28,315,cs),
(28,100,o),
(157,-10,o),
(339,-10,cs)
);
},
{
closed = 1;
nodes = (
(273,155,o),
(243,190,o),
(233,237,c),
(233,286,o),
(269,321,o),
(328,321,cs),
(387,321,o),
(423,286,o),
(423,237,cs),
(423,190,o),
(387,155,o),
(328,155,cs)
);
}
);
};
layerId = "42F8977D-8264-44FF-8A66-A72BD7D3E619";
shapes = (
{
closed = 1;
nodes = (
(521,-10,o),
(628,100,o),
(628,241,cs),
(628,378,o),
(532,471,o),
(382,471,cs),
(282,471,o),
(204,414,o),
(204,339,c),
(230,209,l),
(225,274,o),
(256,321,o),
(328,321,cs),
(387,321,o),
(422,286,o),
(422,237,cs),
(422,190,o),
(385,156,o),
(333,156,cs),
(282,156,o),
(226,180,o),
(226,328,cs),
(226,523,o),
(298,560,o),
(392,560,cs),
(435,560,o),
(493,551,o),
(548,504,c),
(609,637,l),
(553,697,o),
(465,726,o),
(371,726,cs),
(145,726,o),
(28,562,o),
(28,315,cs),
(28,100,o),
(157,-10,o),
(339,-10,cs)
);
}
);
width = 656;
},
{
background = {
shapes = (
{
closed = 1;
nodes = (
(487,-10,o),
(585,87,o),
(585,224,cs),
(585,361,o),
(487,459,o),
(339,459,cs),
(220,459,o),
(141,410,o),
(107,325,c),
(107,579,o),
(202,697,o),
(356,697,cs),
(429,697,o),
(493,662,o),
(544,602,c),
(566,626,l),
(515,689,o),
(446,727,o),
(356,727,cs),
(157,727,o),
(71,562,o),
(71,315,cs),
(71,89,o),
(166,-10,o),
(339,-10,cs)
);
},
{
closed = 1;
nodes = (
(190,19,o),
(128,99,o),
(107,224,c),
(107,354,o),
(189,429,o),
(328,429,cs),
(466,429,o),
(549,354,o),
(549,224,cs),
(549,94,o),
(466,19,o),
(328,19,cs)
);
}
);
};
layerId = "1750929F-40DF-47FF-8B11-7621AD6711F1";
shapes = (
{
closed = 1;
nodes = (
(486,-10,o),
(585,87,o),
(585,224,cs),
(585,359,o),
(484,460,o),
(337,460,cs),
(207,460,o),
(100,374,o),
(100,274,c),
(107,211,l),
(107,355,o),
(220,429,o),
(330,429,cs),
(463,429,o),
(548,352,o),
(548,224,cs),
(548,101,o),
(459,21,o),
(340,21,cs),
(212,21,o),
(108,102,o),
(108,323,cs),
(108,570,o),
(202,695,o),
(356,695,cs),
(429,695,o),
(493,662,o),
(544,602,c),
(566,626,l),
(515,689,o),
(446,726,o),
(347,726,cs),
(166,726,o),
(71,569,o),
(71,322,cs),
(71,98,o),
(177,-10,o),
(347,-10,cs)
);
}
);
width = 656;
},
{
background = {
shapes = (
{
closed = 1;
nodes = (
(497,-10,o),
(598,91,o),
(598,228,cs),
(598,365,o),
(503,465,o),
(342,465,cs),
(248,465,o),
(180,429,o),
(143,369,c),
(150,573,o),
(240,658,o),
(366,658,cs),
(431,658,o),
(489,629,o),
(544,574,c),
(579,629,l),
(524,692,o),
(451,727,o),
(360,727,cs),
(154,727,o),
(58,562,o),
(58,315,cs),
(58,92,o),
(164,-10,o),
(339,-10,cs)
);
},
{
closed = 1;
nodes = (
(220,58,o),
(160,126,o),
(143,227,c),
(143,336,o),
(218,396,o),
(328,396,cs),
(437,396,o),
(513,335,o),
(513,227,cs),
(513,121,o),
(437,58,o),
(328,58,cs)
);
}
);
};
layerId = "502A2428-35F6-4863-AD44-5AC44627310C";
shapes = (
{
closed = 1;
nodes = (
(498,-10,o),
(598,91,o),
(598,228,cs),
(598,365,o),
(503,465,o),
(342,465,cs),
(228,465,o),
(116,391,o),
(116,284,c),
(140,203,l),
(140,327,o),
(226,396,o),
(328,396,cs),
(437,396,o),
(513,335,o),
(513,227,cs),
(513,121,o),
(431,58,o),
(339,58,cs),
(207,58,o),
(141,137,o),
(141,308,cs),
(141,517,o),
(204,658,o),
(353,658,cs),
(425,658,o),
(489,629,o),
(544,574,c),
(579,629,l),
(524,692,o),
(455,726,o),
(348,726,cs),
(170,726,o),
(58,574,o),
(58,328,cs),
(58,104,o),
(161,-10,o),
(350,-10,cs)
);
}
);
width = 656;
}
);
unicode = 54;
}
{
glyphname = seven;
kernLeft = seven;
kernRight = seven;
layers = (
{
anchors = (
{
name = center;
pos = (322,309);
}
);
background = {
shapes = (
{
closed = 1;
nodes = (
(276,0,l),
(545,574,l),
(545,715,l),
(6,715,l),
(6,551,l),
(347,551,l),
(82,0,l)
);
}
);
};
layerId = "42F8977D-8264-44FF-8A66-A72BD7D3E619";
shapes = (
{
closed = 1;
nodes = (
(276,0,l),
(545,574,l),
(545,716,l),
(6,716,l),
(6,551,l),
(347,551,l),
(82,0,l)
);
}
);
width = 551;
},
{
anchors = (
{
name = center;
pos = (292,345);
}
);
background = {
shapes = (
{
closed = 1;
nodes = (
(197,0,l),
(502,686,l),
(502,715,l),
(49,715,l),
(49,686,l),
(468,686,l),
(162,0,l)
);
}
);
};
layerId = "1750929F-40DF-47FF-8B11-7621AD6711F1";
shapes = (
{
closed = 1;
nodes = (
(197,0,l),
(502,686,l),
(502,716,l),
(49,716,l),
(49,686,l),
(468,686,l),
(162,0,l)
);
}
);
width = 551;
},
{
anchors = (
{
name = center;
pos = (316,336);
}
);
layerId = "502A2428-35F6-4863-AD44-5AC44627310C";
shapes = (
{
closed = 1;
nodes = (
(219,0,l),
(515,655,l),
(515,716,l),
(37,716,l),
(37,648,l),
(434,648,l),
(139,0,l)
);
}
);
width = 551;
}
);
unicode = 55;
}
{
glyphname = eight;
kernLeft = eight;
kernRight = B;
layers = (
{
background = {
shapes = (
{
closed = 1;
nodes = (
(513,-10,o),
(628,83,o),
(628,207,cs),
(628,279,o),
(589,336,o),
(508,368,c),
(579,399,o),
(617,450,o),
(617,520,cs),
(617,645,o),
(502,727,o),
(328,727,cs),
(155,727,o),
(39,645,o),
(39,520,cs),
(39,450,o),
(75,400,o),
(146,368,c),
(69,336,o),
(28,279,o),
(28,207,cs),
(28,83,o),
(143,-10,o),
(328,-10,cs)
);
},
{
closed = 1;
nodes = (
(269,143,o),
(233,176,o),
(233,222,cs),
(233,268,o),
(269,300,o),
(328,300,cs),
(387,300,o),
(423,268,o),
(423,222,cs),
(423,176,o),
(387,143,o),
(328,143,cs)
);
},
{
closed = 1;
nodes = (
(276,437,o),
(245,465,o),
(245,505,cs),
(245,545,o),
(276,572,o),
(328,572,cs),
(380,572,o),
(411,545,o),
(411,505,cs),
(411,465,o),
(380,437,o),
(328,437,cs)
);
}
);
};
layerId = "42F8977D-8264-44FF-8A66-A72BD7D3E619";
shapes = (
{
closed = 1;
nodes = (
(513,-10,o),
(628,83,o),
(628,207,cs),
(628,279,o),
(589,336,o),
(508,368,c),
(570,399,o),
(607,450,o),
(607,520,cs),
(607,645,o),
(495,726,o),
(328,726,cs),
(161,726,o),
(49,645,o),
(49,520,cs),
(49,450,o),
(85,400,o),
(146,368,c),
(69,336,o),
(28,279,o),
(28,207,cs),
(28,83,o),
(143,-10,o),
(328,-10,cs)
);
},
{
closed = 1;
nodes = (
(269,145,o),
(233,176,o),
(233,222,cs),
(233,268,o),
(269,300,o),
(328,300,cs),
(387,300,o),
(423,268,o),
(423,222,cs),
(423,176,o),
(387,145,o),
(328,145,cs)
);
},
{
closed = 1;
nodes = (
(276,437,o),
(245,465,o),
(245,505,cs),
(245,545,o),
(276,571,o),
(328,571,cs),
(380,571,o),
(411,545,o),
(411,505,cs),
(411,465,o),
(380,437,o),
(328,437,cs)
);
}
);
width = 656;
},
{
background = {
shapes = (
{
closed = 1;
nodes = (
(498,-10,o),
(585,71,o),
(585,186,cs),
(585,277,o),
(530,346,o),
(407,368,c),
(522,393,o),
(574,459,o),
(574,540,cs),
(574,645,o),
(486,727,o),
(328,727,cs),
(169,727,o),
(82,645,o),
(82,540,cs),
(82,459,o),
(134,393,o),
(249,368,c),
(126,346,o),
(71,277,o),
(71,186,cs),
(71,71,o),
(158,-10,o),
(328,-10,cs)
);
},
{
closed = 1;
nodes = (
(183,19,o),
(107,87,o),
(107,186,cs),
(107,287,o),
(183,354,o),
(328,354,cs),
(473,354,o),
(549,287,o),
(549,186,cs),
(549,87,o),
(473,19,o),
(328,19,cs)
);
},
{
closed = 1;
nodes = (
(194,384,o),
(118,440,o),
(118,540,cs),
(118,640,o),
(194,697,o),
(328,697,cs),
(462,697,o),
(538,640,o),
(538,540,cs),
(538,440,o),
(462,384,o),
(328,384,cs)
);
}
);
};
layerId = "1750929F-40DF-47FF-8B11-7621AD6711F1";
shapes = (
{
closed = 1;
nodes = (
(498,-10,o),
(585,71,o),
(585,186,cs),
(585,277,o),
(530,346,o),
(407,368,c),
(514,393,o),
(564,459,o),
(564,540,cs),
(564,645,o),
(480,726,o),
(328,726,cs),
(176,726,o),
(92,645,o),
(92,540,cs),
(92,459,o),
(142,393,o),
(249,368,c),
(126,346,o),
(71,277,o),
(71,186,cs),
(71,71,o),
(158,-10,o),
(328,-10,cs)
);
},
{
closed = 1;
nodes = (
(183,21,o),
(108,87,o),
(108,186,cs),
(108,287,o),
(183,354,o),
(328,354,cs),
(473,354,o),
(548,287,o),
(548,186,cs),
(548,87,o),
(473,21,o),
(328,21,cs)
);
},
{
closed = 1;
nodes = (
(200,384,o),
(128,440,o),
(128,540,cs),
(128,640,o),
(200,695,o),
(328,695,cs),
(456,695,o),
(528,640,o),
(528,540,cs),
(528,440,o),
(456,384,o),
(328,384,cs)
);
}
);
width = 656;
},
{
layerId = "502A2428-35F6-4863-AD44-5AC44627310C";
shapes = (
{
closed = 1;
nodes = (
(502,-10,o),
(598,74,o),
(598,191,cs),
(598,275,o),
(551,343,o),
(446,368,c),
(532,396,o),
(576,458,o),
(576,534,cs),
(576,645,o),
(484,726,o),
(328,726,cs),
(171,726,o),
(80,645,o),
(80,534,cs),
(80,458,o),
(122,396,o),
(211,368,c),
(104,343,o),
(58,275,o),
(58,191,cs),
(58,74,o),
(155,-10,o),
(328,-10,cs)
);
},
{
closed = 1;
nodes = (
(207,58,o),
(143,115,o),
(143,197,cs),
(143,279,o),
(207,336,o),
(328,336,cs),
(449,336,o),
(513,279,o),
(513,197,cs),
(513,115,o),
(449,58,o),
(328,58,cs)
);
},
{
closed = 1;
nodes = (
(224,402,o),
(161,449,o),
(161,530,cs),
(161,612,o),
(224,658,o),
(328,658,cs),
(432,658,o),
(495,612,o),
(495,530,cs),
(495,449,o),
(432,402,o),
(328,402,cs)
);
}
);
width = 656;
}
);
unicode = 56;
}
{
glyphname = nine;
kernLeft = nine;
kernRight = zero;
layers = (
{
background = {
shapes = (
{
closed = 1;
nodes = (
(510,-10,o),
(628,155,o),
(628,401,cs),
(628,615,o),
(499,727,o),
(317,727,cs),
(135,727,o),
(28,615,o),
(28,476,cs),
(28,339,o),
(123,247,o),
(274,247,cs),
(336,247,o),
(391,270,o),
(423,303,c),
(417,186,o),
(333,155,o),
(264,155,cs),
(221,155,o),
(172,167,o),
(107,210,c),
(47,79,l),
(103,19,o),
(190,-10,o),
(286,-10,cs)
);
},
{
closed = 1;
nodes = (
(269,394,o),
(233,431,o),
(233,478,cs),
(233,525,o),
(269,562,o),
(328,562,cs),
(383,562,o),
(414,525,o),
(423,478,c),
(423,431,o),
(387,394,o),
(328,394,cs)
);
}
);
};
layerId = "42F8977D-8264-44FF-8A66-A72BD7D3E619";
shapes = (
{
angle = 180;
pos = (656,716);
ref = six;
}
);
width = 656;
},
{
background = {
shapes = (
{
closed = 1;
nodes = (
(499,-10,o),
(585,155,o),
(585,401,cs),
(585,627,o),
(490,727,o),
(317,727,cs),
(166,727,o),
(71,629,o),
(71,492,cs),
(71,355,o),
(166,257,o),
(317,257,cs),
(436,257,o),
(515,305,o),
(549,390,c),
(549,135,o),
(454,19,o),
(300,19,cs),
(227,19,o),
(163,53,o),
(113,114,c),
(90,90,l),
(141,27,o),
(210,-10,o),
(300,-10,cs)
);
},
{
closed = 1;
nodes = (
(189,288,o),
(107,362,o),
(107,492,cs),
(107,621,o),
(189,697,o),
(328,697,cs),
(465,697,o),
(528,616,o),
(549,492,c),
(549,362,o),
(466,288,o),
(328,288,cs)
);
}
);
};
layerId = "1750929F-40DF-47FF-8B11-7621AD6711F1";
shapes = (
{
angle = 180;
pos = (656,716);
ref = six;
}
);
width = 656;
},
{
layerId = "502A2428-35F6-4863-AD44-5AC44627310C";
shapes = (
{
angle = 180;
pos = (656,716);
ref = six;
}
);
width = 656;
}
);
unicode = 57;
}
{
glyphname = colon;
kernLeft = colon;
kernRight = colon;
layers = (
{
background = {
shapes = (
{
closed = 1;
nodes = (
(226,331,o),
(268,372,o),
(268,431,cs),
(268,490,o),
(226,531,o),
(162,531,cs),
(97,531,o),
(55,490,o),
(55,431,cs),
(55,372,o),
(97,331,o),
(162,331,cs)
);
},
{
closed = 1;
nodes = (
(226,-10,o),
(268,31,o),
(268,90,cs),
(268,149,o),
(226,190,o),
(162,190,cs),
(97,190,o),
(55,149,o),
(55,90,cs),
(55,31,o),
(97,-10,o),
(162,-10,cs)
);
}
);
};
layerId = "42F8977D-8264-44FF-8A66-A72BD7D3E619";
shapes = (
{
closed = 1;
nodes = (
(226,313,o),
(268,354,o),
(268,414,cs),
(268,473,o),
(226,514,o),
(162,514,cs),
(97,514,o),
(55,473,o),
(55,414,cs),
(55,354,o),
(97,313,o),
(162,313,cs)
);
},
{
closed = 1;
nodes = (
(226,-10,o),
(268,31,o),
(268,90,cs),
(268,149,o),
(226,190,o),
(162,190,cs),
(97,190,o),
(55,149,o),
(55,90,cs),
(55,31,o),
(97,-10,o),
(162,-10,cs)
);
}
);
width = 323;
},
{
background = {
shapes = (
{
closed = 1;
nodes = (
(137,472,o),
(148,482,o),
(148,498,cs),
(148,515,o),
(137,525,o),
(120,525,cs),
(103,525,o),
(92,515,o),
(92,498,cs),
(92,482,o),
(103,472,o),
(120,472,cs)
);
},
{
closed = 1;
nodes = (
(137,-4,o),
(148,6,o),
(148,23,cs),
(148,39,o),
(137,49,o),
(120,49,cs),
(103,49,o),
(92,39,o),
(92,23,cs),
(92,6,o),
(103,-4,o),
(120,-4,cs)
);
}
);
};
layerId = "1750929F-40DF-47FF-8B11-7621AD6711F1";
shapes = (
{
closed = 1;
nodes = (
(127,456,o),
(138,467,o),
(138,483,cs),
(138,499,o),
(127,510,o),
(110,510,cs),
(93,510,o),
(82,499,o),
(82,483,cs),
(82,467,o),
(93,456,o),
(110,456,cs)
);
},
{
closed = 1;
nodes = (
(127,-4,o),
(138,6,o),
(138,23,cs),
(138,39,o),
(127,49,o),
(110,49,cs),
(93,49,o),
(82,39,o),
(82,23,cs),
(82,6,o),
(93,-4,o),
(110,-4,cs)
);
}
);
width = 220;
},
{
layerId = "502A2428-35F6-4863-AD44-5AC44627310C";
shapes = (
{
closed = 1;
nodes = (
(150,415,o),
(171,435,o),
(171,463,cs),
(171,489,o),
(150,510,o),
(121,510,cs),
(90,510,o),
(70,489,o),
(70,463,cs),
(70,435,o),
(90,415,o),
(121,415,cs)
);
},
{
closed = 1;
nodes = (
(150,-6,o),
(171,14,o),
(171,41,cs),
(171,69,o),
(150,89,o),
(121,89,cs),
(90,89,o),
(70,69,o),
(70,41,cs),
(70,14,o),
(90,-6,o),
(121,-6,cs)
);
}
);
width = 241;
}
);
metricRight = "=|";
unicode = 58;
}
{
glyphname = semicolon;
kernLeft = colon;
kernRight = colon;
layers = (
{
background = {
shapes = (
{
closed = 1;
nodes = (
(207,-120,o),
(247,-50,o),
(247,64,cs),
(247,169,l),
(77,169,l),
(77,64,ls),
(77,10,o),
(53,-72,o),
(19,-132,c),
(118,-180,l)
);
},
{
closed = 1;
nodes = (
(226,331,o),
(268,372,o),
(268,431,cs),
(268,490,o),
(226,531,o),
(162,531,cs),
(97,531,o),
(55,490,o),
(55,431,cs),
(55,372,o),
(97,331,o),
(162,331,cs)
);
}
);
};
layerId = "42F8977D-8264-44FF-8A66-A72BD7D3E619";
shapes = (
{
closed = 1;
nodes = (
(207,-120,o),
(247,-50,o),
(247,64,cs),
(247,169,l),
(77,169,l),
(77,64,ls),
(77,10,o),
(53,-72,o),
(19,-132,c),
(118,-180,l)
);
},
{
closed = 1;
nodes = (
(226,313,o),
(268,354,o),
(268,414,cs),
(268,473,o),
(226,514,o),
(162,514,cs),
(97,514,o),
(55,473,o),
(55,414,cs),
(55,354,o),
(97,313,o),
(162,313,cs)
);
}
);
width = 323;
},
{
background = {
shapes = (
{
closed = 1;
nodes = (
(126,-124,o),
(137,-85,o),
(137,-24,cs),
(137,49,l),
(103,49,l),
(103,-24,ls),
(103,-79,o),
(95,-107,o),
(71,-144,c),
(91,-155,l)
);
},
{
closed = 1;
nodes = (
(137,472,o),
(148,482,o),
(148,498,cs),
(148,515,o),
(137,525,o),
(120,525,cs),
(103,525,o),
(92,515,o),
(92,498,cs),
(92,482,o),
(103,472,o),
(120,472,cs)
);
}
);
};
layerId = "1750929F-40DF-47FF-8B11-7621AD6711F1";
shapes = (
{
closed = 1;
nodes = (
(116,-124,o),
(127,-85,o),
(127,-24,cs),
(127,49,l),
(93,49,l),
(93,-24,ls),
(93,-79,o),
(85,-107,o),
(60,-144,c),
(81,-155,l)
);
},
{
closed = 1;
nodes = (
(127,456,o),
(138,467,o),
(138,483,cs),
(138,499,o),
(127,510,o),
(110,510,cs),
(93,510,o),
(82,499,o),
(82,483,cs),
(82,467,o),
(93,456,o),
(110,456,cs)
);
}
);
width = 220;
},
{
layerId = "502A2428-35F6-4863-AD44-5AC44627310C";
shapes = (
{
closed = 1;
nodes = (
(137,-123,o),
(158,-77,o),
(158,0,cs),
(158,83,l),
(85,83,l),
(85,0,ls),
(85,-55,o),
(72,-96,o),
(45,-141,c),
(87,-162,l)
);
},
{
closed = 1;
nodes = (
(150,415,o),
(171,435,o),
(171,463,cs),
(171,489,o),
(150,510,o),
(121,510,cs),
(90,510,o),
(70,489,o),
(70,463,cs),
(70,435,o),
(90,415,o),
(121,415,cs)
);
}
);
width = 241;
}
);
metricRight = colon;
unicode = 59;
}
{
glyphname = less;
kernLeft = plus;
kernRight = less;
layers = (
{
background = {
shapes = (
{
closed = 1;
nodes = (
(574,267,l),
(248,358,l),
(574,449,l),
(574,618,l),
(49,442,l),
(49,273,l),
(574,97,l)
);
}
);
};
layerId = "42F8977D-8264-44FF-8A66-A72BD7D3E619";
shapes = (
{
closed = 1;
nodes = (
(574,267,l),
(248,358,l),
(574,449,l),
(574,618,l),
(49,442,l),
(49,273,l),
(574,97,l)
);
}
);
width = 623;
},
{
background = {
shapes = (
{
closed = 1;
nodes = (
(521,198,l),
(142,358,l),
(521,519,l),
(521,553,l),
(103,373,l),
(103,343,l),
(521,163,l)
);
}
);
};
layerId = "1750929F-40DF-47FF-8B11-7621AD6711F1";
shapes = (
{
closed = 1;
nodes = (
(511,198,l),
(132,358,l),
(511,519,l),
(511,553,l),
(93,373,l),
(93,343,l),
(511,163,l)
);
}
);
width = 603;
},
{
layerId = "502A2428-35F6-4863-AD44-5AC44627310C";
shapes = (
{
closed = 1;
nodes = (
(523,217,l),
(159,358,l),
(523,499,l),
(523,571,l),
(75,392,l),
(75,323,l),
(523,144,l)
);
}
);
width = 597;
}
);
metricLeft = plus;
metricWidth = plus;
unicode = 60;
}
{
glyphname = equal;
kernLeft = equal;
kernRight = equal;
layers = (
{
background = {
shapes = (
{
closed = 1;
nodes = (
(574,401,l),
(574,560,l),
(49,560,l),
(49,401,l)
);
},
{
closed = 1;
nodes = (
(574,157,l),
(574,315,l),
(49,315,l),
(49,157,l)
);
}
);
};
layerId = "42F8977D-8264-44FF-8A66-A72BD7D3E619";
shapes = (
{
pos = (0,-122);
ref = minus;
},
{
pos = (0,123);
ref = minus;
}
);
width = 623;
},
{
background = {
shapes = (
{
closed = 1;
nodes = (
(521,459,l),
(521,488,l),
(103,488,l),
(103,459,l)
);
},
{
closed = 1;
nodes = (
(521,227,l),
(521,257,l),
(103,257,l),
(103,227,l)
);
}
);
};
layerId = "1750929F-40DF-47FF-8B11-7621AD6711F1";
shapes = (
{
pos = (0,-115);
ref = minus;
},
{
pos = (0,116);
ref = minus;
}
);
width = 603;
},
{
layerId = "502A2428-35F6-4863-AD44-5AC44627310C";
shapes = (
{
pos = (0,-118);
ref = minus;
},
{
pos = (0,117);
ref = minus;
}
);
width = 597;
}
);
metricLeft = plus;
metricWidth = plus;
unicode = 61;
}
{
glyphname = greater;
kernLeft = greater;
kernRight = plus;
layers = (
{
background = {
shapes = (
{
closed = 1;
nodes = (
(574,273,l),
(574,442,l),
(49,618,l),
(49,438,l),
(357,358,l),
(49,277,l),
(49,97,l)
);
}
);
};
layerId = "42F8977D-8264-44FF-8A66-A72BD7D3E619";
shapes = (
{
closed = 1;
nodes = (
(574,273,l),
(574,442,l),
(49,618,l),
(49,438,l),
(357,358,l),
(49,277,l),
(49,97,l)
);
}
);
width = 623;
},
{
background = {
shapes = (
{
closed = 1;
nodes = (
(521,343,l),
(521,373,l),
(103,553,l),
(103,519,l),
(481,358,l),
(103,198,l),
(103,163,l)
);
}
);
};
layerId = "1750929F-40DF-47FF-8B11-7621AD6711F1";
shapes = (
{
closed = 1;
nodes = (
(511,343,l),
(511,373,l),
(93,553,l),
(93,519,l),
(471,358,l),
(93,198,l),
(93,163,l)
);
}
);
width = 603;
},
{
layerId = "502A2428-35F6-4863-AD44-5AC44627310C";
shapes = (
{
closed = 1;
nodes = (
(523,323,l),
(523,392,l),
(75,571,l),
(75,499,l),
(439,358,l),
(75,217,l),
(75,144,l)
);
}
);
width = 597;
}
);
metricLeft = plus;
metricWidth = plus;
unicode = 62;
}
{
glyphname = question;
kernLeft = question;
kernRight = question;
layers = (
{
background = {
shapes = (
{
closed = 1;
nodes = (
(336,253,l),
(336,266,ls),
(336,348,o),
(503,392,o),
(503,520,cs),
(503,652,o),
(395,727,o),
(245,727,cs),
(156,727,o),
(84,697,o),
(8,637,c),
(67,506,l),
(151,549,o),
(187,562,o),
(225,562,cs),
(266,562,o),
(298,538,o),
(298,498,cs),
(298,433,o),
(175,393,o),
(175,288,cs),
(175,253,l)
);
},
{
closed = 1;
nodes = (
(320,-10,o),
(362,31,o),
(362,90,cs),
(362,149,o),
(320,190,o),
(256,190,cs),
(191,190,o),
(149,149,o),
(149,90,cs),
(149,31,o),
(191,-10,o),
(256,-10,cs)
);
}
);
};
layerId = "42F8977D-8264-44FF-8A66-A72BD7D3E619";
shapes = (
{
closed = 1;
nodes = (
(336,253,l),
(336,266,ls),
(336,348,o),
(503,392,o),
(503,520,cs),
(503,652,o),
(395,726,o),
(245,726,cs),
(156,726,o),
(84,697,o),
(8,637,c),
(72,493,l),
(124,539,o),
(180,561,o),
(225,561,cs),
(266,561,o),
(298,538,o),
(298,498,cs),
(298,433,o),
(175,393,o),
(175,288,cs),
(175,253,l)
);
},
{
closed = 1;
nodes = (
(320,-10,o),
(362,31,o),
(362,90,cs),
(362,149,o),
(320,190,o),
(256,190,cs),
(191,190,o),
(149,149,o),
(149,90,cs),
(149,31,o),
(191,-10,o),
(256,-10,cs)
);
}
);
width = 516;
},
{
background = {
shapes = (
{
closed = 1;
nodes = (
(261,188,l),
(261,217,ls),
(261,329,o),
(452,412,o),
(452,520,cs),
(452,645,o),
(358,727,o),
(237,727,cs),
(165,727,o),
(97,698,o),
(43,626,c),
(61,602,l),
(118,670,o),
(174,697,o),
(237,697,cs),
(341,697,o),
(416,626,o),
(416,520,cs),
(416,424,o),
(233,340,o),
(233,217,cs),
(233,188,l)
);
},
{
closed = 1;
nodes = (
(265,-4,o),
(275,6,o),
(275,23,cs),
(275,39,o),
(265,49,o),
(248,49,cs),
(230,49,o),
(220,39,o),
(220,23,cs),
(220,6,o),
(230,-4,o),
(248,-4,cs)
);
}
);
};
layerId = "1750929F-40DF-47FF-8B11-7621AD6711F1";
shapes = (
{
closed = 1;
nodes = (
(251,188,l),
(251,217,ls),
(251,362,o),
(442,398,o),
(442,549,cs),
(442,663,o),
(358,726,o),
(227,726,cs),
(144,726,o),
(80,687,o),
(34,624,c),
(53,599,l),
(93,655,o),
(154,695,o),
(227,695,cs),
(341,695,o),
(407,644,o),
(407,548,cs),
(407,420,o),
(223,371,o),
(223,226,cs),
(223,188,l)
);
},
{
closed = 1;
nodes = (
(255,-4,o),
(265,6,o),
(265,23,cs),
(265,39,o),
(255,49,o),
(237,49,cs),
(220,49,o),
(210,39,o),
(210,23,cs),
(210,6,o),
(220,-4,o),
(237,-4,cs)
);
}
);
width = 485;
},
{
layerId = "502A2428-35F6-4863-AD44-5AC44627310C";
shapes = (
{
closed = 1;
nodes = (
(268,207,l),
(268,230,ls),
(268,340,o),
(454,394,o),
(454,533,cs),
(454,659,o),
(363,726,o),
(226,726,cs),
(149,726,o),
(79,698,o),
(19,629,c),
(53,570,l),
(108,629,o),
(166,658,o),
(220,658,cs),
(307,658,o),
(369,614,o),
(369,529,cs),
(369,427,o),
(204,366,o),
(204,243,cs),
(204,207,l)
);
},
{
closed = 1;
nodes = (
(267,-6,o),
(287,14,o),
(287,41,cs),
(287,69,o),
(267,89,o),
(236,89,cs),
(206,89,o),
(186,69,o),
(186,41,cs),
(186,14,o),
(206,-6,o),
(236,-6,cs)
);
}
);
width = 484;
}
);
unicode = 63;
}
{
glyphname = at;
kernLeft = C;
kernRight = D;
layers = (
{
background = {
shapes = (
{
closed = 1;
nodes = (
(562,-118,o),
(637,-98,o),
(697,-56,c),
(654,41,l),
(604,15,o),
(542,0,o),
(475,0,cs),
(280,0,o),
(156,119,o),
(156,304,cs),
(156,490,o),
(280,609,o),
(475,609,cs),
(666,609,o),
(794,502,o),
(794,347,cs),
(794,258,o),
(771,225,o),
(732,225,cs),
(699,225,o),
(677,254,o),
(677,300,cs),
(677,499,l),
(531,499,l),
(531,464,l),
(505,493,o),
(474,508,o),
(424,508,cs),
(322,508,o),
(250,429,o),
(250,304,cs),
(250,180,o),
(322,100,o),
(424,100,cs),
(490,100,o),
(539,130,o),
(570,188,c),
(601,130,o),
(651,100,o),
(718,100,cs),
(827,100,o),
(922,180,o),
(922,347,cs),
(922,561,o),
(745,727,o),
(475,727,cs),
(205,727,o),
(28,549,o),
(28,304,cs),
(28,60,o),
(205,-118,o),
(475,-118,cs)
);
},
{
closed = 1;
nodes = (
(425,225,o),
(396,256,o),
(396,304,cs),
(396,353,o),
(425,384,o),
(468,384,cs),
(510,384,o),
(536,353,o),
(536,304,cs),
(536,256,o),
(510,225,o),
(468,225,cs)
);
}
);
};
layerId = "42F8977D-8264-44FF-8A66-A72BD7D3E619";
shapes = (
{
closed = 1;
nodes = (
(562,-118,o),
(637,-98,o),
(697,-56,c),
(654,41,l),
(604,15,o),
(542,0,o),
(475,0,cs),
(280,0,o),
(156,119,o),
(156,304,cs),
(156,490,o),
(280,608,o),
(475,608,cs),
(666,608,o),
(794,502,o),
(794,347,cs),
(794,260,o),
(771,227,o),
(732,227,cs),
(699,227,o),
(677,254,o),
(677,300,cs),
(677,504,l),
(531,504,l),
(531,464,l),
(505,493,o),
(474,513,o),
(424,513,cs),
(322,513,o),
(250,429,o),
(250,304,cs),
(250,180,o),
(322,100,o),
(424,100,cs),
(490,100,o),
(539,130,o),
(570,188,c),
(601,130,o),
(651,100,o),
(718,100,cs),
(827,100,o),
(922,180,o),
(922,347,cs),
(922,561,o),
(745,726,o),
(475,726,cs),
(205,726,o),
(28,549,o),
(28,304,cs),
(28,60,o),
(205,-118,o),
(475,-118,cs)
);
},
{
closed = 1;
nodes = (
(425,227,o),
(396,257,o),
(396,304,cs),
(396,352,o),
(425,382,o),
(468,382,cs),
(510,382,o),
(536,352,o),
(536,304,cs),
(536,257,o),
(510,227,o),
(468,227,cs)
);
}
);
width = 950;
},
{
background = {
shapes = (
{
closed = 1;
nodes = (
(578,-118,o),
(655,-98,o),
(714,-56,c),
(703,-30,l),
(647,-69,o),
(574,-88,o),
(493,-88,cs),
(260,-88,o),
(105,72,o),
(105,304,cs),
(105,537,o),
(260,697,o),
(493,697,cs),
(726,697,o),
(881,549,o),
(881,347,cs),
(881,203,o),
(833,131,o),
(747,131,cs),
(701,131,o),
(661,167,o),
(661,235,cs),
(661,499,l),
(629,499,l),
(629,409,l),
(607,469,o),
(559,508,o),
(482,508,cs),
(366,508,o),
(301,434,o),
(301,304,cs),
(301,175,o),
(366,100,o),
(482,100,cs),
(568,100,o),
(613,154,o),
(636,210,c),
(645,141,o),
(686,100,o),
(747,100,cs),
(851,100,o),
(915,191,o),
(915,347,cs),
(915,561,o),
(745,727,o),
(493,727,cs),
(242,727,o),
(71,549,o),
(71,304,cs),
(71,60,o),
(242,-118,o),
(493,-118,cs)
);
},
{
closed = 1;
nodes = (
(392,131,o),
(336,187,o),
(336,304,cs),
(336,422,o),
(392,478,o),
(482,478,cs),
(572,478,o),
(629,422,o),
(629,304,cs),
(629,187,o),
(572,131,o),
(482,131,cs)
);
}
);
};
layerId = "1750929F-40DF-47FF-8B11-7621AD6711F1";
shapes = (
{
closed = 1;
nodes = (
(568,-118,o),
(645,-98,o),
(704,-56,c),
(693,-30,l),
(637,-69,o),
(564,-87,o),
(483,-87,cs),
(250,-87,o),
(95,72,o),
(95,304,cs),
(95,537,o),
(250,695,o),
(483,695,cs),
(715,695,o),
(870,549,o),
(870,347,cs),
(870,203,o),
(823,126,o),
(737,126,cs),
(691,126,o),
(651,167,o),
(651,235,cs),
(651,504,l),
(619,504,l),
(619,409,l),
(597,469,o),
(549,513,o),
(472,513,cs),
(356,513,o),
(288,434,o),
(288,304,cs),
(288,175,o),
(356,95,o),
(472,95,cs),
(558,95,o),
(603,154,o),
(625,210,c),
(635,141,o),
(676,95,o),
(737,95,cs),
(840,95,o),
(905,191,o),
(905,347,cs),
(905,561,o),
(735,726,o),
(483,726,cs),
(231,726,o),
(60,549,o),
(60,304,cs),
(60,60,o),
(231,-118,o),
(483,-118,cs)
);
},
{
closed = 1;
nodes = (
(390,126,o),
(323,187,o),
(323,304,cs),
(323,422,o),
(390,482,o),
(472,482,cs),
(553,482,o),
(619,422,o),
(619,304,cs),
(619,187,o),
(553,126,o),
(472,126,cs)
);
}
);
width = 965;
},
{
layerId = "502A2428-35F6-4863-AD44-5AC44627310C";
shapes = (
{
closed = 1;
nodes = (
(561,-117,o),
(637,-98,o),
(696,-56,c),
(667,3,l),
(611,-34,o),
(554,-48,o),
(474,-48,cs),
(254,-48,o),
(121,87,o),
(121,304,cs),
(121,522,o),
(254,657,o),
(474,657,cs),
(695,657,o),
(828,532,o),
(828,347,cs),
(828,219,o),
(794,158,o),
(730,158,cs),
(687,158,o),
(657,192,o),
(657,254,cs),
(657,504,l),
(588,504,l),
(588,430,l),
(563,480,o),
(521,514,o),
(451,514,cs),
(341,514,o),
(262,433,o),
(262,304,cs),
(262,176,o),
(341,95,o),
(451,95,cs),
(533,95,o),
(578,145,o),
(604,204,c),
(619,138,o),
(662,95,o),
(725,95,cs),
(831,95,o),
(904,188,o),
(904,347,cs),
(904,561,o),
(731,726,o),
(474,726,cs),
(218,726,o),
(45,549,o),
(45,304,cs),
(45,60,o),
(218,-117,o),
(474,-117,cs)
);
},
{
closed = 1;
nodes = (
(395,155,o),
(342,206,o),
(342,304,cs),
(342,403,o),
(395,454,o),
(465,454,cs),
(534,454,o),
(588,403,o),
(588,304,cs),
(588,206,o),
(534,155,o),
(465,155,cs)
);
}
);
width = 949;
}
);
metricRight = "=|";
unicode = 64;
}
{
glyphname = A;
kernLeft = A;
kernRight = A;
layers = (
{
anchors = (
{
name = bottom;
pos = (382,0);
},
{
name = ogonek;
pos = (760,0);
},
{
name = top;
pos = (382,716);
}
);
layerId = "42F8977D-8264-44FF-8A66-A72BD7D3E619";
shapes = (
{
closed = 1;
nodes = (
(223,0,l),
(382,506,l),
(540,0,l),
(761,0,l),
(495,716,l),
(269,716,l),
(2,0,l)
);
},
{
closed = 1;
nodes = (
(600,103,l),
(600,269,l),
(167,269,l),
(167,103,l)
);
}
);
width = 763;
},
{
anchors = (
{
name = bottom;
pos = (371,0);
},
{
name = ogonek;
pos = (697,0);
},
{
name = top;
pos = (371,716);
}
);
background = {
shapes = (
{
closed = 1;
nodes = (
(82,0,l),
(160,183,l),
(582,183,l),
(660,0,l),
(697,0,l),
(388,715,l),
(354,715,l),
(45,0,l)
);
},
{
closed = 1;
nodes = (
(371,677,l),
(568,215,l),
(174,215,l)
);
}
);
};
layerId = "1750929F-40DF-47FF-8B11-7621AD6711F1";
shapes = (
{
closed = 1;
nodes = (
(82,0,l),
(371,678,l),
(660,0,l),
(697,0,l),
(388,716,l),
(354,716,l),
(45,0,l)
);
},
{
closed = 1;
nodes = (
(589,184,l),
(589,215,l),
(156,215,l),
(156,184,l)
);
}
);
width = 742;
},
{
anchors = (
{
name = bottom;
pos = (374,0);
},
{
name = ogonek;
pos = (714,0);
},
{
name = top;
pos = (374,716);
}
);
layerId = "502A2428-35F6-4863-AD44-5AC44627310C";
shapes = (
{
closed = 1;
nodes = (
(122,0,l),
(374,629,l),
(625,0,l),
(714,0,l),
(419,716,l),
(329,716,l),
(33,0,l)
);
},
{
closed = 1;
nodes = (
(590,160,l),
(590,232,l),
(157,232,l),
(157,160,l)
);
}
);
width = 747;
},
{
anchors = (
{
name = bottom;
pos = (374,0);
},
{
name = ogonek;
pos = (715,0);
},
{
name = top;
pos = (374,716);
}
);
associatedMasterId = "502A2428-35F6-4863-AD44-5AC44627310C";
layerId = "D6567DCC-B434-41FA-861D-CC1EF94AD53B";
name = "Dec 22, 23 at 18:41";
shapes = (
{
closed = 1;
nodes = (
(122,0,l),
(185,161,l),
(560,161,l),
(625,0,l),
(715,0,l),
(419,716,l),
(329,716,l),
(33,0,l)
);
},
{
closed = 1;
nodes = (
(374,629,l),
(533,230,l),
(214,230,l)
);
}
);
width = 748;
}
);
metricRight = "=|";
unicode = 65;
}
{
glyphname = B;
kernLeft = B;
kernRight = B;
layers = (
{
anchors = (
{
name = bottom;
pos = (356,0);
},
{
name = center;
pos = (356,358);
},
{
name = top;
pos = (356,716);
}
);
background = {
shapes = (
{
closed = 1;
nodes = (
(423,0,ls),
(627,0,o),
(715,64,o),
(715,194,cs),
(715,284,o),
(673,340,o),
(578,368,c),
(663,399,o),
(695,459,o),
(695,532,cs),
(695,662,o),
(601,715,o),
(423,715,cs),
(60,715,l),
(60,0,l)
);
},
{
closed = 1;
nodes = (
(264,296,l),
(401,296,ls),
(482,296,o),
(510,275,o),
(510,227,cs),
(510,179,o),
(482,159,o),
(401,159,cs),
(264,159,l)
);
},
{
closed = 1;
nodes = (
(264,558,l),
(401,558,ls),
(471,558,o),
(488,537,o),
(488,499,cs),
(488,462,o),
(471,441,o),
(401,441,cs),
(264,441,l)
);
}
);
};
layerId = "42F8977D-8264-44FF-8A66-A72BD7D3E619";
shapes = (
{
closed = 1;
nodes = (
(402,0,ls),
(607,0,o),
(695,64,o),
(695,194,cs),
(695,285,o),
(653,340,o),
(558,369,c),
(643,399,o),
(675,460,o),
(675,533,cs),
(675,663,o),
(580,716,o),
(402,716,cs),
(60,716,l),
(60,0,l)
);
},
{
closed = 1;
nodes = (
(264,296,l),
(381,296,ls),
(462,296,o),
(489,270,o),
(489,227,cs),
(489,184,o),
(462,159,o),
(381,159,cs),
(264,159,l)
);
},
{
closed = 1;
nodes = (
(264,557,l),
(381,557,ls),
(450,557,o),
(468,534,o),
(468,501,cs),
(468,465,o),
(450,442,o),
(381,442,cs),
(264,442,l)
);
}
);
width = 724;
},
{
anchors = (
{
name = bottom;
pos = (361,0);
},
{
name = center;
pos = (361,358);
},
{
name = top;
pos = (361,716);
}
);
background = {
shapes = (
{
closed = 1;
nodes = (
(411,0,ls),
(583,0,o),
(673,48,o),
(673,188,cs),
(673,301,o),
(615,350,o),
(518,368,c),
(598,389,o),
(652,429,o),
(652,538,cs),
(652,679,o),
(562,715,o),
(411,715,cs),
(103,715,l),
(103,0,l)
);
},
{
closed = 1;
nodes = (
(137,354,l),
(401,354,ls),
(577,354,o),
(637,305,o),
(637,192,cs),
(637,81,o),
(577,32,o),
(401,32,cs),
(137,32,l)
);
},
{
closed = 1;
nodes = (
(137,684,l),
(401,684,ls),
(555,684,o),
(615,646,o),
(615,533,cs),
(615,422,o),
(555,384,o),
(401,384,cs),
(137,384,l)
);
}
);
};
layerId = "1750929F-40DF-47FF-8B11-7621AD6711F1";
shapes = (
{
closed = 1;
nodes = (
(405,0,ls),
(577,0,o),
(663,48,o),
(663,189,cs),
(663,302,o),
(609,351,o),
(512,369,c),
(582,390,o),
(642,431,o),
(642,540,cs),
(642,671,o),
(552,716,o),
(401,716,cs),
(103,716,l),
(103,0,l)
);
},
{
closed = 1;
nodes = (
(137,353,l),
(396,353,ls),
(572,353,o),
(626,297,o),
(626,189,cs),
(626,82,o),
(571,32,o),
(395,32,cs),
(137,32,l)
);
},
{
closed = 1;
nodes = (
(137,684,l),
(391,684,ls),
(545,684,o),
(605,647,o),
(605,540,cs),
(605,433,o),
(545,385,o),
(391,385,cs),
(137,385,l)
);
}
);
width = 734;
},
{
anchors = (
{
name = bottom;
pos = (360,0);
},
{
name = center;
pos = (360,358);
},
{
name = top;
pos = (360,716);
}
);
layerId = "502A2428-35F6-4863-AD44-5AC44627310C";
shapes = (
{
closed = 1;
nodes = (
(402,0,ls),
(584,0,o),
(673,55,o),
(673,199,cs),
(673,296,o),
(633,348,o),
(534,371,c),
(616,393,o),
(652,441,o),
(652,530,cs),
(652,664,o),
(566,716,o),
(402,716,cs),
(91,716,l),
(91,0,l)
);
},
{
closed = 1;
nodes = (
(173,333,l),
(389,333,ls),
(537,333,o),
(589,297,o),
(589,203,cs),
(589,112,o),
(537,74,o),
(389,74,cs),
(173,74,l)
);
},
{
closed = 1;
nodes = (
(173,642,l),
(389,642,ls),
(519,642,o),
(567,613,o),
(567,525,cs),
(567,435,o),
(519,405,o),
(389,405,cs),
(173,405,l)
);
}
);
width = 731;
}
);
unicode = 66;
}
{
glyphname = C;
kernLeft = C;
kernRight = C;
layers = (
{
anchors = (
{
name = bottom;
pos = (386,0);
},
{
name = top;
pos = (415,716);
}
);
background = {
shapes = (
{
closed = 1;
nodes = (
(512,-10,o),
(593,10,o),
(679,66,c),
(611,218,l),
(537,180,o),
(479,165,o),
(419,165,cs),
(311,165,o),
(234,243,o),
(234,358,cs),
(234,474,o),
(311,551,o),
(419,551,cs),
(479,551,o),
(537,536,o),
(611,498,c),
(679,651,l),
(593,705,o),
(512,727,o),
(419,727,cs),
(184,727,o),
(29,572,o),
(29,358,cs),
(29,143,o),
(183,-10,o),
(419,-10,cs)
);
}
);
};
layerId = "42F8977D-8264-44FF-8A66-A72BD7D3E619";
shapes = (
{
closed = 1;
nodes = (
(512,-10,o),
(593,10,o),
(679,66,c),
(611,218,l),
(537,180,o),
(479,165,o),
(419,165,cs),
(311,165,o),
(235,243,o),
(235,358,cs),
(235,474,o),
(311,551,o),
(419,551,cs),
(479,551,o),
(537,536,o),
(611,498,c),
(679,651,l),
(593,705,o),
(512,726,o),
(419,726,cs),
(184,726,o),
(29,572,o),
(29,358,cs),
(29,143,o),
(183,-10,o),
(419,-10,cs)
);
}
);
width = 700;
},
{
anchors = (
{
name = bottom;
pos = (396,0);
},
{
name = top;
pos = (419,716);
}
);
background = {
shapes = (
{
closed = 1;
nodes = (
(520,-10,o),
(596,20,o),
(656,75,c),
(635,101,l),
(579,50,o),
(508,21,o),
(418,21,cs),
(223,21,o),
(107,158,o),
(107,358,cs),
(107,559,o),
(223,695,o),
(418,695,cs),
(508,695,o),
(579,665,o),
(635,614,c),
(656,641,l),
(596,696,o),
(520,727,o),
(418,727,cs),
(200,727,o),
(71,572,o),
(71,358,cs),
(71,143,o),
(200,-10,o),
(418,-10,cs)
);
}
);
};
layerId = "1750929F-40DF-47FF-8B11-7621AD6711F1";
shapes = (
{
closed = 1;
nodes = (
(520,-10,o),
(596,20,o),
(656,75,c),
(635,101,l),
(579,50,o),
(508,22,o),
(418,22,cs),
(223,22,o),
(108,158,o),
(108,358,cs),
(108,559,o),
(223,694,o),
(418,694,cs),
(508,694,o),
(579,665,o),
(635,614,c),
(656,641,l),
(596,696,o),
(520,726,o),
(418,726,cs),
(200,726,o),
(71,572,o),
(71,358,cs),
(71,143,o),
(200,-10,o),
(418,-10,cs)
);
}
);
width = 722;
},
{
anchors = (
{
name = bottom;
pos = (393,0);
},
{
name = top;
pos = (402,716);
}
);
layerId = "502A2428-35F6-4863-AD44-5AC44627310C";
shapes = (
{
closed = 1;
nodes = (
(517,-10,o),
(594,18,o),
(661,73,c),
(625,136,l),
(566,89,o),
(499,63,o),
(417,63,cs),
(247,63,o),
(142,181,o),
(142,358,cs),
(142,534,o),
(247,654,o),
(417,654,cs),
(499,654,o),
(566,627,o),
(625,579,c),
(661,644,l),
(594,699,o),
(517,727,o),
(417,727,cs),
(194,727,o),
(57,572,o),
(57,358,cs),
(57,143,o),
(194,-10,o),
(417,-10,cs)
);
}
);
width = 712;
}
);
unicode = 67;
}
{
glyphname = D;
kernLeft = B;
kernRight = D;
layers = (
{
anchors = (
{
name = bottom;
pos = (381,0);
},
{
name = center;
pos = (381,358);
},
{
name = top;
pos = (381,716);
}
);
background = {
shapes = (
{
closed = 1;
nodes = (
(333,0,ls),
(591,0,o),
(733,121,o),
(733,358,cs),
(733,595,o),
(591,715,o),
(333,715,cs),
(60,715,l),
(60,0,l)
);
},
{
closed = 1;
nodes = (
(264,547,l),
(333,547,ls),
(477,547,o),
(527,483,o),
(527,358,cs),
(527,232,o),
(477,169,o),
(333,169,cs),
(264,169,l)
);
}
);
};
layerId = "42F8977D-8264-44FF-8A66-A72BD7D3E619";
shapes = (
{
closed = 1;
nodes = (
(333,0,ls),
(591,0,o),
(733,121,o),
(733,358,cs),
(733,596,o),
(591,716,o),
(333,716,cs),
(60,716,l),
(60,0,l)
);
},
{
closed = 1;
nodes = (
(264,546,l),
(333,546,ls),
(477,546,o),
(527,482,o),
(527,358,cs),
(527,233,o),
(477,170,o),
(333,170,cs),
(264,170,l)
);
}
);
width = 762;
},
{
anchors = (
{
name = bottom;
pos = (381,0);
},
{
name = center;
pos = (381,358);
},
{
name = top;
pos = (348,716);
}
);
background = {
shapes = (
{
closed = 1;
nodes = (
(333,0,ls),
(568,0,o),
(690,121,o),
(690,358,cs),
(690,595,o),
(568,715,o),
(333,715,cs),
(103,715,l),
(103,0,l)
);
},
{
closed = 1;
nodes = (
(137,684,l),
(321,684,ls),
(550,684,o),
(654,576,o),
(654,358,cs),
(654,139,o),
(550,32,o),
(321,32,cs),
(137,32,l)
);
}
);
};
layerId = "1750929F-40DF-47FF-8B11-7621AD6711F1";
shapes = (
{
closed = 1;
nodes = (
(333,0,ls),
(568,0,o),
(690,121,o),
(690,358,cs),
(690,596,o),
(568,716,o),
(333,716,cs),
(103,716,l),
(103,0,l)
);
},
{
closed = 1;
nodes = (
(137,684,l),
(321,684,ls),
(550,684,o),
(653,576,o),
(653,358,cs),
(653,139,o),
(550,32,o),
(321,32,cs),
(137,32,l)
);
}
);
width = 761;
},
{
anchors = (
{
name = bottom;
pos = (381,0);
},
{
name = center;
pos = (381,358);
},
{
name = top;
pos = (376,716);
}
);
layerId = "502A2428-35F6-4863-AD44-5AC44627310C";
shapes = (
{
closed = 1;
nodes = (
(333,0,ls),
(574,0,o),
(703,121,o),
(703,359,cs),
(703,596,o),
(574,716,o),
(333,716,cs),
(91,716,l),
(91,0,l)
);
},
{
closed = 1;
nodes = (
(173,642,l),
(324,642,ls),
(530,642,o),
(618,549,o),
(618,359,cs),
(618,167,o),
(530,74,o),
(324,74,cs),
(173,74,l)
);
}
);
width = 761;
}
);
metricLeft = B;
metricRight = B;
unicode = 68;
}
{
glyphname = E;
kernLeft = B;
kernRight = E;
layers = (
{
anchors = (
{
name = bottom;
pos = (324,0);
},
{
name = ogonek;
pos = (605,0);
},
{
name = top;
pos = (324,716);
},
{
name = topleft;
pos = (60,716);
}
);
background = {
shapes = (
{
closed = 1;
nodes = (
(605,0,l),
(605,169,l),
(264,169,l),
(264,291,l),
(572,291,l),
(572,447,l),
(264,447,l),
(264,547,l),
(605,547,l),
(605,715,l),
(60,715,l),
(60,0,l)
);
}
);
};
layerId = "42F8977D-8264-44FF-8A66-A72BD7D3E619";
shapes = (
{
closed = 1;
nodes = (
(605,0,l),
(605,170,l),
(264,170,l),
(264,291,l),
(572,291,l),
(572,447,l),
(264,447,l),
(264,546,l),
(605,546,l),
(605,716,l),
(60,716,l),
(60,0,l)
);
}
);
width = 650;
},
{
anchors = (
{
name = bottom;
pos = (314,0);
},
{
name = ogonek;
pos = (562,0);
},
{
name = top;
pos = (336,716);
},
{
name = topleft;
pos = (103,716);
}
);
background = {
shapes = (
{
closed = 1;
nodes = (
(562,0,l),
(562,32,l),
(137,32,l),
(137,353,l),
(529,353,l),
(529,385,l),
(137,385,l),
(137,684,l),
(562,684,l),
(562,715,l),
(103,715,l),
(103,0,l)
);
}
);
};
layerId = "1750929F-40DF-47FF-8B11-7621AD6711F1";
shapes = (
{
closed = 1;
nodes = (
(562,0,l),
(562,32,l),
(137,32,l),
(137,353,l),
(529,353,l),
(529,385,l),
(137,385,l),
(137,684,l),
(562,684,l),
(562,716,l),
(103,716,l),
(103,0,l)
);
}
);
width = 628;
},
{
anchors = (
{
name = bottom;
pos = (317,0);
},
{
name = ogonek;
pos = (574,0);
},
{
name = top;
pos = (321,716);
},
{
name = topleft;
pos = (91,716);
}
);
layerId = "502A2428-35F6-4863-AD44-5AC44627310C";
shapes = (
{
closed = 1;
nodes = (
(574,0,l),
(574,74,l),
(173,74,l),
(173,333,l),
(542,333,l),
(542,405,l),
(173,405,l),
(173,642,l),
(574,642,l),
(574,716,l),
(91,716,l),
(91,0,l)
);
}
);
width = 634;
}
);
metricLeft = B;
unicode = 69;
}
{
glyphname = F;
kernLeft = B;
kernRight = F;
layers = (
{
anchors = (
{
name = bottom;
pos = (319,0);
},
{
name = top;
pos = (319,716);
}
);
background = {
shapes = (
{
closed = 1;
nodes = (
(264,0,l),
(264,291,l),
(572,291,l),
(572,447,l),
(264,447,l),
(264,547,l),
(605,547,l),
(605,715,l),
(60,715,l),
(60,0,l)
);
}
);
};
layerId = "42F8977D-8264-44FF-8A66-A72BD7D3E619";
shapes = (
{
closed = 1;
nodes = (
(264,0,l),
(264,291,l),
(572,291,l),
(572,447,l),
(264,447,l),
(264,546,l),
(605,546,l),
(605,716,l),
(60,716,l),
(60,0,l)
);
}
);
width = 639;
},
{
anchors = (
{
name = bottom;
pos = (309,0);
},
{
name = top;
pos = (309,716);
}
);
background = {
shapes = (
{
closed = 1;
nodes = (
(137,0,l),
(137,353,l),
(529,353,l),
(529,385,l),
(137,385,l),
(137,684,l),
(562,684,l),
(562,715,l),
(103,715,l),
(103,0,l)
);
}
);
};
layerId = "1750929F-40DF-47FF-8B11-7621AD6711F1";
shapes = (
{
closed = 1;
nodes = (
(137,0,l),
(137,353,l),
(529,353,l),
(529,385,l),
(137,385,l),
(137,684,l),
(562,684,l),
(562,716,l),
(103,716,l),
(103,0,l)
);
}
);
width = 617;
},
{
anchors = (
{
name = bottom;
pos = (312,0);
},
{
name = top;
pos = (312,716);
}
);
layerId = "502A2428-35F6-4863-AD44-5AC44627310C";
shapes = (
{
closed = 1;
nodes = (
(173,0,l),
(173,333,l),
(542,333,l),
(542,405,l),
(173,405,l),
(173,642,l),
(574,642,l),
(574,716,l),
(91,716,l),
(91,0,l)
);
}
);
width = 623;
}
);
metricLeft = B;
unicode = 70;
}
{
glyphname = G;
kernLeft = C;
kernRight = G;
layers = (
{
anchors = (
{
name = bottom;
pos = (391,0);
},
{
name = top;
pos = (391,716);
}
);
background = {
shapes = (
{
ref = G.alt;
},
{
pos = (219,0);
ref = a;
}
);
};
layerId = "1750929F-40DF-47FF-8B11-7621AD6711F1";
shapes = (
{
closed = 1;
nodes = (
(573,-9,o),
(682,76,o),
(682,192,c),
(682,332,l),
(667,332,l),
(667,220,l),
(667,81,o),
(540,22,o),
(418,22,cs),
(223,22,o),
(108,158,o),
(108,358,cs),
(108,559,o),
(223,694,o),
(418,694,cs),
(516,694,o),
(597,663,o),
(656,613,c),
(678,640,l),
(617,692,o),
(524,726,o),
(418,726,cs),
(200,726,o),
(71,572,o),
(71,358,cs),
(71,143,o),
(200,-11,o),
(418,-10,cs)
);
},
{
closed = 1;
nodes = (
(701,0,l),
(701,364,l),
(407,364,l),
(407,332,l),
(667,332,l),
(667,0,l)
);
}
);
width = 782;
},
{
anchors = (
{
name = bottom;
pos = (392,0);
},
{
name = top;
pos = (392,716);
}
);
background = {
shapes = (
{
pos = (1,0);
ref = G.alt;
},
{
pos = (200,0);
ref = a;
}
);
};
layerId = "42F8977D-8264-44FF-8A66-A72BD7D3E619";
shapes = (
{
closed = 1;
nodes = (
(574,-10,o),
(606,99,o),
(606,271,c),
(606,302,l),
(541,302,l),
(541,271,l),
(541,191,o),
(494,165,o),
(414,166,cs),
(315,167,o),
(235,243,o),
(235,358,cs),
(235,474,o),
(311,551,o),
(419,551,cs),
(479,551,o),
(548,536,o),
(621,498,c),
(689,651,l),
(603,705,o),
(512,726,o),
(419,726,cs),
(184,726,o),
(29,572,o),
(29,358,cs),
(29,143,o),
(176,-10,o),
(373,-10,cs)
);
},
{
closed = 1;
nodes = (
(745,0,l),
(745,426,l),
(408,426,l),
(408,271,l),
(563,271,l),
(563,0,l)
);
}
);
width = 783;
},
{
anchors = (
{
name = bottom;
pos = (390,0);
},
{
name = top;
pos = (390,716);
}
);
background = {
shapes = (
{
pos = (204,0);
ref = a;
}
);
};
layerId = "502A2428-35F6-4863-AD44-5AC44627310C";
shapes = (
{
closed = 1;
nodes = (
(571,-10,o),
(674,92,o),
(674,262,c),
(674,311,l),
(631,311,l),
(631,262,l),
(631,132,o),
(533,63,o),
(417,63,cs),
(247,63,o),
(142,181,o),
(142,358,cs),
(142,534,o),
(247,653,o),
(417,653,cs),
(504,653,o),
(580,625,o),
(644,579,c),
(680,643,l),
(612,697,o),
(520,726,o),
(417,726,cs),
(194,726,o),
(57,572,o),
(57,358,cs),
(57,143,o),
(194,-10,o),
(417,-10,cs)
);
},
{
closed = 1;
nodes = (
(712,0,l),
(712,385,l),
(406,385,l),
(406,311,l),
(631,311,l),
(631,0,l)
);
}
);
width = 781;
}
);
metricLeft = C;
unicode = 71;
}
{
glyphname = H;
kernLeft = B;
kernRight = H;
layers = (
{
anchors = (
{
name = bottom;
pos = (386,0);
},
{
name = center;
pos = (386,358);
},
{
name = top;
pos = (386,716);
},
{
name = topleft;
pos = (60,716);
}
);
background = {
shapes = (
{
closed = 1;
nodes = (
(264,0,l),
(264,280,l),
(508,280,l),
(508,0,l),
(711,0,l),
(711,715,l),
(508,715,l),
(508,456,l),
(264,456,l),
(264,715,l),
(60,715,l),
(60,0,l)
);
}
);
};
layerId = "42F8977D-8264-44FF-8A66-A72BD7D3E619";
shapes = (
{
closed = 1;
nodes = (
(264,0,l),
(264,280,l),
(508,280,l),
(508,0,l),
(712,0,l),
(712,716,l),
(508,716,l),
(508,456,l),
(264,456,l),
(264,716,l),
(60,716,l),
(60,0,l)
);
}
);
width = 772;
},
{
anchors = (
{
name = bottom;
pos = (386,0);
},
{
name = center;
pos = (386,358);
},
{
name = top;
pos = (386,716);
},
{
name = topleft;
pos = (21,715);
}
);
background = {
shapes = (
{
closed = 1;
nodes = (
(137,0,l),
(137,353,l),
(635,353,l),
(635,0,l),
(668,0,l),
(668,715,l),
(635,715,l),
(635,385,l),
(137,385,l),
(137,715,l),
(103,715,l),
(103,0,l)
);
}
);
};
layerId = "1750929F-40DF-47FF-8B11-7621AD6711F1";
shapes = (
{
closed = 1;
nodes = (
(137,0,l),
(137,353,l),
(635,353,l),
(635,0,l),
(669,0,l),
(669,716,l),
(635,716,l),
(635,385,l),
(137,385,l),
(137,716,l),
(103,716,l),
(103,0,l)
);
}
);
width = 772;
},
{
anchors = (
{
name = bottom;
pos = (386,0);
},
{
name = center;
pos = (386,358);
},
{
name = top;
pos = (386,716);
},
{
name = topleft;
pos = (21,715);
}
);
layerId = "502A2428-35F6-4863-AD44-5AC44627310C";
shapes = (
{
closed = 1;
nodes = (
(173,0,l),
(173,331,l),
(599,331,l),
(599,0,l),
(681,0,l),
(681,716,l),
(599,716,l),
(599,405,l),
(173,405,l),
(173,716,l),
(91,716,l),
(91,0,l)
);
}
);
width = 772;
}
);
metricLeft = B;
metricRight = "=|";
unicode = 72;
}
{
glyphname = I;
kernLeft = B;
kernRight = H;
layers = (
{
anchors = (
{
name = bottom;
pos = (162,0);
},
{
name = ogonek;
pos = (264,0);
},
{
name = top;
pos = (162,716);
},
{
name = topleft;
pos = (21,716);
}
);
background = {
shapes = (
{
closed = 1;
nodes = (
(264,0,l),
(264,715,l),
(60,715,l),
(60,0,l)
);
}
);
};
layerId = "42F8977D-8264-44FF-8A66-A72BD7D3E619";
shapes = (
{
closed = 1;
nodes = (
(264,0,l),
(264,716,l),
(60,716,l),
(60,0,l)
);
}
);
width = 324;
},
{
anchors = (
{
name = bottom;
pos = (120,0);
},
{
name = ogonek;
pos = (137,0);
},
{
name = top;
pos = (120,716);
},
{
name = topleft;
pos = (21,716);
}
);
background = {
shapes = (
{
closed = 1;
nodes = (
(137,0,l),
(137,715,l),
(103,715,l),
(103,0,l)
);
}
);
};
layerId = "1750929F-40DF-47FF-8B11-7621AD6711F1";
shapes = (
{
closed = 1;
nodes = (
(137,0,l),
(137,716,l),
(103,716,l),
(103,0,l)
);
}
);
width = 240;
},
{
anchors = (
{
name = bottom;
pos = (133,0);
},
{
name = ogonek;
pos = (173,0);
},
{
name = top;
pos = (133,716);
},
{
name = topleft;
pos = (21,716);
}
);
layerId = "502A2428-35F6-4863-AD44-5AC44627310C";
shapes = (
{
closed = 1;
nodes = (
(173,0,l),
(173,716,l),
(91,716,l),
(91,0,l)
);
}
);
width = 264;
}
);
metricLeft = B;
metricRight = "=|";
unicode = 73;
}
{
glyphname = J;
kernLeft = J;
kernRight = J;
layers = (
{
anchors = (
{
name = bottom;
pos = (281,0);
},
{
name = top;
pos = (401,716);
}
);
background = {
shapes = (
{
closed = 1;
nodes = (
(418,-10,o),
(504,98,o),
(504,288,cs),
(504,715,l),
(300,715,l),
(300,276,ls),
(300,195,o),
(264,165,o),
(204,165,cs),
(166,165,o),
(119,183,o),
(82,206,c),
(17,61,l),
(85,10,o),
(140,-10,o),
(229,-10,cs)
);
}
);
};
layerId = "42F8977D-8264-44FF-8A66-A72BD7D3E619";
shapes = (
{
closed = 1;
nodes = (
(418,-10,o),
(504,98,o),
(504,288,cs),
(504,716,l),
(300,716,l),
(300,276,ls),
(300,195,o),
(264,165,o),
(204,165,cs),
(166,165,o),
(119,183,o),
(82,206,c),
(17,61,l),
(85,10,o),
(140,-10,o),
(229,-10,cs)
);
}
);
width = 564;
},
{
anchors = (
{
name = bottom;
pos = (281,0);
},
{
name = top;
pos = (443,716);
}
);
background = {
shapes = (
{
closed = 1;
nodes = (
(369,-10,o),
(461,66,o),
(461,223,cs),
(461,715,l),
(427,715,l),
(427,223,ls),
(427,89,o),
(356,21,o),
(245,21,cs),
(181,21,o),
(136,44,o),
(82,98,c),
(60,72,l),
(116,15,o),
(167,-10,o),
(245,-10,cs)
);
}
);
};
layerId = "1750929F-40DF-47FF-8B11-7621AD6711F1";
shapes = (
{
closed = 1;
nodes = (
(369,-10,o),
(461,66,o),
(461,223,cs),
(461,716,l),
(427,716,l),
(427,223,ls),
(427,89,o),
(356,21,o),
(245,21,cs),
(181,21,o),
(136,44,o),
(82,98,c),
(60,72,l),
(116,15,o),
(167,-10,o),
(245,-10,cs)
);
}
);
width = 564;
},
{
anchors = (
{
name = bottom;
pos = (281,0);
},
{
name = top;
pos = (433,716);
}
);
layerId = "502A2428-35F6-4863-AD44-5AC44627310C";
shapes = (
{
closed = 1;
nodes = (
(385,-10,o),
(474,74,o),
(474,242,cs),
(474,716,l),
(392,716,l),
(392,238,ls),
(392,128,o),
(338,62,o),
(241,62,cs),
(189,62,o),
(140,84,o),
(90,130,c),
(48,70,l),
(106,13,o),
(160,-10,o),
(241,-10,cs)
);
}
);
width = 564;
}
);
unicode = 74;
}
{
glyphname = K;
kernLeft = B;
kernRight = K;
layers = (
{
anchors = (
{
name = bottom;
pos = (363,0);
},
{
name = top;
pos = (363,716);
}
);
background = {
shapes = (
{
closed = 1;
nodes = (
(264,0,l),
(264,175,l),
(332,256,l),
(486,0,l),
(725,0,l),
(458,407,l),
(713,715,l),
(476,715,l),
(264,448,l),
(264,715,l),
(60,715,l),
(60,0,l)
);
}
);
};
layerId = "42F8977D-8264-44FF-8A66-A72BD7D3E619";
shapes = (
{
closed = 1;
nodes = (
(264,0,l),
(264,175,l),
(332,257,l),
(486,0,l),
(725,0,l),
(458,407,l),
(713,716,l),
(476,716,l),
(264,448,l),
(264,716,l),
(60,716,l),
(60,0,l)
);
}
);
width = 727;
},
{
anchors = (
{
name = bottom;
pos = (325,0);
},
{
name = top;
pos = (325,716);
}
);
background = {
shapes = (
{
closed = 1;
nodes = (
(137,0,l),
(137,245,l),
(265,377,l),
(564,0,l),
(607,0,l),
(289,400,l),
(596,715,l),
(553,715,l),
(137,288,l),
(137,715,l),
(103,715,l),
(103,0,l)
);
}
);
};
layerId = "1750929F-40DF-47FF-8B11-7621AD6711F1";
shapes = (
{
closed = 1;
nodes = (
(137,0,l),
(137,245,l),
(265,377,l),
(564,0,l),
(607,0,l),
(289,400,l),
(596,716,l),
(553,716,l),
(137,288,l),
(137,716,l),
(103,716,l),
(103,0,l)
);
}
);
width = 652;
},
{
anchors = (
{
name = bottom;
pos = (337,0);
},
{
name = top;
pos = (337,716);
}
);
layerId = "502A2428-35F6-4863-AD44-5AC44627310C";
shapes = (
{
closed = 1;
nodes = (
(173,0,l),
(173,224,l),
(284,343,l),
(538,0,l),
(640,0,l),
(338,403,l),
(629,716,l),
(528,716,l),
(173,332,l),
(173,716,l),
(91,716,l),
(91,0,l)
);
}
);
width = 673;
}
);
metricLeft = B;
unicode = 75;
}
{
glyphname = L;
kernLeft = B;
kernRight = L;
layers = (
{
anchors = (
{
name = bottom;
pos = (304,0);
},
{
name = center;
pos = (293,358);
},
{
name = top;
pos = (162,716);
},
{
name = topright;
pos = (264,716);
}
);
background = {
shapes = (
{
closed = 1;
nodes = (
(551,0,l),
(551,176,l),
(264,176,l),
(264,715,l),
(60,715,l),
(60,0,l)
);
}
);
};
layerId = "42F8977D-8264-44FF-8A66-A72BD7D3E619";
shapes = (
{
closed = 1;
nodes = (
(551,0,l),
(551,176,l),
(264,176,l),
(264,716,l),
(60,716,l),
(60,0,l)
);
}
);
width = 585;
},
{
anchors = (
{
name = bottom;
pos = (293,1);
},
{
name = center;
pos = (281,358);
},
{
name = top;
pos = (121,716);
},
{
name = topright;
pos = (137,716);
}
);
background = {
shapes = (
{
closed = 1;
nodes = (
(508,0,l),
(508,32,l),
(137,32,l),
(137,715,l),
(103,715,l),
(103,0,l)
);
}
);
};
layerId = "1750929F-40DF-47FF-8B11-7621AD6711F1";
shapes = (
{
closed = 1;
nodes = (
(508,0,l),
(508,32,l),
(137,32,l),
(137,716,l),
(103,716,l),
(103,0,l)
);
}
);
width = 564;
},
{
anchors = (
{
name = bottom;
pos = (296,0);
},
{
name = center;
pos = (286,358);
},
{
name = top;
pos = (131,716);
},
{
name = topright;
pos = (173,716);
}
);
layerId = "502A2428-35F6-4863-AD44-5AC44627310C";
shapes = (
{
closed = 1;
nodes = (
(521,0,l),
(521,74,l),
(173,74,l),
(173,716,l),
(91,716,l),
(91,0,l)
);
}
);
width = 570;
}
);
metricLeft = B;
unicode = 76;
}
{
glyphname = M;
kernLeft = B;
kernRight = H;
layers = (
{
anchors = (
{
name = bottom;
pos = (491,0);
},
{
name = top;
pos = (491,716);
}
);
background = {
shapes = (
{
closed = 1;
nodes = (
(264,0,l),
(264,513,l),
(404,0,l),
(577,0,l),
(719,513,l),
(719,0,l),
(922,0,l),
(922,715,l),
(600,715,l),
(491,298,l),
(382,715,l),
(60,715,l),
(60,0,l)
);
}
);
};
layerId = "42F8977D-8264-44FF-8A66-A72BD7D3E619";
shapes = (
{
closed = 1;
nodes = (
(264,0,l),
(264,513,l),
(404,0,l),
(577,0,l),
(719,513,l),
(719,0,l),
(923,0,l),
(923,716,l),
(600,716,l),
(491,299,l),
(382,716,l),
(60,716,l),
(60,0,l)
);
}
);
width = 983;
},
{
anchors = (
{
name = bottom;
pos = (480,0);
},
{
name = top;
pos = (480,716);
}
);
background = {
shapes = (
{
closed = 1;
nodes = (
(137,0,l),
(137,678,l),
(463,0,l),
(497,0,l),
(823,678,l),
(823,0,l),
(858,0,l),
(858,715,l),
(805,715,l),
(480,42,l),
(156,715,l),
(103,715,l),
(103,0,l)
);
}
);
};
layerId = "1750929F-40DF-47FF-8B11-7621AD6711F1";
shapes = (
{
closed = 1;
nodes = (
(137,0,l),
(137,679,l),
(463,0,l),
(497,0,l),
(823,679,l),
(823,0,l),
(857,0,l),
(857,716,l),
(805,716,l),
(480,42,l),
(156,716,l),
(103,716,l),
(103,0,l)
);
}
);
width = 960;
},
{
anchors = (
{
name = bottom;
pos = (483,0);
},
{
name = top;
pos = (483,716);
}
);
layerId = "502A2428-35F6-4863-AD44-5AC44627310C";
shapes = (
{
closed = 1;
nodes = (
(173,0,l),
(173,632,l),
(445,0,l),
(520,0,l),
(793,632,l),
(793,0,l),
(875,0,l),
(875,716,l),
(746,716,l),
(483,101,l),
(220,716,l),
(91,716,l),
(91,0,l)
);
}
);
width = 966;
}
);
metricLeft = B;
metricRight = "=|";
unicode = 77;
}
{
glyphname = N;
kernLeft = B;
kernRight = H;
layers = (
{
anchors = (
{
name = bottom;
pos = (386,0);
},
{
name = top;
pos = (386,716);
}
);
background = {
shapes = (
{
closed = 1;
nodes = (
(264,0,l),
(264,405,l),
(497,0,l),
(711,0,l),
(711,715,l),
(508,715,l),
(508,311,l),
(274,715,l),
(60,715,l),
(60,0,l)
);
}
);
};
layerId = "42F8977D-8264-44FF-8A66-A72BD7D3E619";
shapes = (
{
closed = 1;
nodes = (
(264,0,l),
(264,405,l),
(497,0,l),
(712,0,l),
(712,716,l),
(508,716,l),
(508,311,l),
(274,716,l),
(60,716,l),
(60,0,l)
);
}
);
width = 772;
},
{
anchors = (
{
name = bottom;
pos = (386,0);
},
{
name = top;
pos = (386,716);
}
);
background = {
shapes = (
{
closed = 1;
nodes = (
(137,0,l),
(137,678,l),
(623,0,l),
(668,0,l),
(668,715,l),
(635,715,l),
(635,39,l),
(148,715,l),
(103,715,l),
(103,0,l)
);
}
);
};
layerId = "1750929F-40DF-47FF-8B11-7621AD6711F1";
shapes = (
{
closed = 1;
nodes = (
(137,0,l),
(137,679,l),
(623,0,l),
(669,0,l),
(669,716,l),
(635,716,l),
(635,39,l),
(148,716,l),
(103,716,l),
(103,0,l)
);
}
);
width = 772;
},
{
anchors = (
{
name = bottom;
pos = (386,0);
},
{
name = top;
pos = (386,716);
}
);
layerId = "502A2428-35F6-4863-AD44-5AC44627310C";
shapes = (
{
closed = 1;
nodes = (
(173,0,l),
(173,602,l),
(589,0,l),
(681,0,l),
(681,716,l),
(599,716,l),
(599,116,l),
(183,716,l),
(91,716,l),
(91,0,l)
);
}
);
width = 772;
}
);
metricLeft = B;
metricRight = "=|";
unicode = 78;
}
{
glyphname = O;
kernLeft = C;
kernRight = D;
layers = (
{
anchors = (
{
name = bottom;
pos = (419,0);
},
{
name = center;
pos = (419,358);
},
{
name = ogonek;
pos = (753,10);
},
{
name = top;
pos = (419,716);
},
{
name = topleft;
pos = (23,715);
},
{
name = topright;
pos = (816,715);
}
);
background = {
shapes = (
{
closed = 1;
nodes = (
(655,-10,o),
(810,143,o),
(810,358,cs),
(810,572,o),
(655,727,o),
(419,727,cs),
(184,727,o),
(29,572,o),
(29,358,cs),
(29,143,o),
(183,-10,o),
(419,-10,cs)
);
},
{
closed = 1;
nodes = (
(311,165,o),
(234,243,o),
(234,358,cs),
(234,474,o),
(311,551,o),
(419,551,cs),
(526,551,o),
(603,474,o),
(603,358,cs),
(603,243,o),
(526,165,o),
(419,165,cs)
);
}
);
};
layerId = "42F8977D-8264-44FF-8A66-A72BD7D3E619";
shapes = (
{
closed = 1;
nodes = (
(655,-10,o),
(810,143,o),
(810,358,cs),
(810,572,o),
(655,726,o),
(419,726,cs),
(184,726,o),
(29,572,o),
(29,358,cs),
(29,143,o),
(183,-10,o),
(419,-10,cs)
);
},
{
closed = 1;
nodes = (
(311,165,o),
(235,243,o),
(235,358,cs),
(235,474,o),
(311,551,o),
(419,551,cs),
(526,551,o),
(604,474,o),
(604,358,cs),
(604,243,o),
(526,165,o),
(419,165,cs)
);
}
);
width = 839;
},
{
anchors = (
{
name = bottom;
pos = (418,0);
},
{
name = center;
pos = (418,358);
},
{
name = ogonek;
pos = (752,10);
},
{
name = top;
pos = (418,716);
},
{
name = topleft;
pos = (21,715);
},
{
name = topright;
pos = (815,715);
}
);
background = {
shapes = (
{
closed = 1;
nodes = (
(637,-10,o),
(766,143,o),
(766,358,cs),
(766,572,o),
(637,727,o),
(418,727,cs),
(200,727,o),
(71,572,o),
(71,358,cs),
(71,143,o),
(200,-10,o),
(418,-10,cs)
);
},
{
closed = 1;
nodes = (
(223,21,o),
(107,158,o),
(107,358,cs),
(107,559,o),
(223,695,o),
(418,695,cs),
(613,695,o),
(729,559,o),
(729,358,cs),
(729,158,o),
(613,21,o),
(418,21,cs)
);
}
);
};
layerId = "1750929F-40DF-47FF-8B11-7621AD6711F1";
shapes = (
{
closed = 1;
nodes = (
(637,-10,o),
(766,143,o),
(766,358,cs),
(766,572,o),
(637,726,o),
(418,726,cs),
(200,726,o),
(71,572,o),
(71,358,cs),
(71,143,o),
(200,-10,o),
(418,-10,cs)
);
},
{
closed = 1;
nodes = (
(223,22,o),
(108,158,o),
(108,358,cs),
(108,558,o),
(223,694,o),
(418,694,cs),
(613,694,o),
(729,558,o),
(729,358,cs),
(729,158,o),
(613,22,o),
(418,22,cs)
);
}
);
width = 837;
},
{
anchors = (
{
name = bottom;
pos = (417,0);
},
{
name = center;
pos = (417,358);
},
{
name = ogonek;
pos = (456,0);
},
{
name = top;
pos = (417,716);
},
{
name = topleft;
pos = (20,715);
},
{
name = topright;
pos = (814,715);
}
);
layerId = "502A2428-35F6-4863-AD44-5AC44627310C";
shapes = (
{
closed = 1;
nodes = (
(640,-10,o),
(777,143,o),
(777,358,cs),
(777,572,o),
(640,726,o),
(417,726,cs),
(194,726,o),
(57,572,o),
(57,358,cs),
(57,143,o),
(194,-10,o),
(417,-10,cs)
);
},
{
closed = 1;
nodes = (
(247,63,o),
(142,181,o),
(142,358,cs),
(142,534,o),
(247,653,o),
(417,653,cs),
(588,653,o),
(692,534,o),
(692,358,cs),
(692,181,o),
(588,63,o),
(417,63,cs)
);
}
);
width = 835;
}
);
metricLeft = C;
metricRight = D;
unicode = 79;
}
{
glyphname = P;
kernLeft = B;
kernRight = P;
layers = (
{
anchors = (
{
name = bottom;
pos = (349,0);
},
{
name = top;
pos = (349,716);
}
);
background = {
shapes = (
{
closed = 1;
nodes = (
(264,0,l),
(264,229,l),
(388,229,ls),
(581,229,o),
(670,322,o),
(670,473,cs),
(670,622,o),
(581,715,o),
(388,715,cs),
(60,715,l),
(60,0,l)
);
},
{
closed = 1;
nodes = (
(264,558,l),
(356,558,ls),
(426,558,o),
(465,532,o),
(465,473,cs),
(465,412,o),
(426,388,o),
(356,388,cs),
(264,388,l)
);
}
);
};
layerId = "42F8977D-8264-44FF-8A66-A72BD7D3E619";
shapes = (
{
closed = 1;
nodes = (
(264,0,l),
(264,229,l),
(388,229,ls),
(581,229,o),
(670,323,o),
(670,473,cs),
(670,623,o),
(581,716,o),
(388,716,cs),
(60,716,l),
(60,0,l)
);
},
{
closed = 1;
nodes = (
(264,556,l),
(356,556,ls),
(426,556,o),
(465,531,o),
(465,473,cs),
(465,414,o),
(426,389,o),
(356,389,cs),
(264,389,l)
);
}
);
width = 699;
},
{
anchors = (
{
name = bottom;
pos = (339,0);
},
{
name = top;
pos = (339,716);
}
);
background = {
shapes = (
{
closed = 1;
nodes = (
(137,0,l),
(137,294,l),
(356,294,ls),
(516,294,o),
(607,355,o),
(607,505,cs),
(607,655,o),
(516,715,o),
(356,715,cs),
(103,715,l),
(103,0,l)
);
},
{
closed = 1;
nodes = (
(137,684,l),
(345,684,ls),
(501,684,o),
(570,639,o),
(570,505,cs),
(570,371,o),
(490,325,o),
(345,325,cs),
(137,325,l)
);
}
);
};
layerId = "1750929F-40DF-47FF-8B11-7621AD6711F1";
shapes = (
{
closed = 1;
nodes = (
(137,0,l),
(137,294,l),
(356,294,ls),
(516,294,o),
(607,355,o),
(607,506,cs),
(607,656,o),
(516,716,o),
(356,716,cs),
(103,716,l),
(103,0,l)
);
},
{
closed = 1;
nodes = (
(137,684,l),
(345,684,ls),
(501,684,o),
(570,639,o),
(570,506,cs),
(570,373,o),
(490,328,o),
(345,328,cs),
(137,328,l)
);
}
);
width = 678;
},
{
anchors = (
{
name = bottom;
pos = (342,0);
},
{
name = top;
pos = (342,716);
}
);
layerId = "502A2428-35F6-4863-AD44-5AC44627310C";
shapes = (
{
closed = 1;
nodes = (
(173,0,l),
(173,276,l),
(364,276,ls),
(535,276,o),
(625,345,o),
(625,497,cs),
(625,648,o),
(535,716,o),
(364,716,cs),
(91,716,l),
(91,0,l)
);
},
{
closed = 1;
nodes = (
(173,642,l),
(348,642,ls),
(478,642,o),
(541,603,o),
(541,497,cs),
(541,387,o),
(473,348,o),
(348,348,cs),
(173,348,l)
);
}
);
width = 684;
}
);
metricLeft = B;
unicode = 80;
}
{
glyphname = Q;
kernLeft = C;
kernRight = Q;
layers = (
{
anchors = (
{
name = bottom;
pos = (418,0);
},
{
name = top;
pos = (418,715);
}
);
background = {
shapes = (
{
closed = 1;
nodes = (
(711,-206,o),
(775,-188,o),
(851,-150,c),
(792,-17,l),
(742,-40,o),
(695,-51,o),
(663,-51,cs),
(607,-51,o),
(583,-19,o),
(578,16,c),
(722,71,o),
(809,197,o),
(809,358,cs),
(809,572,o),
(654,727,o),
(418,727,cs),
(183,727,o),
(28,572,o),
(28,358,cs),
(28,143,o),
(182,-10,o),
(418,-10,c),
(418,-112,o),
(491,-206,o),
(647,-206,cs)
);
},
{
closed = 1;
nodes = (
(310,165,o),
(233,243,o),
(233,358,cs),
(233,474,o),
(310,551,o),
(418,551,cs),
(525,551,o),
(602,474,o),
(602,358,cs),
(602,243,o),
(525,165,o),
(418,165,cs)
);
}
);
};
guides = (
{
angle = 90;
pos = (408,0);
}
);
layerId = "42F8977D-8264-44FF-8A66-A72BD7D3E619";
shapes = (
{
closed = 1;
nodes = (
(802,114,l),
(535,353,l),
(418,231,l),
(686,-10,l)
);
},
{
ref = O;
}
);
width = 839;
},
{
anchors = (
{
name = bottom;
pos = (418,0);
},
{
name = top;
pos = (418,715);
}
);
background = {
shapes = (
{
closed = 1;
nodes = (
(698,-206,o),
(752,-186,o),
(809,-139,c),
(790,-116,l),
(735,-159,o),
(692,-176,o),
(634,-176,cs),
(525,-176,o),
(453,-129,o),
(450,-9,c),
(649,4,o),
(766,155,o),
(766,358,cs),
(766,572,o),
(637,727,o),
(418,727,cs),
(200,727,o),
(71,572,o),
(71,358,cs),
(71,143,o),
(200,-10,o),
(418,-10,c),
(418,-126,o),
(492,-206,o),
(634,-206,cs)
);
},
{
closed = 1;
nodes = (
(223,21,o),
(107,158,o),
(107,358,cs),
(107,559,o),
(223,695,o),
(418,695,cs),
(613,695,o),
(729,559,o),
(729,358,cs),
(729,158,o),
(613,21,o),
(418,21,cs)
);
}
);
};
guides = (
{
angle = 90;
pos = (408,0);
}
);
layerId = "1750929F-40DF-47FF-8B11-7621AD6711F1";
shapes = (
{
closed = 1;
nodes = (
(764,13,l),
(439,299,l),
(418,275,l),
(742,-10,l)
);
},
{
ref = O;
}
);
width = 837;
},
{
anchors = (
{
name = bottom;
pos = (418,0);
},
{
name = top;
pos = (418,715);
}
);
guides = (
{
angle = 90;
pos = (408,0);
}
);
layerId = "502A2428-35F6-4863-AD44-5AC44627310C";
shapes = (
{
closed = 1;
nodes = (
(777,46,l),
(469,317,l),
(418,261,l),
(727,-10,l)
);
},
{
alignment = -1;
ref = O;
}
);
width = 834;
},
{
anchors = (
{
name = bottom;
pos = (418,0);
},
{
name = top;
pos = (418,715);
}
);
associatedMasterId = "502A2428-35F6-4863-AD44-5AC44627310C";
guides = (
{
angle = 90;
pos = (408,0);
}
);
layerId = "E085ADED-3842-4305-8393-7F07C1672D00";
name = "Dec 9, 23 at 14:36";
shapes = (
{
closed = 1;
nodes = (
(778,41,l),
(470,349,l),
(418,298,l),
(727,-10,l)
);
},
{
alignment = -1;
ref = O;
}
);
width = 836;
}
);
metricLeft = C;
metricRight = "=|";
unicode = 81;
}
{
glyphname = R;
kernLeft = B;
kernRight = R;
layers = (
{
anchors = (
{
name = bottom;
pos = (349,0);
},
{
name = top;
pos = (349,716);
}
);
background = {
shapes = (
{
closed = 1;
nodes = (
(264,0,l),
(264,253,l),
(303,253,l),
(470,0,l),
(707,0,l),
(514,269,l),
(615,302,o),
(670,368,o),
(670,484,cs),
(670,636,o),
(571,715,o),
(388,715,cs),
(60,715,l),
(60,0,l)
);
},
{
closed = 1;
nodes = (
(264,558,l),
(356,558,ls),
(437,558,o),
(465,531,o),
(465,483,cs),
(465,435,o),
(437,409,o),
(356,409,cs),
(264,409,l)
);
}
);
};
layerId = "42F8977D-8264-44FF-8A66-A72BD7D3E619";
shapes = (
{
closed = 1;
nodes = (
(264,0,l),
(264,253,l),
(303,253,l),
(470,0,l),
(707,0,l),
(514,269,l),
(615,303,o),
(670,369,o),
(670,485,cs),
(670,637,o),
(571,716,o),
(388,716,cs),
(60,716,l),
(60,0,l)
);
},
{
closed = 1;
nodes = (
(264,557,l),
(356,557,ls),
(437,557,o),
(465,531,o),
(465,484,cs),
(465,436,o),
(437,411,o),
(356,411,cs),
(264,411,l)
);
}
);
width = 707;
},
{
anchors = (
{
name = bottom;
pos = (339,0);
},
{
name = top;
pos = (339,716);
}
);
background = {
shapes = (
{
closed = 1;
nodes = (
(137,0,l),
(137,317,l),
(361,317,l),
(600,0,l),
(643,0,l),
(401,319,l),
(533,332,o),
(607,391,o),
(607,517,cs),
(607,657,o),
(518,715,o),
(356,715,cs),
(103,715,l),
(103,0,l)
);
},
{
closed = 1;
nodes = (
(137,684,l),
(345,684,ls),
(501,684,o),
(570,640,o),
(570,517,cs),
(570,393,o),
(490,349,o),
(345,349,cs),
(137,349,l)
);
}
);
};
layerId = "1750929F-40DF-47FF-8B11-7621AD6711F1";
shapes = (
{
closed = 1;
nodes = (
(137,0,l),
(137,317,l),
(361,317,l),
(600,0,l),
(643,0,l),
(401,319,l),
(533,332,o),
(607,392,o),
(607,517,cs),
(607,658,o),
(518,716,o),
(356,716,cs),
(103,716,l),
(103,0,l)
);
},
{
closed = 1;
nodes = (
(137,684,l),
(345,684,ls),
(501,684,o),
(570,640,o),
(570,517,cs),
(570,394,o),
(490,349,o),
(345,349,cs),
(137,349,l)
);
}
);
width = 678;
},
{
anchors = (
{
name = bottom;
pos = (342,0);
},
{
name = top;
pos = (342,716);
}
);
layerId = "502A2428-35F6-4863-AD44-5AC44627310C";
shapes = (
{
closed = 1;
nodes = (
(173,0,l),
(173,300,l),
(345,300,l),
(563,0,l),
(661,0,l),
(433,305,l),
(557,322,o),
(625,385,o),
(625,509,cs),
(625,651,o),
(532,716,o),
(364,716,cs),
(91,716,l),
(91,0,l)
);
},
{
closed = 1;
nodes = (
(173,642,l),
(348,642,ls),
(483,642,o),
(541,605,o),
(541,508,cs),
(541,408,o),
(476,372,o),
(348,372,cs),
(173,372,l)
);
}
);
width = 684;
}
);
metricLeft = B;
unicode = 82;
}
{
glyphname = S;
kernLeft = S;
kernRight = S;
layers = (
{
anchors = (
{
name = bottom;
pos = (317,0);
},
{
name = top;
pos = (317,716);
}
);
background = {
shapes = (
{
closed = 1;
nodes = (
(503,-10,o),
(607,84,o),
(607,240,cs),
(607,338,o),
(547,420,o),
(402,446,cs),
(321,461,ls),
(278,469,o),
(255,481,o),
(255,510,cs),
(255,544,o),
(277,562,o),
(337,562,cs),
(380,562,o),
(445,537,o),
(518,499,c),
(585,652,l),
(495,711,o),
(409,727,o),
(332,727,cs),
(132,727,o),
(49,613,o),
(49,477,cs),
(49,375,o),
(108,314,o),
(254,288,cs),
(335,272,ls),
(378,265,o),
(401,244,o),
(401,214,cs),
(401,177,o),
(366,155,o),
(302,155,cs),
(252,155,o),
(177,181,o),
(95,231,c),
(28,79,l),
(115,15,o),
(200,-10,o),
(302,-10,cs)
);
}
);
};
layerId = "42F8977D-8264-44FF-8A66-A72BD7D3E619";
shapes = (
{
closed = 1;
nodes = (
(503,-10,o),
(607,84,o),
(607,240,cs),
(607,338,o),
(547,419,o),
(402,446,cs),
(321,461,ls),
(278,469,o),
(255,481,o),
(255,510,cs),
(255,544,o),
(277,561,o),
(337,561,cs),
(380,561,o),
(445,537,o),
(518,499,c),
(585,652,l),
(495,711,o),
(409,726,o),
(332,726,cs),
(132,726,o),
(49,613,o),
(49,477,cs),
(49,375,o),
(109,317,o),
(254,288,cs),
(335,272,ls),
(378,264,o),
(401,244,o),
(401,214,cs),
(401,177,o),
(366,155,o),
(302,155,cs),
(252,155,o),
(177,181,o),
(95,231,c),
(28,79,l),
(115,15,o),
(200,-10,o),
(302,-10,cs)
);
}
);
width = 635;
},
{
anchors = (
{
name = bottom;
pos = (317,0);
},
{
name = top;
pos = (317,716);
}
);
background = {
shapes = (
{
closed = 1;
nodes = (
(474,-10,o),
(564,74,o),
(564,194,cs),
(564,274,o),
(514,346,o),
(402,368,cs),
(257,396,ls),
(173,412,o),
(129,459,o),
(129,530,cs),
(129,628,o),
(194,695,o),
(317,695,cs),
(407,695,o),
(465,665,o),
(521,614,c),
(542,641,l),
(482,701,o),
(407,727,o),
(317,727,cs),
(172,727,o),
(92,639,o),
(92,530,cs),
(92,450,o),
(141,386,o),
(254,364,cs),
(399,337,ls),
(483,320,o),
(527,266,o),
(527,194,cs),
(527,87,o),
(451,21,o),
(317,21,cs),
(230,21,o),
(166,48,o),
(92,117,c),
(71,90,l),
(146,17,o),
(220,-10,o),
(317,-10,cs)
);
}
);
};
layerId = "1750929F-40DF-47FF-8B11-7621AD6711F1";
shapes = (
{
closed = 1;
nodes = (
(474,-10,o),
(564,74,o),
(564,194,cs),
(564,274,o),
(514,346,o),
(402,368,cs),
(257,396,ls),
(173,412,o),
(129,459,o),
(129,530,cs),
(129,628,o),
(194,694,o),
(317,694,cs),
(407,694,o),
(465,665,o),
(521,614,c),
(542,641,l),
(482,701,o),
(407,726,o),
(317,726,cs),
(172,726,o),
(92,639,o),
(92,530,cs),
(92,450,o),
(141,385,o),
(254,364,cs),
(399,337,ls),
(483,321,o),
(527,266,o),
(527,194,cs),
(527,87,o),
(451,22,o),
(317,22,cs),
(230,22,o),
(166,48,o),
(92,117,c),
(71,90,l),
(146,17,o),
(220,-10,o),
(317,-10,cs)
);
}
);
width = 635;
},
{
anchors = (
{
name = bottom;
pos = (317,0);
},
{
name = top;
pos = (317,716);
}
);
layerId = "502A2428-35F6-4863-AD44-5AC44627310C";
shapes = (
{
closed = 1;
nodes = (
(482,-10,o),
(576,77,o),
(576,207,cs),
(576,293,o),
(522,370,o),
(402,394,cs),
(275,419,ls),
(203,433,o),
(165,467,o),
(165,525,cs),
(165,603,o),
(219,653,o),
(322,653,cs),
(399,653,o),
(458,625,o),
(519,578,c),
(556,644,l),
(485,704,o),
(407,726,o),
(320,726,cs),
(160,726,o),
(80,632,o),
(80,516,cs),
(80,430,o),
(132,364,o),
(254,340,cs),
(382,315,ls),
(453,301,o),
(491,259,o),
(491,200,cs),
(491,113,o),
(428,63,o),
(313,63,cs),
(236,63,o),
(172,88,o),
(95,153,c),
(58,88,l),
(138,17,o),
(214,-10,o),
(313,-10,cs)
);
}
);
width = 634;
}
);
metricRight = "=|";
unicode = 83;
}
{
glyphname = T;
kernLeft = T;
kernRight = T;
layers = (
{
anchors = (
{
name = bottom;
pos = (334,0);
},
{
name = center;
pos = (334,358);
},
{
name = top;
pos = (334,716);
}
);
background = {
shapes = (
{
closed = 1;
nodes = (
(435,0,l),
(435,540,l),
(633,540,l),
(633,715,l),
(35,715,l),
(35,540,l),
(231,540,l),
(231,0,l)
);
}
);
};
layerId = "42F8977D-8264-44FF-8A66-A72BD7D3E619";
shapes = (
{
closed = 1;
nodes = (
(435,0,l),
(435,540,l),
(633,540,l),
(633,716,l),
(35,716,l),
(35,540,l),
(231,540,l),
(231,0,l)
);
}
);
width = 668;
},
{
anchors = (
{
name = bottom;
pos = (312,0);
},
{
name = center;
pos = (312,358);
},
{
name = top;
pos = (312,716);
}
);
background = {
shapes = (
{
closed = 1;
nodes = (
(329,0,l),
(329,684,l),
(568,684,l),
(568,715,l),
(55,715,l),
(55,684,l),
(295,684,l),
(295,0,l)
);
}
);
};
layerId = "1750929F-40DF-47FF-8B11-7621AD6711F1";
shapes = (
{
closed = 1;
nodes = (
(329,0,l),
(329,684,l),
(568,684,l),
(568,716,l),
(55,716,l),
(55,684,l),
(295,684,l),
(295,0,l)
);
}
);
width = 623;
},
{
anchors = (
{
name = bottom;
pos = (318,0);
},
{
name = center;
pos = (318,358);
},
{
name = top;
pos = (318,716);
}
);
layerId = "502A2428-35F6-4863-AD44-5AC44627310C";
shapes = (
{
closed = 1;
nodes = (
(359,0,l),
(359,642,l),
(586,642,l),
(586,716,l),
(49,716,l),
(49,642,l),
(277,642,l),
(277,0,l)
);
}
);
width = 635;
}
);
metricRight = "=|";
unicode = 84;
}
{
glyphname = U;
kernLeft = U;
kernRight = U;
layers = (
{
anchors = (
{
name = bottom;
pos = (386,0);
},
{
name = ogonek;
pos = (493,0);
},
{
name = top;
pos = (386,716);
},
{
name = topright;
pos = (711,716);
}
);
background = {
shapes = (
{
closed = 1;
nodes = (
(596,-10,o),
(711,88,o),
(711,298,cs),
(711,715,l),
(508,715,l),
(508,298,ls),
(508,213,o),
(471,165,o),
(386,165,cs),
(301,165,o),
(264,213,o),
(264,298,cs),
(264,715,l),
(60,715,l),
(60,298,ls),
(60,88,o),
(176,-10,o),
(386,-10,cs)
);
}
);
};
layerId = "42F8977D-8264-44FF-8A66-A72BD7D3E619";
shapes = (
{
closed = 1;
nodes = (
(596,-10,o),
(712,88,o),
(712,298,cs),
(712,716,l),
(508,716,l),
(508,298,ls),
(508,213,o),
(471,165,o),
(386,165,cs),
(301,165,o),
(264,213,o),
(264,298,cs),
(264,716,l),
(60,716,l),
(60,298,ls),
(60,88,o),
(176,-10,o),
(386,-10,cs)
);
}
);
width = 772;
},
{
anchors = (
{
name = bottom;
pos = (386,0);
},
{
name = ogonek;
pos = (479,0);
},
{
name = top;
pos = (386,716);
},
{
name = topright;
pos = (668,716);
}
);
background = {
shapes = (
{
closed = 1;
nodes = (
(562,-10,o),
(668,82,o),
(668,288,cs),
(668,715,l),
(635,715,l),
(635,288,ls),
(635,95,o),
(537,21,o),
(386,21,cs),
(234,21,o),
(137,95,o),
(137,288,cs),
(137,715,l),
(103,715,l),
(103,288,ls),
(103,82,o),
(210,-10,o),
(386,-10,cs)
);
}
);
};
layerId = "1750929F-40DF-47FF-8B11-7621AD6711F1";
shapes = (
{
closed = 1;
nodes = (
(562,-10,o),
(669,82,o),
(669,288,cs),
(669,716,l),
(635,716,l),
(635,288,ls),
(635,95,o),
(537,22,o),
(386,22,cs),
(234,22,o),
(137,95,o),
(137,288,cs),
(137,716,l),
(103,716,l),
(103,288,ls),
(103,82,o),
(210,-10,o),
(386,-10,cs)
);
}
);
width = 772;
},
{
anchors = (
{
name = bottom;
pos = (386,0);
},
{
name = ogonek;
pos = (480,0);
},
{
name = top;
pos = (386,716);
},
{
name = topright;
pos = (682,716);
}
);
layerId = "502A2428-35F6-4863-AD44-5AC44627310C";
shapes = (
{
closed = 1;
nodes = (
(568,-10,o),
(681,85,o),
(681,291,cs),
(681,716,l),
(599,716,l),
(599,291,ls),
(599,129,o),
(519,63,o),
(386,63,cs),
(253,63,o),
(173,129,o),
(173,291,cs),
(173,716,l),
(91,716,l),
(91,291,ls),
(91,85,o),
(204,-10,o),
(386,-10,cs)
);
}
);
width = 772;
}
);
metricRight = "=|";
unicode = 85;
}
{
glyphname = V;
kernLeft = V;
kernRight = V;
layers = (
{
anchors = (
{
name = bottom;
pos = (382,0);
},
{
name = top;
pos = (382,716);
}
);
background = {
shapes = (
{
closed = 1;
nodes = (
(494,0,l),
(760,715,l),
(533,715,l),
(382,232,l),
(229,715,l),
(2,715,l),
(269,0,l)
);
}
);
};
layerId = "42F8977D-8264-44FF-8A66-A72BD7D3E619";
shapes = (
{
closed = 1;
nodes = (
(494,0,l),
(760,716,l),
(533,716,l),
(382,233,l),
(229,716,l),
(2,716,l),
(269,0,l)
);
}
);
width = 762;
},
{
anchors = (
{
name = bottom;
pos = (371,0);
},
{
name = top;
pos = (371,716);
}
);
background = {
shapes = (
{
closed = 1;
nodes = (
(388,0,l),
(697,715,l),
(660,715,l),
(371,40,l),
(82,715,l),
(45,715,l),
(354,0,l)
);
}
);
};
layerId = "1750929F-40DF-47FF-8B11-7621AD6711F1";
shapes = (
{
closed = 1;
nodes = (
(388,0,l),
(697,716,l),
(660,716,l),
(371,40,l),
(82,716,l),
(45,716,l),
(354,0,l)
);
}
);
width = 742;
},
{
anchors = (
{
name = bottom;
pos = (374,0);
},
{
name = top;
pos = (374,716);
}
);
layerId = "502A2428-35F6-4863-AD44-5AC44627310C";
shapes = (
{
closed = 1;
nodes = (
(419,0,l),
(714,716,l),
(623,716,l),
(374,94,l),
(124,716,l),
(33,716,l),
(329,0,l)
);
}
);
width = 747;
}
);
metricRight = "=|";
unicode = 86;
}
{
glyphname = W;
kernLeft = W;
kernRight = W;
layers = (
{
anchors = (
{
name = bottom;
pos = (545,0);
},
{
name = top;
pos = (545,716);
}
);
background = {
shapes = (
{
closed = 1;
nodes = (
(440,0,l),
(545,437,l),
(649,0,l),
(873,0,l),
(1087,715,l),
(860,715,l),
(750,254,l),
(652,715,l),
(437,715,l),
(339,254,l),
(229,715,l),
(2,715,l),
(215,0,l)
);
}
);
};
layerId = "42F8977D-8264-44FF-8A66-A72BD7D3E619";
shapes = (
{
closed = 1;
nodes = (
(440,0,l),
(545,438,l),
(649,0,l),
(873,0,l),
(1087,716,l),
(860,716,l),
(750,255,l),
(652,716,l),
(437,716,l),
(339,255,l),
(229,716,l),
(2,716,l),
(215,0,l)
);
}
);
width = 1089;
},
{
anchors = (
{
name = bottom;
pos = (533,0);
},
{
name = top;
pos = (533,716);
}
);
background = {
shapes = (
{
closed = 1;
nodes = (
(316,0,l),
(533,677,l),
(751,0,l),
(786,0,l),
(1023,715,l),
(986,715,l),
(769,40,l),
(551,715,l),
(517,715,l),
(299,40,l),
(82,715,l),
(45,715,l),
(281,0,l)
);
}
);
};
layerId = "1750929F-40DF-47FF-8B11-7621AD6711F1";
shapes = (
{
closed = 1;
nodes = (
(316,0,l),
(533,678,l),
(751,0,l),
(786,0,l),
(1023,716,l),
(986,716,l),
(769,40,l),
(551,716,l),
(517,716,l),
(299,40,l),
(82,716,l),
(45,716,l),
(281,0,l)
);
}
);
width = 1068;
},
{
anchors = (
{
name = bottom;
pos = (537,0);
},
{
name = top;
pos = (536,716);
}
);
layerId = "502A2428-35F6-4863-AD44-5AC44627310C";
shapes = (
{
closed = 1;
nodes = (
(351,0,l),
(536,609,l),
(722,0,l),
(811,0,l),
(1041,716,l),
(950,716,l),
(766,104,l),
(580,716,l),
(492,716,l),
(308,104,l),
(124,716,l),
(33,716,l),
(262,0,l)
);
}
);
width = 1074;
}
);
metricRight = "=|";
unicode = 87;
}
{
glyphname = X;
kernLeft = X;
kernRight = K;
layers = (
{
anchors = (
{
name = bottom;
pos = (371,0);
},
{
name = top;
pos = (371,716);
}
);
background = {
shapes = (
{
closed = 1;
nodes = (
(241,0,l),
(371,217,l),
(502,0,l),
(740,0,l),
(497,368,l),
(729,715,l),
(491,715,l),
(371,522,l),
(251,715,l),
(13,715,l),
(245,368,l),
(2,0,l)
);
}
);
};
layerId = "42F8977D-8264-44FF-8A66-A72BD7D3E619";
shapes = (
{
closed = 1;
nodes = (
(241,0,l),
(371,217,l),
(502,0,l),
(740,0,l),
(497,369,l),
(729,716,l),
(491,716,l),
(371,523,l),
(251,716,l),
(13,716,l),
(245,369,l),
(2,0,l)
);
}
);
width = 742;
},
{
anchors = (
{
name = bottom;
pos = (360,0);
},
{
name = top;
pos = (360,716);
}
);
background = {
shapes = (
{
closed = 1;
nodes = (
(88,0,l),
(360,343,l),
(633,0,l),
(676,0,l),
(382,368,l),
(664,715,l),
(621,715,l),
(360,393,l),
(98,715,l),
(55,715,l),
(338,368,l),
(45,0,l)
);
}
);
};
layerId = "1750929F-40DF-47FF-8B11-7621AD6711F1";
shapes = (
{
closed = 1;
nodes = (
(88,0,l),
(360,344,l),
(633,0,l),
(676,0,l),
(382,369,l),
(664,716,l),
(621,716,l),
(360,394,l),
(98,716,l),
(55,716,l),
(338,369,l),
(45,0,l)
);
}
);
width = 721;
},
{
anchors = (
{
name = bottom;
pos = (363,0);
},
{
name = top;
pos = (363,716);
}
);
layerId = "502A2428-35F6-4863-AD44-5AC44627310C";
shapes = (
{
closed = 1;
nodes = (
(131,0,l),
(363,310,l),
(595,0,l),
(694,0,l),
(416,369,l),
(683,716,l),
(583,716,l),
(363,428,l),
(142,716,l),
(43,716,l),
(310,369,l),
(33,0,l)
);
}
);
width = 727;
}
);
metricLeft = "=|";
metricRight = K;
unicode = 88;
}
{
glyphname = Y;
kernLeft = Y;
kernRight = Y;
layers = (
{
anchors = (
{
name = bottom;
pos = (371,0);
},
{
name = top;
pos = (371,716);
},
{
name = topleft;
pos = (2,716);
}
);
background = {
shapes = (
{
closed = 1;
nodes = (
(473,0,l),
(473,265,l),
(740,715,l),
(502,715,l),
(371,458,l),
(241,715,l),
(2,715,l),
(269,265,l),
(269,0,l)
);
}
);
};
layerId = "42F8977D-8264-44FF-8A66-A72BD7D3E619";
shapes = (
{
closed = 1;
nodes = (
(473,0,l),
(473,265,l),
(740,716,l),
(501,716,l),
(371,459,l),
(241,716,l),
(2,716,l),
(269,265,l),
(269,0,l)
);
}
);
width = 742;
},
{
anchors = (
{
name = bottom;
pos = (360,0);
},
{
name = top;
pos = (360,716);
},
{
name = topleft;
pos = (45,716);
}
);
background = {
shapes = (
{
closed = 1;
nodes = (
(378,0,l),
(378,287,l),
(676,715,l),
(635,715,l),
(360,315,l),
(86,715,l),
(45,715,l),
(343,287,l),
(343,0,l)
);
}
);
};
layerId = "1750929F-40DF-47FF-8B11-7621AD6711F1";
shapes = (
{
closed = 1;
nodes = (
(378,0,l),
(378,287,l),
(676,716,l),
(635,716,l),
(360,315,l),
(86,716,l),
(45,716,l),
(344,287,l),
(344,0,l)
);
}
);
width = 721;
},
{
anchors = (
{
name = bottom;
pos = (363,0);
},
{
name = top;
pos = (363,716);
},
{
name = topleft;
pos = (33,716);
}
);
layerId = "502A2428-35F6-4863-AD44-5AC44627310C";
shapes = (
{
closed = 1;
nodes = (
(404,0,l),
(404,279,l),
(694,716,l),
(597,716,l),
(363,355,l),
(130,716,l),
(33,716,l),
(322,279,l),
(322,0,l)
);
}
);
width = 727;
}
);
metricRight = "=|";
unicode = 89;
}
{
glyphname = Z;
kernLeft = Z;
kernRight = Z;
layers = (
{
anchors = (
{
name = bottom;
pos = (325,0);
},
{
name = center;
pos = (322,358);
},
{
name = top;
pos = (325,716);
}
);
background = {
shapes = (
{
closed = 1;
nodes = (
(619,0,l),
(619,176,l),
(296,176,l),
(609,564,l),
(609,715,l),
(43,715,l),
(43,540,l),
(345,540,l),
(32,153,l),
(32,0,l)
);
}
);
};
layerId = "42F8977D-8264-44FF-8A66-A72BD7D3E619";
shapes = (
{
closed = 1;
nodes = (
(619,0,l),
(619,176,l),
(296,176,l),
(609,564,l),
(609,716,l),
(43,716,l),
(43,540,l),
(345,540,l),
(32,153,l),
(32,0,l)
);
}
);
width = 651;
},
{
anchors = (
{
name = bottom;
pos = (292,0);
},
{
name = center;
pos = (287,358);
},
{
name = top;
pos = (292,716);
}
);
background = {
shapes = (
{
closed = 1;
nodes = (
(531,0,l),
(531,32,l),
(90,32,l),
(521,684,l),
(521,715,l),
(62,715,l),
(62,684,l),
(482,684,l),
(51,32,l),
(51,0,l)
);
}
);
};
layerId = "1750929F-40DF-47FF-8B11-7621AD6711F1";
shapes = (
{
closed = 1;
nodes = (
(532,0,l),
(532,32,l),
(91,32,l),
(522,684,l),
(522,716,l),
(63,716,l),
(63,684,l),
(483,684,l),
(52,32,l),
(52,0,l)
);
}
);
width = 584;
},
{
anchors = (
{
name = bottom;
pos = (302,0);
},
{
name = center;
pos = (297,358);
},
{
name = top;
pos = (302,716);
}
);
layerId = "502A2428-35F6-4863-AD44-5AC44627310C";
shapes = (
{
closed = 1;
nodes = (
(558,0,l),
(558,74,l),
(146,74,l),
(547,651,l),
(547,716,l),
(57,716,l),
(57,642,l),
(446,642,l),
(47,66,l),
(47,0,l)
);
}
);
width = 605;
}
);
metricRight = "=|";
unicode = 90;
}
{
glyphname = bracketleft;
kernLeft = bracketleft;
kernRight = bracketleft;
layers = (
{
background = {
shapes = (
{
closed = 1;
nodes = (
(378,-270,l),
(378,-120,l),
(231,-120,l),
(231,641,l),
(378,641,l),
(378,791,l),
(60,791,l),
(60,-270,l)
);
}
);
};
layerId = "42F8977D-8264-44FF-8A66-A72BD7D3E619";
shapes = (
{
closed = 1;
nodes = (
(378,-195,l),
(378,-45,l),
(231,-45,l),
(231,642,l),
(378,642,l),
(378,792,l),
(60,792,l),
(60,-195,l)
);
}
);
width = 411;
},
{
background = {
shapes = (
{
closed = 1;
nodes = (
(323,-270,l),
(323,-237,l),
(137,-237,l),
(137,758,l),
(323,758,l),
(323,791,l),
(103,791,l),
(103,-270,l)
);
}
);
};
layerId = "1750929F-40DF-47FF-8B11-7621AD6711F1";
shapes = (
{
closed = 1;
nodes = (
(313,-195,l),
(313,-163,l),
(127,-163,l),
(127,716,l),
(313,716,l),
(313,748,l),
(93,748,l),
(93,-195,l)
);
}
);
width = 381;
},
{
layerId = "502A2428-35F6-4863-AD44-5AC44627310C";
shapes = (
{
closed = 1;
nodes = (
(328,-195,l),
(328,-129,l),
(153,-129,l),
(153,716,l),
(328,716,l),
(328,782,l),
(80,782,l),
(80,-195,l)
);
}
);
width = 382;
}
);
unicode = 91;
}
{
glyphname = backslash;
kernLeft = backslash;
kernRight = backslash;
layers = (
{
background = {
shapes = (
{
closed = 1;
nodes = (
(411,0,l),
(178,715,l),
(6,715,l),
(241,0,l)
);
}
);
};
layerId = "42F8977D-8264-44FF-8A66-A72BD7D3E619";
shapes = (
{
closed = 1;
nodes = (
(411,0,l),
(178,716,l),
(6,716,l),
(241,0,l)
);
}
);
width = 418;
},
{
background = {
shapes = (
{
closed = 1;
nodes = (
(294,0,l),
(60,715,l),
(26,715,l),
(259,0,l)
);
}
);
};
layerId = "1750929F-40DF-47FF-8B11-7621AD6711F1";
shapes = (
{
closed = 1;
nodes = (
(284,0,l),
(50,716,l),
(15,716,l),
(249,0,l)
);
}
);
width = 299;
},
{
layerId = "502A2428-35F6-4863-AD44-5AC44627310C";
shapes = (
{
closed = 1;
nodes = (
(316,0,l),
(82,716,l),
(9,716,l),
(243,0,l)
);
}
);
width = 325;
}
);
unicode = 92;
}
{
glyphname = bracketright;
kernLeft = bracketright;
kernRight = bracketright;
layers = (
{
background = {
shapes = (
{
closed = 1;
nodes = (
(351,-270,l),
(351,791,l),
(35,791,l),
(35,641,l),
(180,641,l),
(180,-120,l),
(35,-120,l),
(35,-270,l)
);
}
);
};
layerId = "42F8977D-8264-44FF-8A66-A72BD7D3E619";
shapes = (
{
closed = 1;
nodes = (
(351,-195,l),
(351,792,l),
(35,792,l),
(35,642,l),
(180,642,l),
(180,-45,l),
(35,-45,l),
(35,-195,l)
);
}
);
width = 411;
},
{
background = {
shapes = (
{
closed = 1;
nodes = (
(298,-270,l),
(298,791,l),
(77,791,l),
(77,758,l),
(264,758,l),
(264,-237,l),
(77,-237,l),
(77,-270,l)
);
}
);
};
layerId = "1750929F-40DF-47FF-8B11-7621AD6711F1";
shapes = (
{
closed = 1;
nodes = (
(288,-195,l),
(288,749,l),
(67,749,l),
(67,716,l),
(254,716,l),
(254,-163,l),
(67,-163,l),
(67,-195,l)
);
}
);
width = 381;
},
{
layerId = "502A2428-35F6-4863-AD44-5AC44627310C";
shapes = (
{
closed = 1;
nodes = (
(302,-195,l),
(302,783,l),
(53,783,l),
(53,716,l),
(228,716,l),
(228,-129,l),
(53,-129,l),
(53,-195,l)
);
}
);
width = 382;
}
);
unicode = 93;
}
{
glyphname = asciicircum;
layers = (
{
background = {
shapes = (
{
closed = 1;
nodes = (
(234,266,l),
(312,542,l),
(389,266,l),
(559,266,l),
(407,715,l),
(217,715,l),
(66,266,l)
);
}
);
};
layerId = "42F8977D-8264-44FF-8A66-A72BD7D3E619";
shapes = (
{
closed = 1;
nodes = (
(234,266,l),
(312,544,l),
(389,266,l),
(559,266,l),
(407,716,l),
(217,716,l),
(66,266,l)
);
}
);
width = 623;
},
{
background = {
shapes = (
{
closed = 1;
nodes = (
(173,373,l),
(312,680,l),
(451,373,l),
(485,373,l),
(327,715,l),
(297,715,l),
(138,373,l)
);
}
);
};
layerId = "1750929F-40DF-47FF-8B11-7621AD6711F1";
shapes = (
{
closed = 1;
nodes = (
(163,373,l),
(302,681,l),
(441,373,l),
(475,373,l),
(316,716,l),
(287,716,l),
(128,373,l)
);
}
);
width = 603;
},
{
layerId = "502A2428-35F6-4863-AD44-5AC44627310C";
shapes = (
{
closed = 1;
nodes = (
(178,343,l),
(299,642,l),
(421,343,l),
(492,343,l),
(337,716,l),
(261,716,l),
(104,343,l)
);
}
);
width = 597;
}
);
unicode = 94;
}
{
glyphname = underscore;
kernLeft = underscore;
kernRight = underscore;
layers = (
{
background = {
shapes = (
{
closed = 1;
nodes = (
(558,-172,l),
(558,-43,l),
(0,-43,l),
(0,-172,l)
);
}
);
};
layerId = "42F8977D-8264-44FF-8A66-A72BD7D3E619";
shapes = (
{
closed = 1;
nodes = (
(558,-172,l),
(558,-43,l),
(0,-43,l),
(0,-172,l)
);
}
);
width = 558;
},
{
background = {
shapes = (
{
closed = 1;
nodes = (
(472,-79,l),
(472,-49,l),
(0,-49,l),
(0,-79,l)
);
}
);
};
layerId = "1750929F-40DF-47FF-8B11-7621AD6711F1";
shapes = (
{
closed = 1;
nodes = (
(462,-79,l),
(462,-49,l),
(-10,-49,l),
(-10,-79,l)
);
}
);
width = 451;
},
{
layerId = "502A2428-35F6-4863-AD44-5AC44627310C";
shapes = (
{
closed = 1;
nodes = (
(484,-105,l),
(484,-47,l),
(-11,-47,l),
(-11,-105,l)
);
}
);
width = 473;
}
);
unicode = 95;
}
{
glyphname = grave;
layers = (
{
background = {
shapes = (
{
closed = 1;
nodes = (
(429,572,l),
(364,746,l),
(178,746,l),
(300,572,l)
);
}
);
};
layerId = "42F8977D-8264-44FF-8A66-A72BD7D3E619";
shapes = (
{
ref = gravecomb;
}
);
width = 643;
},
{
background = {
shapes = (
{
closed = 1;
nodes = (
(378,594,l),
(291,746,l),
(252,746,l),
(351,594,l)
);
}
);
};
layerId = "1750929F-40DF-47FF-8B11-7621AD6711F1";
shapes = (
{
ref = gravecomb;
}
);
width = 622;
},
{
layerId = "502A2428-35F6-4863-AD44-5AC44627310C";
shapes = (
{
alignment = -1;
ref = gravecomb;
}
);
width = 620;
}
);
unicode = 96;
}
{
glyphname = a;
kernLeft = a;
kernRight = a;
layers = (
{
anchors = (
{
name = bottom;
pos = (294,0);
},
{
name = ogonek;
pos = (545,0);
},
{
name = top;
pos = (294,504);
}
);
background = {
shapes = (
{
closed = 1;
nodes = (
(279,-10,o),
(319,2,o),
(362,42,c),
(362,0,l),
(545,0,l),
(545,306,ls),
(545,451,o),
(451,515,o),
(282,515,cs),
(211,515,o),
(134,496,o),
(58,450,c),
(114,316,l),
(181,347,o),
(225,359,o),
(267,359,cs),
(301,359,o),
(335,347,o),
(346,314,c),
(203,297,ls),
(105,286,o),
(21,250,o),
(21,143,cs),
(21,38,o),
(105,-10,o),
(203,-10,cs)
);
},
{
closed = 1;
nodes = (
(233,130,o),
(217,138,o),
(217,157,cs),
(217,175,o),
(233,185,o),
(269,190,cs),
(351,203,l),
(351,192,ls),
(351,159,o),
(316,130,o),
(269,130,cs)
);
}
);
};
layerId = "42F8977D-8264-44FF-8A66-A72BD7D3E619";
shapes = (
{
closed = 1;
nodes = (
(279,-10,o),
(319,2,o),
(362,42,c),
(362,0,l),
(545,0,l),
(545,306,ls),
(545,451,o),
(451,514,o),
(282,514,cs),
(211,514,o),
(134,496,o),
(58,450,c),
(114,316,l),
(181,347,o),
(225,358,o),
(267,358,cs),
(301,358,o),
(335,347,o),
(346,314,c),
(203,297,ls),
(105,285,o),
(28,250,o),
(28,143,cs),
(28,38,o),
(105,-10,o),
(203,-10,cs)
);
},
{
closed = 1;
nodes = (
(237,130,o),
(223,138,o),
(223,157,cs),
(223,175,o),
(233,185,o),
(269,190,cs),
(351,203,l),
(351,192,ls),
(351,159,o),
(318,130,o),
(271,130,cs)
);
}
);
width = 594;
},
{
anchors = (
{
name = bottom;
pos = (284,0);
},
{
name = ogonek;
pos = (481,0);
},
{
name = top;
pos = (284,504);
}
);
background = {
shapes = (
{
closed = 1;
nodes = (
(346,-10,o),
(417,27,o),
(459,103,c),
(459,0,l),
(491,0,l),
(491,306,ls),
(491,440,o),
(420,515,o),
(277,515,cs),
(204,515,o),
(142,482,o),
(100,439,c),
(120,415,l),
(175,463,o),
(217,484,o),
(277,484,cs),
(396,484,o),
(458,426,o),
(459,309,c),
(257,282,ls),
(134,267,o),
(64,226,o),
(64,137,cs),
(64,48,o),
(133,-10,o),
(257,-10,cs)
);
},
{
closed = 1;
nodes = (
(155,19,o),
(98,66,o),
(98,137,cs),
(98,209,o),
(156,241,o),
(257,253,cs),
(459,278,l),
(459,206,ls),
(459,116,o),
(386,19,o),
(257,19,cs)
);
}
);
};
layerId = "1750929F-40DF-47FF-8B11-7621AD6711F1";
shapes = (
{
closed = 1;
nodes = (
(336,-10,o),
(406,27,o),
(448,103,c),
(448,0,l),
(480,0,l),
(480,306,ls),
(480,440,o),
(409,514,o),
(267,514,cs),
(193,514,o),
(132,482,o),
(90,439,c),
(110,415,l),
(165,463,o),
(207,482,o),
(267,482,cs),
(386,482,o),
(447,426,o),
(448,309,c),
(247,282,ls),
(124,265,o),
(60,226,o),
(60,137,cs),
(60,48,o),
(123,-10,o),
(247,-10,cs)
);
},
{
closed = 1;
nodes = (
(144,22,o),
(95,66,o),
(95,137,cs),
(95,209,o),
(145,240,o),
(247,253,cs),
(448,278,l),
(448,206,ls),
(448,116,o),
(376,22,o),
(247,22,cs)
);
}
);
width = 572;
},
{
anchors = (
{
name = bottom;
pos = (290,0);
},
{
name = ogonek;
pos = (502,0);
},
{
name = top;
pos = (290,504);
}
);
layerId = "502A2428-35F6-4863-AD44-5AC44627310C";
shapes = (
{
closed = 1;
nodes = (
(321,-10,o),
(389,19,o),
(427,82,c),
(427,0,l),
(502,0,l),
(502,306,ls),
(502,443,o),
(425,514,o),
(275,514,cs),
(202,514,o),
(135,485,o),
(84,442,c),
(117,383,l),
(173,425,o),
(225,446,o),
(275,446,cs),
(360,446,o),
(416,404,o),
(424,316,c),
(238,293,ls),
(122,279,o),
(53,232,o),
(53,139,cs),
(53,46,o),
(124,-10,o),
(238,-10,cs)
);
},
{
closed = 1;
nodes = (
(176,58,o),
(133,89,o),
(133,140,cs),
(133,199,o),
(173,220,o),
(257,230,cs),
(425,251,l),
(425,219,ls),
(425,134,o),
(363,58,o),
(251,58,cs)
);
}
);
width = 584;
}
);
unicode = 97;
}
{
glyphname = b;
kernLeft = h;
kernRight = b;
layers = (
{
anchors = (
{
name = bottom;
pos = (321,0);
},
{
name = center;
pos = (321,252);
},
{
name = top;
pos = (321,504);
}
);
background = {
shapes = (
{
closed = 1;
nodes = (
(508,-10,o),
(615,86,o),
(615,252,cs),
(615,418,o),
(508,515,o),
(374,515,cs),
(317,515,o),
(272,496,o),
(243,466,c),
(243,715,l),
(49,715,l),
(49,0,l),
(231,0,l),
(231,49,l),
(263,12,o),
(310,-10,o),
(374,-10,cs)
);
},
{
closed = 1;
nodes = (
(272,155,o),
(233,191,o),
(233,252,cs),
(233,312,o),
(272,349,o),
(327,349,cs),
(382,349,o),
(420,312,o),
(420,252,cs),
(420,191,o),
(382,155,o),
(327,155,cs)
);
}
);
};
layerId = "42F8977D-8264-44FF-8A66-A72BD7D3E619";
shapes = (
{
closed = 1;
nodes = (
(508,-10,o),
(615,86,o),
(615,252,cs),
(615,418,o),
(508,514,o),
(374,514,cs),
(317,514,o),
(272,496,o),
(243,466,c),
(243,716,l),
(49,716,l),
(49,0,l),
(231,0,l),
(231,49,l),
(263,12,o),
(310,-10,o),
(374,-10,cs)
);
},
{
closed = 1;
nodes = (
(272,156,o),
(233,191,o),
(233,252,cs),
(233,312,o),
(272,348,o),
(327,348,cs),
(382,348,o),
(419,312,o),
(419,252,cs),
(419,191,o),
(382,156,o),
(327,156,cs)
);
}
);
width = 643;
},
{
anchors = (
{
name = bottom;
pos = (316,0);
},
{
name = center;
pos = (316,252);
},
{
name = top;
pos = (316,504);
}
);
background = {
shapes = (
{
closed = 1;
nodes = (
(483,-10,o),
(583,91,o),
(583,252,cs),
(583,412,o),
(483,515,o),
(342,515,cs),
(244,515,o),
(165,464,o),
(135,383,c),
(135,715,l),
(103,715,l),
(103,0,l),
(135,0,l),
(135,121,l),
(165,40,o),
(244,-10,o),
(342,-10,cs)
);
},
{
closed = 1;
nodes = (
(222,19,o),
(135,107,o),
(135,252,cs),
(135,396,o),
(222,484,o),
(342,484,cs),
(462,484,o),
(549,396,o),
(549,252,cs),
(549,107,o),
(462,19,o),
(342,19,cs)
);
}
);
};
layerId = "1750929F-40DF-47FF-8B11-7621AD6711F1";
shapes = (
{
closed = 1;
nodes = (
(473,-10,o),
(573,91,o),
(573,252,cs),
(573,412,o),
(473,514,o),
(332,514,cs),
(233,514,o),
(155,464,o),
(125,383,c),
(125,716,l),
(93,716,l),
(93,0,l),
(125,0,l),
(125,121,l),
(155,40,o),
(233,-10,o),
(332,-10,cs)
);
},
{
closed = 1;
nodes = (
(212,21,o),
(125,107,o),
(125,252,cs),
(125,396,o),
(212,483,o),
(332,483,cs),
(451,483,o),
(538,396,o),
(538,252,cs),
(538,107,o),
(451,21,o),
(332,21,cs)
);
}
);
width = 634;
},
{
anchors = (
{
name = bottom;
pos = (314,0);
},
{
name = center;
pos = (314,252);
},
{
name = top;
pos = (314,504);
}
);
layerId = "502A2428-35F6-4863-AD44-5AC44627310C";
shapes = (
{
closed = 1;
nodes = (
(480,-10,o),
(580,90,o),
(580,252,cs),
(580,414,o),
(480,514,o),
(340,514,cs),
(255,514,o),
(187,477,o),
(155,418,c),
(155,716,l),
(77,716,l),
(77,0,l),
(151,0,l),
(151,91,l),
(182,30,o),
(252,-10,o),
(340,-10,cs)
);
},
{
closed = 1;
nodes = (
(224,58,o),
(151,131,o),
(151,252,cs),
(151,373,o),
(224,446,o),
(327,446,cs),
(428,446,o),
(500,373,o),
(500,252,cs),
(500,131,o),
(428,58,o),
(327,58,cs)
);
}
);
width = 629;
}
);
metricLeft = h;
unicode = 98;
}
{
glyphname = c;
kernLeft = c;
kernRight = c;
layers = (
{
anchors = (
{
name = bottom;
pos = (286,0);
},
{
name = top;
pos = (302,504);
}
);
background = {
shapes = (
{
closed = 1;
nodes = (
(389,-10,o),
(447,6,o),
(506,45,c),
(442,188,l),
(394,164,o),
(360,155,o),
(316,155,cs),
(261,155,o),
(223,190,o),
(223,252,cs),
(223,313,o),
(261,349,o),
(316,349,cs),
(360,349,o),
(394,340,o),
(442,315,c),
(506,459,l),
(447,497,o),
(389,515,o),
(316,515,cs),
(149,515,o),
(28,408,o),
(28,252,cs),
(28,94,o),
(149,-10,o),
(316,-10,cs)
);
}
);
};
layerId = "42F8977D-8264-44FF-8A66-A72BD7D3E619";
shapes = (
{
closed = 1;
nodes = (
(389,-10,o),
(447,6,o),
(506,45,c),
(442,188,l),
(394,164,o),
(360,156,o),
(316,156,cs),
(261,156,o),
(224,190,o),
(224,252,cs),
(224,313,o),
(261,349,o),
(316,349,cs),
(360,349,o),
(394,340,o),
(442,315,c),
(506,459,l),
(447,497,o),
(389,515,o),
(316,515,cs),
(149,515,o),
(28,408,o),
(28,252,cs),
(28,94,o),
(149,-10,o),
(316,-10,cs)
);
}
);
width = 527;
},
{
anchors = (
{
name = bottom;
pos = (289,0);
},
{
name = top;
pos = (298,504);
}
);
background = {
shapes = (
{
closed = 1;
nodes = (
(390,-10,o),
(448,14,o),
(489,55,c),
(472,79,l),
(429,40,o),
(378,19,o),
(317,19,cs),
(192,19,o),
(106,107,o),
(106,252,cs),
(106,396,o),
(192,484,o),
(317,484,cs),
(378,484,o),
(429,464,o),
(472,425,c),
(489,448,l),
(448,490,o),
(390,515,o),
(317,515,cs),
(171,515,o),
(72,412,o),
(72,252,cs),
(72,91,o),
(171,-10,o),
(317,-10,cs)
);
}
);
};
layerId = "1750929F-40DF-47FF-8B11-7621AD6711F1";
shapes = (
{
closed = 1;
nodes = (
(380,-10,o),
(438,14,o),
(479,55,c),
(462,79,l),
(419,40,o),
(367,21,o),
(307,21,cs),
(182,21,o),
(96,107,o),
(96,252,cs),
(96,396,o),
(182,483,o),
(307,483,cs),
(367,483,o),
(419,464,o),
(462,425,c),
(479,448,l),
(438,490,o),
(380,514,o),
(307,514,cs),
(161,514,o),
(61,412,o),
(61,252,cs),
(61,91,o),
(161,-10,o),
(307,-10,cs)
);
}
);
width = 533;
},
{
anchors = (
{
name = bottom;
pos = (286,0);
},
{
name = top;
pos = (295,504);
}
);
layerId = "502A2428-35F6-4863-AD44-5AC44627310C";
shapes = (
{
closed = 1;
nodes = (
(380,-10,o),
(439,12,o),
(484,52,c),
(453,111,l),
(407,75,o),
(356,58,o),
(307,58,cs),
(201,58,o),
(129,131,o),
(129,252,cs),
(129,373,o),
(201,446,o),
(307,446,cs),
(356,446,o),
(407,429,o),
(453,392,c),
(484,450,l),
(439,491,o),
(380,514,o),
(307,514,cs),
(155,514,o),
(49,410,o),
(49,252,cs),
(49,93,o),
(155,-10,o),
(307,-10,cs)
);
}
);
width = 525;
}
);
metricLeft = "=|b";
unicode = 99;
}
{
glyphname = d;
kernLeft = c;
kernRight = H;
layers = (
{
anchors = (
{
name = bottom;
pos = (321,0);
},
{
name = center;
pos = (321,252);
},
{
name = top;
pos = (321,502);
},
{
name = topright;
pos = (594,716);
}
);
background = {
shapes = (
{
closed = 1;
nodes = (
(334,-10,o),
(381,12,o),
(411,49,c),
(411,0,l),
(594,0,l),
(594,715,l),
(401,715,l),
(401,466,l),
(371,496,o),
(325,515,o),
(269,515,cs),
(135,515,o),
(28,418,o),
(28,252,cs),
(28,86,o),
(135,-10,o),
(269,-10,cs)
);
},
{
closed = 1;
nodes = (
(261,155,o),
(223,191,o),
(223,252,cs),
(223,312,o),
(261,349,o),
(316,349,cs),
(371,349,o),
(409,312,o),
(409,252,cs),
(409,191,o),
(371,155,o),
(316,155,cs)
);
}
);
};
layerId = "42F8977D-8264-44FF-8A66-A72BD7D3E619";
shapes = (
{
closed = 1;
nodes = (
(334,-10,o),
(381,12,o),
(411,49,c),
(411,0,l),
(595,0,l),
(595,716,l),
(401,716,l),
(401,466,l),
(371,496,o),
(325,514,o),
(269,514,cs),
(135,514,o),
(28,418,o),
(28,252,cs),
(28,86,o),
(135,-10,o),
(269,-10,cs)
);
},
{
closed = 1;
nodes = (
(261,155,o),
(222,191,o),
(222,252,cs),
(222,312,o),
(261,349,o),
(316,349,cs),
(371,349,o),
(409,312,o),
(409,252,cs),
(409,191,o),
(371,155,o),
(316,155,cs)
);
}
);
width = 644;
},
{
anchors = (
{
name = bottom;
pos = (317,0);
},
{
name = center;
pos = (317,252);
},
{
name = top;
pos = (317,504);
},
{
name = topright;
pos = (541,716);
}
);
background = {
shapes = (
{
closed = 1;
nodes = (
(411,-10,o),
(489,40,o),
(520,121,c),
(520,0,l),
(552,0,l),
(552,715,l),
(520,715,l),
(520,383,l),
(489,464,o),
(411,515,o),
(313,515,cs),
(171,515,o),
(72,412,o),
(72,252,cs),
(72,91,o),
(171,-10,o),
(313,-10,cs)
);
},
{
closed = 1;
nodes = (
(192,19,o),
(106,107,o),
(106,252,cs),
(106,396,o),
(192,484,o),
(313,484,cs),
(433,484,o),
(520,396,o),
(520,252,cs),
(520,107,o),
(433,19,o),
(313,19,cs)
);
}
);
};
layerId = "1750929F-40DF-47FF-8B11-7621AD6711F1";
shapes = (
{
closed = 1;
nodes = (
(401,-10,o),
(479,40,o),
(510,121,c),
(510,0,l),
(542,0,l),
(542,716,l),
(510,716,l),
(510,383,l),
(479,464,o),
(401,514,o),
(303,514,cs),
(161,514,o),
(61,412,o),
(61,252,cs),
(61,91,o),
(161,-10,o),
(303,-10,cs)
);
},
{
closed = 1;
nodes = (
(182,21,o),
(96,107,o),
(96,252,cs),
(96,396,o),
(182,483,o),
(303,483,cs),
(423,483,o),
(510,396,o),
(510,252,cs),
(510,107,o),
(423,21,o),
(303,21,cs)
);
}
);
width = 635;
},
{
anchors = (
{
name = bottom;
pos = (316,0);
},
{
name = center;
pos = (316,252);
},
{
name = top;
pos = (316,504);
},
{
name = topright;
pos = (555,716);
}
);
layerId = "502A2428-35F6-4863-AD44-5AC44627310C";
shapes = (
{
closed = 1;
nodes = (
(379,-10,o),
(448,30,o),
(479,91,c),
(479,0,l),
(555,0,l),
(555,716,l),
(477,716,l),
(477,418,l),
(444,477,o),
(377,514,o),
(291,514,cs),
(151,514,o),
(49,414,o),
(49,252,cs),
(49,90,o),
(151,-10,o),
(291,-10,cs)
);
},
{
closed = 1;
nodes = (
(202,58,o),
(129,131,o),
(129,252,cs),
(129,373,o),
(202,446,o),
(305,446,cs),
(406,446,o),
(479,373,o),
(479,252,cs),
(479,131,o),
(406,58,o),
(305,58,cs)
);
}
);
width = 632;
}
);
metricLeft = "=|b";
metricRight = "=|b";
unicode = 100;
}
{
glyphname = e;
kernLeft = c;
kernRight = e;
layers = (
{
anchors = (
{
name = bottom;
pos = (300,0);
},
{
name = ogonek;
pos = (423,0);
},
{
name = top;
pos = (300,504);
}
);
background = {
shapes = (
{
closed = 1;
nodes = (
(407,-10,o),
(486,10,o),
(551,52,c),
(498,181,l),
(454,159,o),
(402,140,o),
(347,140,cs),
(275,140,o),
(232,161,o),
(223,205,c),
(552,205,l),
(564,229,o),
(572,265,o),
(572,294,cs),
(572,426,o),
(461,515,o),
(305,515,cs),
(149,515,o),
(28,412,o),
(28,252,cs),
(28,71,o),
(167,-10,o),
(325,-10,cs)
);
},
{
closed = 1;
nodes = (
(230,348,o),
(259,374,o),
(310,374,cs),
(356,374,o),
(378,354,o),
(378,329,cs),
(378,325,o),
(377,322,o),
(375,318,c),
(223,318,l)
);
}
);
};
layerId = "42F8977D-8264-44FF-8A66-A72BD7D3E619";
shapes = (
{
closed = 1;
nodes = (
(407,-10,o),
(486,10,o),
(551,52,c),
(498,181,l),
(454,159,o),
(402,140,o),
(347,140,cs),
(275,140,o),
(232,161,o),
(223,205,c),
(552,205,l),
(564,229,o),
(572,265,o),
(572,294,cs),
(572,426,o),
(461,514,o),
(305,514,cs),
(149,514,o),
(28,412,o),
(28,252,cs),
(28,71,o),
(167,-10,o),
(325,-10,cs)
);
},
{
closed = 1;
nodes = (
(230,348,o),
(259,374,o),
(310,374,cs),
(356,374,o),
(378,354,o),
(378,329,cs),
(378,325,o),
(377,322,o),
(375,318,c),
(223,318,l)
);
}
);
width = 600;
},
{
anchors = (
{
name = bottom;
pos = (291,0);
},
{
name = ogonek;
pos = (391,0);
},
{
name = top;
pos = (299,504);
}
);
background = {
shapes = (
{
closed = 1;
nodes = (
(400,-10,o),
(459,13,o),
(509,63,c),
(489,88,l),
(441,42,o),
(390,19,o),
(317,19,cs),
(195,19,o),
(106,105,o),
(106,247,c),
(519,247,l),
(524,258,o),
(530,277,o),
(530,298,cs),
(530,415,o),
(449,515,o),
(306,515,cs),
(174,515,o),
(72,412,o),
(72,252,cs),
(72,91,o),
(171,-10,o),
(317,-10,cs)
);
},
{
closed = 1;
nodes = (
(115,408,o),
(204,484,o),
(306,484,cs),
(427,484,o),
(496,403,o),
(496,298,cs),
(496,291,o),
(496,281,o),
(493,276,c),
(106,276,l)
);
}
);
};
layerId = "1750929F-40DF-47FF-8B11-7621AD6711F1";
shapes = (
{
closed = 1;
nodes = (
(390,-10,o),
(448,13,o),
(498,63,c),
(479,88,l),
(431,42,o),
(380,21,o),
(307,21,cs),
(185,21,o),
(96,104,o),
(96,246,c),
(509,246,l),
(514,257,o),
(520,277,o),
(520,298,cs),
(520,415,o),
(439,514,o),
(296,514,cs),
(164,514,o),
(61,412,o),
(61,252,cs),
(61,91,o),
(161,-10,o),
(307,-10,cs)
);
},
{
closed = 1;
nodes = (
(104,408,o),
(193,483,o),
(296,483,cs),
(417,483,o),
(485,403,o),
(485,298,cs),
(485,291,o),
(485,281,o),
(482,276,c),
(96,276,l)
);
}
);
width = 581;
},
{
anchors = (
{
name = bottom;
pos = (291,0);
},
{
name = ogonek;
pos = (396,0);
},
{
name = top;
pos = (292,504);
}
);
layerId = "502A2428-35F6-4863-AD44-5AC44627310C";
shapes = (
{
closed = 1;
nodes = (
(391,-10,o),
(458,13,o),
(512,61,c),
(479,120,l),
(432,80,o),
(384,58,o),
(315,58,cs),
(209,58,o),
(137,118,o),
(129,228,c),
(517,228,l),
(526,245,o),
(533,275,o),
(533,297,cs),
(533,419,o),
(443,514,o),
(296,514,cs),
(157,514,o),
(49,412,o),
(49,252,cs),
(49,86,o),
(159,-10,o),
(310,-10,cs)
);
},
{
closed = 1;
nodes = (
(145,392,o),
(217,446,o),
(299,446,cs),
(401,446,o),
(453,390,o),
(453,308,cs),
(453,302,o),
(453,298,o),
(451,296,c),
(129,296,l)
);
}
);
width = 582;
}
);
metricLeft = c;
metricRight = "=|";
unicode = 101;
}
{
glyphname = f;
kernLeft = f;
kernRight = f;
layers = (
{
anchors = (
{
name = bottom;
pos = (207,0);
},
{
name = top;
pos = (219,716);
}
);
background = {
shapes = (
{
closed = 1;
nodes = (
(304,0,l),
(304,349,l),
(420,349,l),
(420,504,l),
(304,504,l),
(304,524,ls),
(304,550,o),
(317,568,o),
(355,568,cs),
(373,568,o),
(403,567,o),
(420,564,c),
(420,709,l),
(391,718,o),
(349,723,o),
(308,723,cs),
(167,723,o),
(112,663,o),
(112,544,cs),
(112,504,l),
(17,504,l),
(17,349,l),
(112,349,l),
(112,0,l)
);
}
);
};
layerId = "42F8977D-8264-44FF-8A66-A72BD7D3E619";
shapes = (
{
closed = 1;
nodes = (
(305,0,l),
(305,349,l),
(420,349,l),
(420,504,l),
(305,504,l),
(305,528,ls),
(305,554,o),
(317,569,o),
(355,569,cs),
(373,569,o),
(403,568,o),
(420,565,c),
(420,713,l),
(391,722,o),
(349,726,o),
(308,726,cs),
(167,726,o),
(111,667,o),
(111,548,cs),
(111,504,l),
(17,504,l),
(17,349,l),
(111,349,l),
(111,0,l)
);
}
);
width = 437;
},
{
anchors = (
{
name = bottom;
pos = (161,0);
},
{
name = top;
pos = (170,716);
}
);
layerId = "1750929F-40DF-47FF-8B11-7621AD6711F1";
shapes = (
{
closed = 1;
nodes = (
(175,0,l),
(175,474,l),
(317,474,l),
(317,504,l),
(175,504,l),
(175,592,ls),
(175,661,o),
(209,693,o),
(268,693,cs),
(286,693,o),
(306,692,o),
(317,689,c),
(317,716,l),
(306,722,o),
(286,724,o),
(268,724,cs),
(188,724,o),
(143,682,o),
(143,592,cs),
(143,504,l),
(21,504,l),
(21,474,l),
(143,474,l),
(143,0,l)
);
}
);
width = 338;
},
{
anchors = (
{
name = bottom;
pos = (170,0);
},
{
name = top;
pos = (179,716);
}
);
layerId = "502A2428-35F6-4863-AD44-5AC44627310C";
shapes = (
{
closed = 1;
nodes = (
(208,0,l),
(208,436,l),
(343,436,l),
(343,504,l),
(208,504,l),
(208,574,ls),
(208,629,o),
(235,658,o),
(289,658,cs),
(306,658,o),
(330,657,o),
(343,653,c),
(343,716,l),
(328,723,o),
(300,726,o),
(275,726,cs),
(179,726,o),
(130,680,o),
(130,579,cs),
(130,504,l),
(16,504,l),
(16,436,l),
(130,436,l),
(130,0,l)
);
}
);
width = 359;
}
);
metricRight = "=|";
unicode = 102;
}
{
glyphname = g;
kernLeft = c;
kernRight = g;
layers = (
{
anchors = (
{
name = bottom;
pos = (321,-268);
},
{
name = top;
pos = (321,504);
}
);
background = {
shapes = (
{
closed = 1;
nodes = (
(474,-206,o),
(594,-107,o),
(594,77,cs),
(594,504,l),
(411,504,l),
(411,454,l),
(381,492,o),
(334,515,o),
(269,515,cs),
(144,515,o),
(28,428,o),
(28,268,cs),
(28,108,o),
(144,21,o),
(269,21,cs),
(325,21,o),
(371,40,o),
(401,70,c),
(401,45,ls),
(401,-18,o),
(355,-47,o),
(282,-47,cs),
(232,-47,o),
(172,-31,o),
(103,6,c),
(47,-131,l),
(123,-182,o),
(201,-206,o),
(294,-206,cs)
);
},
{
closed = 1;
nodes = (
(259,176,o),
(223,211,o),
(223,268,cs),
(223,324,o),
(259,360,o),
(316,360,cs),
(373,360,o),
(409,324,o),
(409,268,cs),
(409,211,o),
(373,176,o),
(316,176,cs)
);
}
);
};
layerId = "42F8977D-8264-44FF-8A66-A72BD7D3E619";
shapes = (
{
closed = 1;
nodes = (
(474,-205,o),
(595,-107,o),
(595,77,cs),
(595,504,l),
(411,504,l),
(411,454,l),
(381,492,o),
(334,514,o),
(269,514,cs),
(144,514,o),
(28,428,o),
(28,268,cs),
(28,108,o),
(144,21,o),
(269,21,cs),
(325,21,o),
(371,40,o),
(401,70,c),
(401,45,ls),
(401,-18,o),
(355,-45,o),
(282,-45,cs),
(232,-45,o),
(172,-30,o),
(103,7,c),
(47,-131,l),
(123,-182,o),
(201,-205,o),
(294,-205,cs)
);
},
{
closed = 1;
nodes = (
(259,176,o),
(222,210,o),
(222,267,cs),
(222,323,o),
(259,359,o),
(316,359,cs),
(373,359,o),
(409,323,o),
(409,267,cs),
(409,210,o),
(373,176,o),
(316,176,cs)
);
}
);
width = 644;
},
{
anchors = (
{
name = bottom;
pos = (317,-268);
},
{
name = top;
pos = (317,504);
}
);
background = {
shapes = (
{
closed = 1;
nodes = (
(465,-206,o),
(552,-106,o),
(552,67,cs),
(552,504,l),
(520,504,l),
(520,395,l),
(485,470,o),
(412,515,o),
(313,515,cs),
(171,515,o),
(72,423,o),
(72,268,cs),
(72,114,o),
(171,21,o),
(313,21,cs),
(412,21,o),
(485,67,o),
(520,140,c),
(520,60,ls),
(520,-93,o),
(441,-176,o),
(305,-176,cs),
(242,-176,o),
(185,-157,o),
(121,-96,c),
(101,-120,l),
(162,-181,o),
(229,-206,o),
(305,-206,cs)
);
},
{
closed = 1;
nodes = (
(199,51,o),
(106,122,o),
(106,268,cs),
(106,414,o),
(199,484,o),
(313,484,cs),
(428,484,o),
(520,414,o),
(520,268,cs),
(520,122,o),
(428,51,o),
(313,51,cs)
);
}
);
};
layerId = "1750929F-40DF-47FF-8B11-7621AD6711F1";
shapes = (
{
closed = 1;
nodes = (
(454,-205,o),
(542,-106,o),
(542,67,cs),
(542,504,l),
(510,504,l),
(510,395,l),
(475,470,o),
(402,514,o),
(303,514,cs),
(161,514,o),
(61,423,o),
(61,268,cs),
(61,114,o),
(161,20,o),
(303,20,cs),
(402,20,o),
(475,67,o),
(510,140,c),
(510,60,ls),
(510,-93,o),
(431,-174,o),
(295,-174,cs),
(231,-174,o),
(175,-157,o),
(111,-96,c),
(91,-120,l),
(151,-181,o),
(219,-205,o),
(295,-205,cs)
);
},
{
closed = 1;
nodes = (
(188,51,o),
(96,122,o),
(96,268,cs),
(96,414,o),
(188,483,o),
(303,483,cs),
(418,483,o),
(510,414,o),
(510,268,cs),
(510,122,o),
(418,51,o),
(303,51,cs)
);
}
);
width = 635;
},
{
anchors = (
{
name = bottom;
pos = (316,-268);
},
{
name = top;
pos = (316,504);
}
);
layerId = "502A2428-35F6-4863-AD44-5AC44627310C";
shapes = (
{
closed = 1;
nodes = (
(458,-205,o),
(555,-107,o),
(555,70,cs),
(555,504,l),
(479,504,l),
(479,420,l),
(447,474,o),
(382,514,o),
(291,514,cs),
(158,514,o),
(49,425,o),
(49,268,cs),
(49,112,o),
(158,21,o),
(291,21,cs),
(380,21,o),
(443,59,o),
(477,113,c),
(477,57,ls),
(477,-70,o),
(407,-137,o),
(289,-137,cs),
(228,-137,o),
(172,-119,o),
(107,-66,c),
(77,-122,l),
(139,-182,o),
(212,-205,o),
(293,-205,cs)
);
},
{
closed = 1;
nodes = (
(211,89,o),
(129,150,o),
(129,268,cs),
(129,386,o),
(211,446,o),
(305,446,cs),
(400,446,o),
(478,386,o),
(478,268,cs),
(478,150,o),
(400,89,o),
(305,89,cs)
);
}
);
width = 632;
}
);
metricLeft = c;
metricRight = d;
unicode = 103;
}
{
glyphname = h;
kernLeft = h;
kernRight = h;
layers = (
{
anchors = (
{
name = bottom;
pos = (305,0);
},
{
name = center;
pos = (305,402);
},
{
name = top;
pos = (305,716);
}
);
background = {
shapes = (
{
closed = 1;
nodes = (
(243,0,l),
(243,265,ls),
(243,324,o),
(274,349,o),
(316,349,cs),
(351,349,o),
(368,325,o),
(368,287,cs),
(368,0,l),
(562,0,l),
(562,317,ls),
(562,451,o),
(491,515,o),
(380,515,cs),
(316,515,o),
(273,496,o),
(243,466,c),
(243,715,l),
(49,715,l),
(49,0,l)
);
}
);
};
layerId = "42F8977D-8264-44FF-8A66-A72BD7D3E619";
shapes = (
{
closed = 1;
nodes = (
(243,0,l),
(243,265,ls),
(243,324,o),
(274,349,o),
(316,349,cs),
(351,349,o),
(368,324,o),
(368,286,cs),
(368,0,l),
(562,0,l),
(562,317,ls),
(562,451,o),
(491,514,o),
(380,514,cs),
(316,514,o),
(273,496,o),
(243,466,c),
(243,716,l),
(49,716,l),
(49,0,l)
);
}
);
width = 608;
},
{
anchors = (
{
name = bottom;
pos = (295,0);
},
{
name = center;
pos = (295,402);
},
{
name = top;
pos = (295,716);
}
);
background = {
shapes = (
{
closed = 1;
nodes = (
(135,0,l),
(135,254,ls),
(135,392,o),
(199,484,o),
(321,484,cs),
(425,484,o),
(476,434,o),
(476,306,cs),
(476,0,l),
(508,0,l),
(508,306,ls),
(508,451,o),
(440,515,o),
(321,515,cs),
(231,515,o),
(165,469,o),
(135,392,c),
(135,715,l),
(103,715,l),
(103,0,l)
);
}
);
};
layerId = "1750929F-40DF-47FF-8B11-7621AD6711F1";
shapes = (
{
closed = 1;
nodes = (
(125,0,l),
(125,254,ls),
(125,392,o),
(188,483,o),
(311,483,cs),
(415,483,o),
(466,434,o),
(466,306,cs),
(466,0,l),
(498,0,l),
(498,306,ls),
(498,451,o),
(430,514,o),
(311,514,cs),
(221,514,o),
(155,469,o),
(125,392,c),
(125,716,l),
(93,716,l),
(93,0,l)
);
}
);
width = 586;
},
{
anchors = (
{
name = bottom;
pos = (294,0);
},
{
name = center;
pos = (294,402);
},
{
name = top;
pos = (294,716);
}
);
layerId = "502A2428-35F6-4863-AD44-5AC44627310C";
shapes = (
{
closed = 1;
nodes = (
(155,0,l),
(155,257,ls),
(155,373,o),
(210,446,o),
(308,446,cs),
(394,446,o),
(434,403,o),
(434,301,cs),
(434,0,l),
(512,0,l),
(512,309,ls),
(512,451,o),
(442,514,o),
(327,514,cs),
(244,514,o),
(185,480,o),
(155,424,c),
(155,716,l),
(77,716,l),
(77,0,l)
);
}
);
width = 584;
}
);
unicode = 104;
}
{
glyphname = i;
kernLeft = i;
kernRight = i;
layers = (
{
anchors = (
{
name = bottom;
pos = (145,0);
}
);
background = {
shapes = (
{
closed = 1;
nodes = (
(243,0,l),
(243,504,l),
(49,504,l),
(49,0,l)
);
},
{
closed = 1;
nodes = (
(211,558,o),
(253,599,o),
(253,659,cs),
(253,720,o),
(211,760,o),
(145,760,cs),
(81,760,o),
(39,720,o),
(39,659,cs),
(39,599,o),
(81,558,o),
(145,558,cs)
);
}
);
};
layerId = "42F8977D-8264-44FF-8A66-A72BD7D3E619";
shapes = (
{
closed = 1;
nodes = (
(243,0,l),
(243,504,l),
(49,504,l),
(49,0,l)
);
},
{
closed = 1;
nodes = (
(211,558,o),
(253,599,o),
(253,659,cs),
(253,720,o),
(211,760,o),
(145,760,cs),
(81,760,o),
(39,720,o),
(39,659,cs),
(39,599,o),
(81,558,o),
(145,558,cs)
);
}
);
width = 292;
},
{
anchors = (
{
name = bottom;
pos = (117,0);
}
);
background = {
shapes = (
{
closed = 1;
nodes = (
(143,0,l),
(143,504,l),
(112,504,l),
(112,0,l)
);
},
{
closed = 1;
nodes = (
(143,645,o),
(154,654,o),
(154,669,cs),
(154,686,o),
(143,695,o),
(127,695,cs),
(112,695,o),
(100,686,o),
(100,669,cs),
(100,654,o),
(112,645,o),
(127,645,cs)
);
}
);
};
layerId = "1750929F-40DF-47FF-8B11-7621AD6711F1";
shapes = (
{
closed = 1;
nodes = (
(133,0,l),
(133,504,l),
(101,504,l),
(101,0,l)
);
},
{
closed = 1;
nodes = (
(133,645,o),
(143,654,o),
(143,669,cs),
(143,686,o),
(133,695,o),
(117,695,cs),
(101,695,o),
(90,686,o),
(90,669,cs),
(90,654,o),
(101,645,o),
(117,645,cs)
);
}
);
width = 233;
},
{
anchors = (
{
name = bottom;
pos = (124,0);
}
);
layerId = "502A2428-35F6-4863-AD44-5AC44627310C";
shapes = (
{
closed = 1;
nodes = (
(163,0,l),
(163,504,l),
(85,504,l),
(85,0,l)
);
},
{
closed = 1;
nodes = (
(154,620,o),
(173,640,o),
(173,667,cs),
(173,695,o),
(154,713,o),
(124,713,cs),
(94,713,o),
(74,695,o),
(74,667,cs),
(74,640,o),
(94,620,o),
(124,620,cs)
);
}
);
width = 247;
}
);
metricRight = "=|";
unicode = 105;
}
{
glyphname = j;
kernLeft = j;
kernRight = j;
layers = (
{
background = {
shapes = (
{
closed = 1;
nodes = (
(187,-202,o),
(243,-143,o),
(243,-23,cs),
(243,504,l),
(49,504,l),
(49,-3,ls),
(49,-29,o),
(37,-47,o),
(-1,-47,cs),
(-15,-47,o),
(-27,-48,o),
(-45,-45,c),
(-45,-190,l),
(-16,-199,o),
(16,-202,o),
(47,-202,cs)
);
},
{
closed = 1;
nodes = (
(211,558,o),
(253,599,o),
(253,659,cs),
(253,720,o),
(211,760,o),
(145,760,cs),
(81,760,o),
(39,720,o),
(39,659,cs),
(39,599,o),
(81,558,o),
(145,558,cs)
);
}
);
};
layerId = "42F8977D-8264-44FF-8A66-A72BD7D3E619";
shapes = (
{
ref = jdotless;
},
{
closed = 1;
nodes = (
(211,558,o),
(253,599,o),
(253,659,cs),
(253,720,o),
(211,760,o),
(145,760,cs),
(81,760,o),
(39,720,o),
(39,659,cs),
(39,599,o),
(81,558,o),
(145,558,cs)
);
}
);
width = 292;
},
{
background = {
shapes = (
{
closed = 1;
nodes = (
(98,-202,o),
(143,-160,o),
(143,-70,cs),
(143,504,l),
(112,504,l),
(112,-70,ls),
(112,-139,o),
(78,-172,o),
(17,-172,cs),
(1,-172,o),
(-19,-170,o),
(-32,-167,c),
(-32,-195,l),
(-19,-200,o),
(1,-202,o),
(17,-202,cs)
);
},
{
closed = 1;
nodes = (
(143,645,o),
(154,654,o),
(154,669,cs),
(154,686,o),
(143,695,o),
(127,695,cs),
(112,695,o),
(100,686,o),
(100,669,cs),
(100,654,o),
(112,645,o),
(127,645,cs)
);
}
);
};
layerId = "1750929F-40DF-47FF-8B11-7621AD6711F1";
shapes = (
{
alignment = -1;
pos = (8,0);
ref = jdotless;
},
{
closed = 1;
nodes = (
(133,645,o),
(143,654,o),
(143,669,cs),
(143,686,o),
(133,695,o),
(117,695,cs),
(101,695,o),
(90,686,o),
(90,669,cs),
(90,654,o),
(101,645,o),
(117,645,cs)
);
}
);
width = 225;
},
{
layerId = "502A2428-35F6-4863-AD44-5AC44627310C";
shapes = (
{
alignment = -1;
pos = (8,0);
ref = jdotless;
},
{
closed = 1;
nodes = (
(154,620,o),
(173,640,o),
(173,667,cs),
(173,695,o),
(154,713,o),
(124,713,cs),
(94,713,o),
(74,695,o),
(74,667,cs),
(74,640,o),
(94,620,o),
(124,620,cs)
);
}
);
width = 238;
}
);
unicode = 106;
}
{
glyphname = k;
kernLeft = h;
kernRight = k;
layers = (
{
anchors = (
{
name = bottom;
pos = (304,0);
},
{
name = top;
pos = (304,716);
}
);
background = {
shapes = (
{
closed = 1;
nodes = (
(243,0,l),
(243,119,l),
(284,165,l),
(386,0,l),
(607,0,l),
(411,303,l),
(596,504,l),
(380,504,l),
(243,350,l),
(243,715,l),
(49,715,l),
(49,0,l)
);
}
);
};
layerId = "42F8977D-8264-44FF-8A66-A72BD7D3E619";
shapes = (
{
closed = 1;
nodes = (
(243,0,l),
(243,119,l),
(284,165,l),
(386,0,l),
(607,0,l),
(411,303,l),
(596,504,l),
(380,504,l),
(243,350,l),
(243,716,l),
(49,716,l),
(49,0,l)
);
}
);
width = 609;
},
{
anchors = (
{
name = bottom;
pos = (267,0);
},
{
name = top;
pos = (267,716);
}
);
background = {
shapes = (
{
closed = 1;
nodes = (
(135,0,l),
(135,176,l),
(247,275,l),
(470,0,l),
(510,0,l),
(269,296,l),
(499,504,l),
(459,504,l),
(135,210,l),
(135,715,l),
(103,715,l),
(103,0,l)
);
}
);
};
layerId = "1750929F-40DF-47FF-8B11-7621AD6711F1";
shapes = (
{
closed = 1;
nodes = (
(125,0,l),
(125,176,l),
(236,275,l),
(460,0,l),
(499,0,l),
(259,296,l),
(489,504,l),
(449,504,l),
(125,214,l),
(125,716,l),
(93,716,l),
(93,0,l)
);
}
);
width = 534;
},
{
anchors = (
{
name = bottom;
pos = (274,0);
},
{
name = top;
pos = (274,716);
}
);
layerId = "502A2428-35F6-4863-AD44-5AC44627310C";
shapes = (
{
closed = 1;
nodes = (
(155,0,l),
(155,159,l),
(244,244,l),
(431,0,l),
(527,0,l),
(299,297,l),
(516,504,l),
(420,504,l),
(155,248,l),
(155,716,l),
(77,716,l),
(77,0,l)
);
}
);
width = 548;
}
);
metricLeft = h;
unicode = 107;
}
{
glyphname = l;
kernLeft = h;
kernRight = l;
layers = (
{
anchors = (
{
name = bottom;
pos = (188,0);
},
{
name = center;
pos = (145,402);
},
{
name = top;
pos = (145,716);
},
{
name = topright;
pos = (243,716);
}
);
background = {
shapes = (
{
closed = 1;
nodes = (
(243,0,l),
(243,715,l),
(49,715,l),
(49,0,l)
);
}
);
};
layerId = "42F8977D-8264-44FF-8A66-A72BD7D3E619";
shapes = (
{
closed = 1;
nodes = (
(275,-10,o),
(308,-7,o),
(337,0,c),
(337,146,l),
(318,143,o),
(306,144,o),
(293,144,cs),
(255,144,o),
(243,162,o),
(243,187,cs),
(243,716,l),
(49,716,l),
(49,168,ls),
(49,47,o),
(104,-10,o),
(245,-10,cs)
);
}
);
width = 362;
},
{
anchors = (
{
name = bottom;
pos = (176,0);
},
{
name = center;
pos = (108,402);
},
{
name = top;
pos = (108,716);
},
{
name = topright;
pos = (125,716);
}
);
background = {
shapes = (
{
closed = 1;
nodes = (
(135,0,l),
(135,715,l),
(103,715,l),
(103,0,l)
);
}
);
};
layerId = "1750929F-40DF-47FF-8B11-7621AD6711F1";
shapes = (
{
closed = 1;
nodes = (
(235,-6,o),
(256,-4,o),
(267,0,c),
(267,29,l),
(256,26,o),
(235,25,o),
(218,25,cs),
(158,25,o),
(125,55,o),
(125,126,cs),
(125,716,l),
(93,716,l),
(93,126,ls),
(93,36,o),
(138,-6,o),
(218,-6,cs)
);
}
);
width = 330;
},
{
anchors = (
{
name = bottom;
pos = (178,0);
},
{
name = center;
pos = (116,402);
},
{
name = top;
pos = (116,716);
},
{
name = topright;
pos = (155,716);
}
);
layerId = "502A2428-35F6-4863-AD44-5AC44627310C";
shapes = (
{
closed = 1;
nodes = (
(243,-7,o),
(267,-4,o),
(284,0,c),
(284,65,l),
(269,62,o),
(252,61,o),
(235,61,cs),
(181,61,o),
(155,88,o),
(155,143,cs),
(155,716,l),
(77,716,l),
(77,138,ls),
(77,39,o),
(125,-7,o),
(221,-7,cs)
);
}
);
width = 318;
}
);
metricLeft = h;
unicode = 108;
}
{
glyphname = m;
kernLeft = m;
kernRight = h;
layers = (
{
anchors = (
{
name = bottom;
pos = (454,0);
},
{
name = top;
pos = (454,504);
}
);
background = {
shapes = (
{
closed = 1;
nodes = (
(243,0,l),
(243,265,ls),
(243,324,o),
(269,349,o),
(311,349,cs),
(346,349,o),
(358,325,o),
(358,287,cs),
(358,0,l),
(551,0,l),
(551,265,ls),
(551,324,o),
(577,349,o),
(619,349,cs),
(655,349,o),
(666,325,o),
(666,287,cs),
(666,0,l),
(860,0,l),
(860,317,ls),
(860,449,o),
(795,515,o),
(667,515,cs),
(596,515,o),
(544,494,o),
(513,452,c),
(482,494,o),
(431,515,o),
(374,515,cs),
(309,515,o),
(263,494,o),
(231,460,c),
(231,504,l),
(49,504,l),
(49,0,l)
);
}
);
};
layerId = "42F8977D-8264-44FF-8A66-A72BD7D3E619";
shapes = (
{
closed = 1;
nodes = (
(243,0,l),
(243,265,ls),
(243,324,o),
(269,349,o),
(311,349,cs),
(346,349,o),
(358,325,o),
(358,287,cs),
(358,0,l),
(552,0,l),
(552,265,ls),
(552,324,o),
(578,349,o),
(620,349,cs),
(656,349,o),
(667,325,o),
(667,287,cs),
(667,0,l),
(861,0,l),
(861,317,ls),
(861,449,o),
(796,514,o),
(668,514,cs),
(597,514,o),
(544,494,o),
(513,452,c),
(482,494,o),
(431,514,o),
(374,514,cs),
(309,514,o),
(263,494,o),
(231,460,c),
(231,504,l),
(49,504,l),
(49,0,l)
);
}
);
width = 907;
},
{
anchors = (
{
name = bottom;
pos = (444,0);
},
{
name = top;
pos = (444,504);
}
);
background = {
shapes = (
{
closed = 1;
nodes = (
(135,0,l),
(135,254,ls),
(135,392,o),
(188,484,o),
(293,484,cs),
(383,484,o),
(438,434,o),
(438,306,cs),
(438,0,l),
(471,0,l),
(471,254,ls),
(471,392,o),
(524,484,o),
(628,484,cs),
(719,484,o),
(774,434,o),
(774,306,cs),
(774,0,l),
(806,0,l),
(806,306,ls),
(806,449,o),
(734,515,o),
(628,515,cs),
(554,515,o),
(492,475,o),
(461,386,c),
(442,464,o),
(386,515,o),
(293,515,cs),
(214,515,o),
(164,472,o),
(135,403,c),
(135,504,l),
(103,504,l),
(103,0,l)
);
}
);
};
layerId = "1750929F-40DF-47FF-8B11-7621AD6711F1";
shapes = (
{
closed = 1;
nodes = (
(125,0,l),
(125,254,ls),
(125,392,o),
(178,483,o),
(282,483,cs),
(373,483,o),
(428,434,o),
(428,306,cs),
(428,0,l),
(460,0,l),
(460,254,ls),
(460,392,o),
(513,483,o),
(617,483,cs),
(707,483,o),
(763,434,o),
(763,306,cs),
(763,0,l),
(795,0,l),
(795,306,ls),
(795,449,o),
(724,514,o),
(618,514,cs),
(544,514,o),
(482,475,o),
(450,386,c),
(432,464,o),
(376,514,o),
(282,514,cs),
(204,514,o),
(154,472,o),
(125,403,c),
(125,504,l),
(93,504,l),
(93,0,l)
);
}
);
width = 883;
},
{
anchors = (
{
name = bottom;
pos = (443,0);
},
{
name = top;
pos = (443,504);
}
);
layerId = "502A2428-35F6-4863-AD44-5AC44627310C";
shapes = (
{
closed = 1;
nodes = (
(155,0,l),
(155,257,ls),
(155,373,o),
(199,446,o),
(287,446,cs),
(361,446,o),
(404,403,o),
(404,301,cs),
(404,0,l),
(482,0,l),
(482,257,ls),
(482,373,o),
(528,446,o),
(614,446,cs),
(690,446,o),
(732,403,o),
(732,301,cs),
(732,0,l),
(810,0,l),
(810,309,ls),
(810,451,o),
(739,514,o),
(628,514,cs),
(552,514,o),
(489,482,o),
(459,418,c),
(435,477,o),
(382,514,o),
(305,514,cs),
(231,514,o),
(181,482,o),
(151,428,c),
(151,504,l),
(77,504,l),
(77,0,l)
);
}
);
width = 882;
}
);
metricLeft = h;
metricRight = h;
unicode = 109;
}
{
glyphname = n;
kernLeft = m;
kernRight = h;
layers = (
{
anchors = (
{
name = bottom;
pos = (305,0);
},
{
name = top;
pos = (305,504);
}
);
background = {
shapes = (
{
closed = 1;
nodes = (
(243,0,l),
(243,265,ls),
(243,324,o),
(274,349,o),
(316,349,cs),
(351,349,o),
(368,325,o),
(368,287,cs),
(368,0,l),
(562,0,l),
(562,317,ls),
(562,451,o),
(491,515,o),
(380,515,cs),
(310,515,o),
(263,492,o),
(231,454,c),
(231,504,l),
(49,504,l),
(49,0,l)
);
}
);
};
layerId = "42F8977D-8264-44FF-8A66-A72BD7D3E619";
shapes = (
{
closed = 1;
nodes = (
(243,0,l),
(243,265,ls),
(243,324,o),
(274,349,o),
(316,349,cs),
(351,349,o),
(368,325,o),
(368,287,cs),
(368,0,l),
(562,0,l),
(562,317,ls),
(562,451,o),
(491,514,o),
(380,514,cs),
(310,514,o),
(263,492,o),
(231,454,c),
(231,504,l),
(49,504,l),
(49,0,l)
);
}
);
width = 608;
},
{
anchors = (
{
name = bottom;
pos = (295,0);
},
{
name = top;
pos = (295,504);
}
);
background = {
shapes = (
{
closed = 1;
nodes = (
(135,0,l),
(135,254,ls),
(135,392,o),
(199,484,o),
(321,484,cs),
(425,484,o),
(476,434,o),
(476,306,cs),
(476,0,l),
(508,0,l),
(508,306,ls),
(508,451,o),
(440,515,o),
(321,515,cs),
(231,515,o),
(165,469,o),
(135,392,c),
(135,504,l),
(103,504,l),
(103,0,l)
);
}
);
};
layerId = "1750929F-40DF-47FF-8B11-7621AD6711F1";
shapes = (
{
closed = 1;
nodes = (
(125,0,l),
(125,254,ls),
(125,392,o),
(188,483,o),
(311,483,cs),
(415,483,o),
(466,434,o),
(466,306,cs),
(466,0,l),
(498,0,l),
(498,306,ls),
(498,451,o),
(430,514,o),
(311,514,cs),
(221,514,o),
(155,469,o),
(125,392,c),
(125,504,l),
(93,504,l),
(93,0,l)
);
}
);
width = 586;
},
{
anchors = (
{
name = bottom;
pos = (294,0);
},
{
name = top;
pos = (294,504);
}
);
layerId = "502A2428-35F6-4863-AD44-5AC44627310C";
shapes = (
{
closed = 1;
nodes = (
(155,0,l),
(155,257,ls),
(155,373,o),
(210,446,o),
(308,446,cs),
(394,446,o),
(434,403,o),
(434,301,cs),
(434,0,l),
(512,0,l),
(512,309,ls),
(512,451,o),
(442,514,o),
(327,514,cs),
(243,514,o),
(183,478,o),
(152,420,c),
(152,504,l),
(77,504,l),
(77,0,l)
);
}
);
width = 584;
}
);
metricLeft = h;
metricRight = h;
unicode = 110;
}
{
glyphname = o;
kernLeft = c;
kernRight = b;
layers = (
{
anchors = (
{
name = bottom;
pos = (316,0);
},
{
name = center;
pos = (316,252);
},
{
name = ogonek;
pos = (569,10);
},
{
name = top;
pos = (316,504);
},
{
name = topright;
pos = (611,504);
}
);
background = {
shapes = (
{
closed = 1;
nodes = (
(483,-10,o),
(605,94,o),
(605,252,cs),
(605,408,o),
(483,515,o),
(316,515,cs),
(149,515,o),
(28,408,o),
(28,252,cs),
(28,94,o),
(149,-10,o),
(316,-10,cs)
);
},
{
closed = 1;
nodes = (
(261,155,o),
(223,191,o),
(223,252,cs),
(223,312,o),
(261,349,o),
(316,349,cs),
(371,349,o),
(409,312,o),
(409,252,cs),
(409,191,o),
(371,155,o),
(316,155,cs)
);
}
);
};
layerId = "42F8977D-8264-44FF-8A66-A72BD7D3E619";
shapes = (
{
closed = 1;
nodes = (
(483,-10,o),
(605,94,o),
(605,252,cs),
(605,408,o),
(483,514,o),
(316,514,cs),
(149,514,o),
(28,408,o),
(28,252,cs),
(28,94,o),
(149,-10,o),
(316,-10,cs)
);
},
{
closed = 1;
nodes = (
(261,156,o),
(223,191,o),
(223,252,cs),
(223,312,o),
(261,348,o),
(316,348,cs),
(371,348,o),
(409,312,o),
(409,252,cs),
(409,191,o),
(371,156,o),
(316,156,cs)
);
}
);
width = 633;
},
{
anchors = (
{
name = bottom;
pos = (307,0);
},
{
name = center;
pos = (307,252);
},
{
name = ogonek;
pos = (560,10);
},
{
name = top;
pos = (307,504);
},
{
name = topright;
pos = (602,504);
}
);
background = {
shapes = (
{
closed = 1;
nodes = (
(463,-10,o),
(563,91,o),
(563,252,cs),
(563,412,o),
(463,515,o),
(317,515,cs),
(171,515,o),
(72,412,o),
(72,252,cs),
(72,91,o),
(171,-10,o),
(317,-10,cs)
);
},
{
closed = 1;
nodes = (
(192,19,o),
(106,107,o),
(106,252,cs),
(106,396,o),
(192,484,o),
(317,484,cs),
(441,484,o),
(528,396,o),
(528,252,cs),
(528,107,o),
(441,19,o),
(317,19,cs)
);
}
);
};
layerId = "1750929F-40DF-47FF-8B11-7621AD6711F1";
shapes = (
{
closed = 1;
nodes = (
(452,-10,o),
(553,91,o),
(553,252,cs),
(553,412,o),
(452,514,o),
(307,514,cs),
(161,514,o),
(61,412,o),
(61,252,cs),
(61,91,o),
(161,-10,o),
(307,-10,cs)
);
},
{
closed = 1;
nodes = (
(182,20,o),
(96,107,o),
(96,252,cs),
(96,396,o),
(182,483,o),
(307,483,cs),
(431,483,o),
(518,396,o),
(518,252,cs),
(518,107,o),
(431,20,o),
(307,20,cs)
);
}
);
width = 614;
},
{
anchors = (
{
name = bottom;
pos = (307,0);
},
{
name = center;
pos = (307,252);
},
{
name = ogonek;
pos = (560,10);
},
{
name = top;
pos = (307,504);
},
{
name = topright;
pos = (602,504);
}
);
layerId = "502A2428-35F6-4863-AD44-5AC44627310C";
shapes = (
{
closed = 1;
nodes = (
(460,-10,o),
(565,93,o),
(565,252,cs),
(565,410,o),
(460,514,o),
(307,514,cs),
(155,514,o),
(49,410,o),
(49,252,cs),
(49,93,o),
(155,-10,o),
(307,-10,cs)
);
},
{
closed = 1;
nodes = (
(201,58,o),
(129,131,o),
(129,252,cs),
(129,373,o),
(201,445,o),
(307,445,cs),
(414,445,o),
(485,373,o),
(485,252,cs),
(485,131,o),
(414,58,o),
(307,58,cs)
);
}
);
width = 614;
}
);
metricLeft = c;
metricRight = "=|";
unicode = 111;
}
{
glyphname = p;
kernLeft = p;
kernRight = b;
layers = (
{
anchors = (
{
name = bottom;
pos = (321,0);
},
{
name = top;
pos = (321,504);
}
);
background = {
shapes = (
{
closed = 1;
nodes = (
(243,-195,l),
(243,38,l),
(272,7,o),
(317,-10,o),
(374,-10,cs),
(508,-10,o),
(615,86,o),
(615,252,cs),
(615,418,o),
(508,515,o),
(374,515,cs),
(310,515,o),
(263,492,o),
(231,454,c),
(231,504,l),
(49,504,l),
(49,-195,l)
);
},
{
closed = 1;
nodes = (
(272,155,o),
(233,191,o),
(233,252,cs),
(233,312,o),
(272,349,o),
(327,349,cs),
(382,349,o),
(420,312,o),
(420,252,cs),
(420,191,o),
(382,155,o),
(327,155,cs)
);
}
);
};
layerId = "42F8977D-8264-44FF-8A66-A72BD7D3E619";
shapes = (
{
closed = 1;
nodes = (
(243,-195,l),
(243,38,l),
(272,7,o),
(317,-10,o),
(374,-10,cs),
(508,-10,o),
(615,86,o),
(615,252,cs),
(615,418,o),
(508,514,o),
(374,514,cs),
(310,514,o),
(263,492,o),
(231,454,c),
(231,504,l),
(49,504,l),
(49,-195,l)
);
},
{
closed = 1;
nodes = (
(272,155,o),
(233,191,o),
(233,252,cs),
(233,312,o),
(272,349,o),
(327,349,cs),
(382,349,o),
(419,312,o),
(419,252,cs),
(419,191,o),
(382,155,o),
(327,155,cs)
);
}
);
width = 643;
},
{
anchors = (
{
name = bottom;
pos = (316,0);
},
{
name = top;
pos = (316,504);
}
);
background = {
shapes = (
{
closed = 1;
nodes = (
(135,-195,l),
(135,121,l),
(165,40,o),
(244,-10,o),
(342,-10,cs),
(483,-10,o),
(583,91,o),
(583,252,cs),
(583,412,o),
(483,515,o),
(342,515,cs),
(244,515,o),
(165,464,o),
(135,383,c),
(135,504,l),
(103,504,l),
(103,-195,l)
);
},
{
closed = 1;
nodes = (
(222,19,o),
(135,107,o),
(135,252,cs),
(135,396,o),
(222,484,o),
(342,484,cs),
(462,484,o),
(549,396,o),
(549,252,cs),
(549,107,o),
(462,19,o),
(342,19,cs)
);
}
);
};
layerId = "1750929F-40DF-47FF-8B11-7621AD6711F1";
shapes = (
{
closed = 1;
nodes = (
(125,-195,l),
(125,121,l),
(155,40,o),
(233,-10,o),
(332,-10,cs),
(473,-10,o),
(573,91,o),
(573,252,cs),
(573,412,o),
(473,514,o),
(332,514,cs),
(233,514,o),
(155,464,o),
(125,383,c),
(125,504,l),
(93,504,l),
(93,-195,l)
);
},
{
closed = 1;
nodes = (
(212,21,o),
(125,107,o),
(125,252,cs),
(125,396,o),
(212,483,o),
(332,483,cs),
(451,483,o),
(538,396,o),
(538,252,cs),
(538,107,o),
(451,21,o),
(332,21,cs)
);
}
);
width = 634;
},
{
anchors = (
{
name = bottom;
pos = (314,0);
},
{
name = top;
pos = (314,504);
}
);
layerId = "502A2428-35F6-4863-AD44-5AC44627310C";
shapes = (
{
closed = 1;
nodes = (
(155,-195,l),
(155,86,l),
(187,28,o),
(255,-10,o),
(340,-10,cs),
(480,-10,o),
(580,90,o),
(580,252,cs),
(580,414,o),
(480,514,o),
(340,514,cs),
(252,514,o),
(182,474,o),
(151,412,c),
(151,504,l),
(77,504,l),
(77,-195,l)
);
},
{
closed = 1;
nodes = (
(224,58,o),
(151,131,o),
(151,252,cs),
(151,373,o),
(224,446,o),
(327,446,cs),
(428,446,o),
(500,373,o),
(500,252,cs),
(500,131,o),
(428,58,o),
(327,58,cs)
);
}
);
width = 629;
}
);
metricLeft = h;
metricRight = b;
unicode = 112;
}
{
glyphname = q;
kernLeft = c;
kernRight = q;
layers = (
{
anchors = (
{
name = bottom;
pos = (321,0);
},
{
name = top;
pos = (321,504);
}
);
background = {
shapes = (
{
closed = 1;
nodes = (
(594,-195,l),
(594,504,l),
(411,504,l),
(411,454,l),
(381,492,o),
(334,515,o),
(269,515,cs),
(135,515,o),
(28,418,o),
(28,252,cs),
(28,86,o),
(135,-10,o),
(269,-10,cs),
(325,-10,o),
(371,7,o),
(401,38,c),
(401,-195,l)
);
},
{
closed = 1;
nodes = (
(261,155,o),
(223,191,o),
(223,252,cs),
(223,312,o),
(261,349,o),
(316,349,cs),
(371,349,o),
(409,312,o),
(409,252,cs),
(409,191,o),
(371,155,o),
(316,155,cs)
);
}
);
};
layerId = "42F8977D-8264-44FF-8A66-A72BD7D3E619";
shapes = (
{
closed = 1;
nodes = (
(595,-195,l),
(595,504,l),
(411,504,l),
(411,454,l),
(381,492,o),
(334,514,o),
(269,514,cs),
(135,514,o),
(28,418,o),
(28,252,cs),
(28,86,o),
(135,-10,o),
(269,-10,cs),
(325,-10,o),
(371,7,o),
(401,38,c),
(401,-195,l)
);
},
{
closed = 1;
nodes = (
(261,155,o),
(222,191,o),
(222,252,cs),
(222,312,o),
(261,349,o),
(316,349,cs),
(371,349,o),
(409,312,o),
(409,252,cs),
(409,191,o),
(371,155,o),
(316,155,cs)
);
}
);
width = 644;
},
{
anchors = (
{
name = bottom;
pos = (317,0);
},
{
name = top;
pos = (317,504);
}
);
background = {
shapes = (
{
closed = 1;
nodes = (
(552,-195,l),
(552,504,l),
(520,504,l),
(520,383,l),
(489,464,o),
(411,515,o),
(313,515,cs),
(171,515,o),
(72,412,o),
(72,252,cs),
(72,91,o),
(171,-10,o),
(313,-10,cs),
(411,-10,o),
(489,40,o),
(520,121,c),
(520,-195,l)
);
},
{
closed = 1;
nodes = (
(192,19,o),
(106,107,o),
(106,252,cs),
(106,396,o),
(192,484,o),
(313,484,cs),
(433,484,o),
(520,396,o),
(520,252,cs),
(520,107,o),
(433,19,o),
(313,19,cs)
);
}
);
};
layerId = "1750929F-40DF-47FF-8B11-7621AD6711F1";
shapes = (
{
closed = 1;
nodes = (
(542,-195,l),
(542,504,l),
(510,504,l),
(510,383,l),
(479,464,o),
(401,514,o),
(303,514,cs),
(161,514,o),
(61,412,o),
(61,252,cs),
(61,91,o),
(161,-10,o),
(303,-10,cs),
(401,-10,o),
(479,40,o),
(510,121,c),
(510,-195,l)
);
},
{
closed = 1;
nodes = (
(182,21,o),
(96,107,o),
(96,252,cs),
(96,396,o),
(182,483,o),
(303,483,cs),
(423,483,o),
(510,396,o),
(510,252,cs),
(510,107,o),
(423,21,o),
(303,21,cs)
);
}
);
width = 635;
},
{
anchors = (
{
name = bottom;
pos = (316,0);
},
{
name = top;
pos = (316,504);
}
);
layerId = "502A2428-35F6-4863-AD44-5AC44627310C";
shapes = (
{
closed = 1;
nodes = (
(555,-195,l),
(555,504,l),
(479,504,l),
(479,412,l),
(448,474,o),
(379,514,o),
(291,514,cs),
(151,514,o),
(49,414,o),
(49,252,cs),
(49,90,o),
(151,-10,o),
(291,-10,cs),
(377,-10,o),
(444,28,o),
(477,86,c),
(477,-195,l)
);
},
{
closed = 1;
nodes = (
(202,58,o),
(129,131,o),
(129,252,cs),
(129,373,o),
(202,446,o),
(305,446,cs),
(406,446,o),
(478,373,o),
(478,252,cs),
(478,131,o),
(406,58,o),
(305,58,cs)
);
}
);
width = 632;
}
);
metricLeft = "=|b";
metricRight = "=|b";
unicode = 113;
}
{
glyphname = r;
kernLeft = m;
kernRight = r;
layers = (
{
anchors = (
{
name = bottom;
pos = (141,0);
},
{
name = top;
pos = (210,504);
}
);
background = {
shapes = (
{
closed = 1;
nodes = (
(243,0,l),
(243,244,ls),
(243,303,o),
(279,328,o),
(328,328,cs),
(350,328,o),
(373,323,o),
(394,319,c),
(394,504,l),
(386,508,o),
(373,510,o),
(355,510,cs),
(304,510,o),
(261,494,o),
(231,439,c),
(231,504,l),
(49,504,l),
(49,0,l)
);
}
);
};
layerId = "42F8977D-8264-44FF-8A66-A72BD7D3E619";
shapes = (
{
closed = 1;
nodes = (
(243,0,l),
(243,244,ls),
(243,303,o),
(279,328,o),
(328,328,cs),
(350,328,o),
(373,323,o),
(394,319,c),
(394,504,l),
(386,508,o),
(373,510,o),
(355,510,cs),
(304,510,o),
(261,494,o),
(231,439,c),
(231,504,l),
(49,504,l),
(49,0,l)
);
}
);
width = 420;
},
{
anchors = (
{
name = bottom;
pos = (108,0);
},
{
name = top;
pos = (180,504);
}
);
background = {
shapes = (
{
closed = 1;
nodes = (
(135,0,l),
(135,244,ls),
(135,389,o),
(202,480,o),
(291,480,cs),
(308,480,o),
(323,479,o),
(341,476,c),
(341,504,l),
(329,508,o),
(311,510,o),
(291,510,cs),
(218,510,o),
(164,463,o),
(135,382,c),
(135,504,l),
(103,504,l),
(103,0,l)
);
}
);
};
layerId = "1750929F-40DF-47FF-8B11-7621AD6711F1";
shapes = (
{
closed = 1;
nodes = (
(125,0,l),
(125,244,ls),
(125,390,o),
(201,481,o),
(280,481,cs),
(298,481,o),
(313,480,o),
(331,476,c),
(331,504,l),
(318,509,o),
(301,512,o),
(280,512,cs),
(208,512,o),
(154,463,o),
(125,382,c),
(125,504,l),
(93,504,l),
(93,0,l)
);
}
);
width = 361;
},
{
anchors = (
{
name = bottom;
pos = (115,0);
},
{
name = top;
pos = (185,504);
}
);
layerId = "502A2428-35F6-4863-AD44-5AC44627310C";
shapes = (
{
closed = 1;
nodes = (
(155,0,l),
(155,244,ls),
(155,365,o),
(212,437,o),
(290,437,cs),
(308,437,o),
(327,436,o),
(345,432,c),
(345,504,l),
(335,508,o),
(318,510,o),
(298,510,cs),
(231,510,o),
(178,474,o),
(151,406,c),
(151,504,l),
(77,504,l),
(77,0,l)
);
}
);
width = 369;
}
);
metricLeft = h;
unicode = 114;
}
{
glyphname = s;
kernLeft = s;
kernRight = s;
layers = (
{
anchors = (
{
name = bottom;
pos = (263,0);
},
{
name = top;
pos = (263,504);
}
);
background = {
shapes = (
{
closed = 1;
nodes = (
(415,-10,o),
(497,67,o),
(497,173,cs),
(497,255,o),
(438,310,o),
(327,331,cs),
(278,339,ls),
(246,344,o),
(240,350,o),
(240,359,cs),
(240,372,o),
(253,379,o),
(280,379,cs),
(319,379,o),
(378,357,o),
(425,336,c),
(481,461,l),
(417,495,o),
(346,515,o),
(273,515,cs),
(111,515,o),
(44,431,o),
(44,332,cs),
(44,249,o),
(97,203,o),
(209,182,cs),
(257,174,ls),
(291,168,o),
(302,161,o),
(302,148,cs),
(302,135,o),
(289,126,o),
(255,126,cs),
(221,126,o),
(158,143,o),
(88,183,c),
(28,51,l),
(97,9,o),
(173,-10,o),
(252,-10,cs)
);
}
);
};
layerId = "42F8977D-8264-44FF-8A66-A72BD7D3E619";
shapes = (
{
closed = 1;
nodes = (
(415,-10,o),
(497,59,o),
(497,165,cs),
(497,247,o),
(438,307,o),
(327,325,cs),
(278,333,ls),
(246,338,o),
(240,345,o),
(240,355,cs),
(240,366,o),
(253,372,o),
(280,372,cs),
(319,372,o),
(378,357,o),
(425,336,c),
(481,461,l),
(417,495,o),
(346,514,o),
(273,514,cs),
(111,514,o),
(44,441,o),
(44,342,cs),
(44,259,o),
(97,207,o),
(209,188,cs),
(257,180,ls),
(291,174,o),
(301,167,o),
(301,154,cs),
(301,141,o),
(289,132,o),
(255,132,cs),
(221,132,o),
(158,146,o),
(88,183,c),
(28,51,l),
(97,9,o),
(173,-10,o),
(252,-10,cs)
);
}
);
width = 525;
},
{
anchors = (
{
name = bottom;
pos = (253,0);
},
{
name = top;
pos = (253,504);
}
);
background = {
shapes = (
{
closed = 1;
nodes = (
(387,-10,o),
(454,49,o),
(454,135,cs),
(454,215,o),
(407,248,o),
(327,261,c),
(214,282,ls),
(149,296,o),
(121,324,o),
(121,368,cs),
(121,437,o),
(177,484,o),
(263,484,cs),
(323,484,o),
(377,462,o),
(418,425,c),
(438,450,l),
(396,488,o),
(336,515,o),
(263,515,cs),
(151,515,o),
(87,447,o),
(87,368,cs),
(87,308,o),
(129,267,o),
(209,251,cs),
(321,229,ls),
(397,215,o),
(420,189,o),
(420,135,cs),
(420,68,o),
(369,19,o),
(263,19,cs),
(199,19,o),
(148,42,o),
(91,88,c),
(71,62,l),
(130,15,o),
(188,-10,o),
(263,-10,cs)
);
}
);
};
layerId = "1750929F-40DF-47FF-8B11-7621AD6711F1";
shapes = (
{
closed = 1;
nodes = (
(377,-10,o),
(444,49,o),
(444,135,cs),
(444,215,o),
(397,248,o),
(316,261,c),
(204,282,ls),
(139,294,o),
(112,324,o),
(112,368,cs),
(112,437,o),
(167,483,o),
(253,483,cs),
(313,483,o),
(366,462,o),
(407,425,c),
(428,450,l),
(386,488,o),
(325,514,o),
(253,514,cs),
(141,514,o),
(77,447,o),
(77,368,cs),
(77,308,o),
(119,267,o),
(199,251,cs),
(311,229,ls),
(387,214,o),
(409,189,o),
(409,135,cs),
(409,68,o),
(359,21,o),
(253,21,cs),
(188,21,o),
(138,42,o),
(81,88,c),
(60,62,l),
(120,15,o),
(178,-10,o),
(253,-10,cs)
);
}
);
width = 504;
},
{
anchors = (
{
name = bottom;
pos = (252,0);
},
{
name = top;
pos = (252,504);
}
);
layerId = "502A2428-35F6-4863-AD44-5AC44627310C";
shapes = (
{
closed = 1;
nodes = (
(384,-10,o),
(456,53,o),
(456,146,cs),
(456,229,o),
(404,267,o),
(315,285,c),
(221,301,ls),
(165,311,o),
(143,333,o),
(143,367,cs),
(143,421,o),
(186,446,o),
(257,446,cs),
(312,446,o),
(361,424,o),
(404,392,c),
(440,453,l),
(391,491,o),
(328,514,o),
(255,514,cs),
(128,514,o),
(63,442,o),
(63,358,cs),
(63,290,o),
(108,244,o),
(198,228,cs),
(293,211,ls),
(355,200,o),
(376,181,o),
(376,138,cs),
(376,86,o),
(335,58,o),
(250,58,cs),
(193,58,o),
(144,80,o),
(83,123,c),
(47,60,l),
(110,13,o),
(172,-10,o),
(249,-10,cs)
);
}
);
width = 503;
}
);
metricRight = "=|";
unicode = 115;
}
{
glyphname = t;
kernLeft = t;
kernRight = t;
layers = (
{
anchors = (
{
name = bottom;
pos = (282,0);
},
{
name = center;
pos = (229,252);
},
{
name = top;
pos = (229,504);
},
{
name = topright;
pos = (305,925);
}
);
background = {
shapes = (
{
closed = 1;
nodes = (
(351,-6,o),
(393,-1,o),
(422,6,c),
(422,153,l),
(405,149,o),
(375,148,o),
(357,148,cs),
(319,148,o),
(306,166,o),
(306,191,cs),
(306,349,l),
(422,349,l),
(422,504,l),
(306,504,l),
(306,647,l),
(114,647,l),
(114,504,l),
(19,504,l),
(19,349,l),
(114,349,l),
(114,173,ls),
(114,52,o),
(169,-6,o),
(310,-6,cs)
);
}
);
};
layerId = "42F8977D-8264-44FF-8A66-A72BD7D3E619";
shapes = (
{
closed = 1;
nodes = (
(351,-10,o),
(393,-7,o),
(422,0,c),
(422,152,l),
(405,149,o),
(375,148,o),
(357,148,cs),
(319,148,o),
(307,164,o),
(307,189,cs),
(307,349,l),
(422,349,l),
(422,504,l),
(307,504,l),
(307,647,l),
(113,647,l),
(113,504,l),
(19,504,l),
(19,349,l),
(113,349,l),
(113,171,ls),
(113,50,o),
(169,-10,o),
(310,-10,cs)
);
}
);
width = 456;
},
{
anchors = (
{
name = bottom;
pos = (230,0);
},
{
name = center;
pos = (187,252);
},
{
name = top;
pos = (187,504);
},
{
name = topright;
pos = (180,839);
}
);
background = {
shapes = (
{
closed = 1;
nodes = (
(305,-6,o),
(325,-4,o),
(337,0,c),
(337,28,l),
(325,25,o),
(305,24,o),
(288,24,cs),
(228,24,o),
(194,55,o),
(194,126,cs),
(194,474,l),
(337,474,l),
(337,504,l),
(194,504,l),
(194,647,l),
(163,647,l),
(163,504,l),
(41,504,l),
(41,474,l),
(163,474,l),
(163,126,ls),
(163,36,o),
(208,-6,o),
(288,-6,cs)
);
}
);
};
layerId = "1750929F-40DF-47FF-8B11-7621AD6711F1";
shapes = (
{
closed = 1;
nodes = (
(295,-6,o),
(315,-4,o),
(327,0,c),
(327,29,l),
(315,26,o),
(295,25,o),
(277,25,cs),
(219,25,o),
(185,55,o),
(185,126,cs),
(185,474,l),
(327,474,l),
(327,504,l),
(185,504,l),
(185,647,l),
(153,647,l),
(153,504,l),
(31,504,l),
(31,474,l),
(153,474,l),
(153,126,ls),
(153,36,o),
(198,-6,o),
(277,-6,cs)
);
}
);
width = 366;
},
{
anchors = (
{
name = bottom;
pos = (246,0);
},
{
name = center;
pos = (199,252);
},
{
name = top;
pos = (199,504);
},
{
name = topright;
pos = (218,864);
}
);
layerId = "502A2428-35F6-4863-AD44-5AC44627310C";
shapes = (
{
closed = 1;
nodes = (
(310,-8,o),
(338,-5,o),
(353,0,c),
(353,64,l),
(340,61,o),
(316,60,o),
(299,60,cs),
(246,60,o),
(218,88,o),
(218,143,cs),
(218,436,l),
(353,436,l),
(353,504,l),
(218,504,l),
(218,647,l),
(140,647,l),
(140,504,l),
(27,504,l),
(27,436,l),
(140,436,l),
(140,138,ls),
(140,38,o),
(189,-8,o),
(286,-8,cs)
);
}
);
width = 387;
}
);
unicode = 116;
}
{
glyphname = u;
kernLeft = u;
kernRight = u;
layers = (
{
anchors = (
{
name = bottom;
pos = (302,0);
},
{
name = ogonek;
pos = (559,0);
},
{
name = top;
pos = (302,504);
},
{
name = topright;
pos = (586,504);
}
);
background = {
shapes = (
{
closed = 1;
nodes = (
(298,-10,o),
(345,12,o),
(377,49,c),
(377,0,l),
(559,0,l),
(559,504,l),
(365,504,l),
(365,240,ls),
(365,179,o),
(334,155,o),
(292,155,cs),
(256,155,o),
(240,178,o),
(240,218,cs),
(240,504,l),
(46,504,l),
(46,186,ls),
(46,52,o),
(117,-10,o),
(228,-10,cs)
);
}
);
};
layerId = "42F8977D-8264-44FF-8A66-A72BD7D3E619";
shapes = (
{
closed = 1;
nodes = (
(298,-10,o),
(345,12,o),
(377,49,c),
(377,0,l),
(559,0,l),
(559,504,l),
(365,504,l),
(365,240,ls),
(365,179,o),
(334,156,o),
(292,156,cs),
(256,156,o),
(240,178,o),
(240,218,cs),
(240,504,l),
(46,504,l),
(46,186,ls),
(46,52,o),
(117,-10,o),
(228,-10,cs)
);
}
);
width = 608;
},
{
anchors = (
{
name = bottom;
pos = (290,0);
},
{
name = ogonek;
pos = (492,0);
},
{
name = top;
pos = (290,504);
},
{
name = topright;
pos = (574,504);
}
);
background = {
shapes = (
{
closed = 1;
nodes = (
(375,-10,o),
(441,36,o),
(471,112,c),
(471,0,l),
(503,0,l),
(503,504,l),
(471,504,l),
(471,250,ls),
(471,112,o),
(407,19,o),
(285,19,cs),
(181,19,o),
(130,70,o),
(130,198,cs),
(130,504,l),
(98,504,l),
(98,198,ls),
(98,52,o),
(165,-10,o),
(285,-10,cs)
);
}
);
};
layerId = "1750929F-40DF-47FF-8B11-7621AD6711F1";
shapes = (
{
closed = 1;
nodes = (
(364,-10,o),
(431,36,o),
(461,112,c),
(461,0,l),
(493,0,l),
(493,504,l),
(461,504,l),
(461,250,ls),
(461,112,o),
(397,21,o),
(274,21,cs),
(171,21,o),
(120,70,o),
(120,198,cs),
(120,504,l),
(88,504,l),
(88,198,ls),
(88,52,o),
(155,-10,o),
(274,-10,cs)
);
}
);
width = 586;
},
{
anchors = (
{
name = bottom;
pos = (289,0);
},
{
name = ogonek;
pos = (507,0);
},
{
name = top;
pos = (289,504);
},
{
name = topright;
pos = (573,504);
}
);
layerId = "502A2428-35F6-4863-AD44-5AC44627310C";
shapes = (
{
closed = 1;
nodes = (
(341,-10,o),
(402,26,o),
(432,84,c),
(432,0,l),
(507,0,l),
(507,504,l),
(429,504,l),
(429,248,ls),
(429,131,o),
(374,58,o),
(275,58,cs),
(189,58,o),
(150,100,o),
(150,203,cs),
(150,504,l),
(72,504,l),
(72,195,ls),
(72,52,o),
(141,-10,o),
(257,-10,cs)
);
}
);
width = 584;
}
);
metricLeft = "=|h";
metricRight = "=|h";
unicode = 117;
}
{
glyphname = v;
kernLeft = v;
kernRight = v;
layers = (
{
anchors = (
{
name = bottom;
pos = (291,0);
},
{
name = top;
pos = (291,504);
}
);
background = {
shapes = (
{
closed = 1;
nodes = (
(397,0,l),
(578,504,l),
(373,504,l),
(291,189,l),
(208,504,l),
(2,504,l),
(183,0,l)
);
}
);
};
layerId = "42F8977D-8264-44FF-8A66-A72BD7D3E619";
shapes = (
{
closed = 1;
nodes = (
(397,0,l),
(578,504,l),
(372,504,l),
(290,189,l),
(208,504,l),
(2,504,l),
(183,0,l)
);
}
);
width = 580;
},
{
anchors = (
{
name = bottom;
pos = (267,0);
},
{
name = top;
pos = (267,504);
}
);
background = {
shapes = (
{
closed = 1;
nodes = (
(294,0,l),
(513,504,l),
(477,504,l),
(277,40,l),
(79,504,l),
(43,504,l),
(262,0,l)
);
}
);
};
layerId = "1750929F-40DF-47FF-8B11-7621AD6711F1";
shapes = (
{
closed = 1;
nodes = (
(284,0,l),
(503,504,l),
(467,504,l),
(267,40,l),
(69,504,l),
(33,504,l),
(252,0,l)
);
}
);
width = 536;
},
{
anchors = (
{
name = bottom;
pos = (269,0);
},
{
name = top;
pos = (269,504);
}
);
layerId = "502A2428-35F6-4863-AD44-5AC44627310C";
shapes = (
{
closed = 1;
nodes = (
(311,0,l),
(520,504,l),
(436,504,l),
(269,83,l),
(103,504,l),
(19,504,l),
(227,0,l)
);
}
);
width = 539;
}
);
metricRight = "=|";
unicode = 118;
}
{
glyphname = w;
kernLeft = w;
kernRight = w;
layers = (
{
anchors = (
{
name = bottom;
pos = (435,0);
},
{
name = top;
pos = (435,504);
}
);
background = {
shapes = (
{
closed = 1;
nodes = (
(361,0,l),
(435,258,l),
(509,0,l),
(698,0,l),
(868,504,l),
(662,504,l),
(594,232,l),
(517,504,l),
(354,504,l),
(276,232,l),
(208,504,l),
(2,504,l),
(173,0,l)
);
}
);
};
layerId = "42F8977D-8264-44FF-8A66-A72BD7D3E619";
shapes = (
{
closed = 1;
nodes = (
(361,0,l),
(435,258,l),
(509,0,l),
(698,0,l),
(868,504,l),
(662,504,l),
(594,232,l),
(517,504,l),
(354,504,l),
(276,232,l),
(208,504,l),
(2,504,l),
(173,0,l)
);
}
);
width = 870;
},
{
anchors = (
{
name = bottom;
pos = (415,0);
},
{
name = top;
pos = (415,504);
}
);
background = {
shapes = (
{
closed = 1;
nodes = (
(259,0,l),
(425,464,l),
(590,0,l),
(620,0,l),
(803,504,l),
(769,504,l),
(605,40,l),
(440,504,l),
(408,504,l),
(245,40,l),
(81,504,l),
(45,504,l),
(228,0,l)
);
}
);
};
layerId = "1750929F-40DF-47FF-8B11-7621AD6711F1";
shapes = (
{
closed = 1;
nodes = (
(249,0,l),
(415,464,l),
(579,0,l),
(610,0,l),
(793,504,l),
(758,504,l),
(595,40,l),
(430,504,l),
(398,504,l),
(234,40,l),
(71,504,l),
(36,504,l),
(219,0,l)
);
}
);
width = 829;
},
{
anchors = (
{
name = bottom;
pos = (417,0);
},
{
name = top;
pos = (417,504);
}
);
layerId = "502A2428-35F6-4863-AD44-5AC44627310C";
shapes = (
{
closed = 1;
nodes = (
(276,0,l),
(417,405,l),
(556,0,l),
(631,0,l),
(811,504,l),
(728,504,l),
(592,98,l),
(453,504,l),
(379,504,l),
(240,98,l),
(104,504,l),
(21,504,l),
(201,0,l)
);
}
);
width = 832;
}
);
metricRight = "=|";
unicode = 119;
}
{
glyphname = x;
kernLeft = x;
kernRight = k;
layers = (
{
anchors = (
{
name = bottom;
pos = (291,0);
},
{
name = top;
pos = (291,504);
}
);
background = {
shapes = (
{
closed = 1;
nodes = (
(212,0,l),
(291,133,l),
(368,0,l),
(578,0,l),
(410,260,l),
(568,504,l),
(358,504,l),
(291,379,l),
(223,504,l),
(13,504,l),
(170,260,l),
(2,0,l)
);
}
);
};
layerId = "42F8977D-8264-44FF-8A66-A72BD7D3E619";
shapes = (
{
closed = 1;
nodes = (
(212,0,l),
(291,133,l),
(368,0,l),
(578,0,l),
(410,260,l),
(568,504,l),
(358,504,l),
(291,379,l),
(223,504,l),
(13,504,l),
(170,260,l),
(2,0,l)
);
}
);
width = 580;
},
{
anchors = (
{
name = bottom;
pos = (269,0);
},
{
name = top;
pos = (269,504);
}
);
background = {
shapes = (
{
closed = 1;
nodes = (
(86,0,l),
(279,237,l),
(474,0,l),
(515,0,l),
(301,260,l),
(504,504,l),
(463,504,l),
(279,281,l),
(96,504,l),
(55,504,l),
(258,260,l),
(45,0,l)
);
}
);
};
layerId = "1750929F-40DF-47FF-8B11-7621AD6711F1";
shapes = (
{
closed = 1;
nodes = (
(76,0,l),
(269,237,l),
(464,0,l),
(505,0,l),
(291,260,l),
(493,504,l),
(452,504,l),
(269,281,l),
(86,504,l),
(45,504,l),
(248,260,l),
(35,0,l)
);
}
);
width = 540;
},
{
anchors = (
{
name = bottom;
pos = (270,0);
},
{
name = top;
pos = (270,504);
}
);
layerId = "502A2428-35F6-4863-AD44-5AC44627310C";
shapes = (
{
closed = 1;
nodes = (
(113,0,l),
(270,207,l),
(429,0,l),
(521,0,l),
(320,260,l),
(510,504,l),
(418,504,l),
(270,310,l),
(123,504,l),
(31,504,l),
(220,260,l),
(21,0,l)
);
}
);
width = 542;
}
);
metricLeft = "=|";
metricRight = k;
unicode = 120;
}
{
glyphname = y;
kernLeft = v;
kernRight = v;
layers = (
{
anchors = (
{
name = bottom;
pos = (291,0);
},
{
name = top;
pos = (291,504);
}
);
background = {
shapes = (
{
closed = 1;
nodes = (
(263,-202,o),
(347,-138,o),
(397,0,cs),
(578,504,l),
(373,504,l),
(291,184,l),
(208,504,l),
(2,504,l),
(195,-35,l),
(179,-43,o),
(159,-47,o),
(136,-47,cs),
(107,-47,o),
(76,-39,o),
(51,-30,c),
(2,-172,l),
(37,-188,o),
(97,-202,o),
(153,-202,cs)
);
}
);
};
layerId = "42F8977D-8264-44FF-8A66-A72BD7D3E619";
shapes = (
{
closed = 1;
nodes = (
(263,-206,o),
(346,-142,o),
(397,0,cs),
(578,504,l),
(373,504,l),
(291,184,l),
(207,504,l),
(2,504,l),
(195,-35,l),
(179,-43,o),
(159,-46,o),
(136,-46,cs),
(107,-46,o),
(76,-38,o),
(51,-29,c),
(2,-176,l),
(37,-192,o),
(97,-206,o),
(153,-206,cs)
);
}
);
width = 580;
},
{
anchors = (
{
name = bottom;
pos = (304,0);
},
{
name = top;
pos = (304,504);
}
);
background = {
shapes = (
{
closed = 1;
nodes = (
(194,-202,o),
(256,-173,o),
(331,0,cs),
(550,504,l),
(514,504,l),
(314,35,l),
(116,504,l),
(80,504,l),
(299,-1,l),
(233,-143,o),
(189,-172,o),
(135,-172,cs),
(111,-172,o),
(82,-163,o),
(49,-144,c),
(37,-172,l),
(68,-191,o),
(101,-202,o),
(135,-202,cs)
);
}
);
};
layerId = "1750929F-40DF-47FF-8B11-7621AD6711F1";
shapes = (
{
closed = 1;
nodes = (
(184,-206,o),
(243,-177,o),
(320,0,cs),
(539,504,l),
(504,504,l),
(304,35,l),
(105,504,l),
(70,504,l),
(289,-1,l),
(223,-147,o),
(179,-175,o),
(125,-175,cs),
(100,-175,o),
(72,-166,o),
(39,-147,c),
(27,-176,l),
(57,-195,o),
(91,-206,o),
(125,-206,cs)
);
}
);
width = 572;
},
{
anchors = (
{
name = bottom;
pos = (298,0);
},
{
name = top;
pos = (298,504);
}
);
layerId = "502A2428-35F6-4863-AD44-5AC44627310C";
shapes = (
{
closed = 1;
nodes = (
(205,-206,o),
(271,-166,o),
(340,0,cs),
(549,504,l),
(465,504,l),
(298,82,l),
(132,504,l),
(48,504,l),
(260,-10,l),
(214,-108,o),
(174,-138,o),
(126,-138,cs),
(101,-138,o),
(73,-130,o),
(41,-115,c),
(17,-176,l),
(48,-193,o),
(90,-206,o),
(130,-206,cs)
);
}
);
width = 568;
}
);
metricRight = v;
unicode = 121;
}
{
glyphname = z;
kernLeft = z;
kernRight = z;
layers = (
{
anchors = (
{
name = bottom;
pos = (268,0);
},
{
name = center;
pos = (268,252);
},
{
name = top;
pos = (268,504);
}
);
background = {
shapes = (
{
closed = 1;
nodes = (
(504,0,l),
(504,155,l),
(288,155,l),
(493,366,l),
(493,504,l),
(43,504,l),
(43,349,l),
(237,349,l),
(32,137,l),
(32,0,l)
);
}
);
};
layerId = "42F8977D-8264-44FF-8A66-A72BD7D3E619";
shapes = (
{
closed = 1;
nodes = (
(504,0,l),
(504,155,l),
(288,155,l),
(493,366,l),
(493,504,l),
(43,504,l),
(43,349,l),
(237,349,l),
(32,137,l),
(32,0,l)
);
}
);
width = 536;
},
{
anchors = (
{
name = bottom;
pos = (225,0);
},
{
name = center;
pos = (225,252);
},
{
name = top;
pos = (225,504);
}
);
background = {
shapes = (
{
closed = 1;
nodes = (
(418,0,l),
(418,30,l),
(92,30,l),
(407,474,l),
(407,504,l),
(64,504,l),
(64,474,l),
(368,474,l),
(53,30,l),
(53,0,l)
);
}
);
};
layerId = "1750929F-40DF-47FF-8B11-7621AD6711F1";
shapes = (
{
closed = 1;
nodes = (
(407,0,l),
(407,30,l),
(82,30,l),
(397,474,l),
(397,504,l),
(54,504,l),
(54,474,l),
(358,474,l),
(43,30,l),
(43,0,l)
);
}
);
width = 450;
},
{
anchors = (
{
name = bottom;
pos = (233,0);
},
{
name = center;
pos = (233,252);
},
{
name = top;
pos = (233,504);
}
);
layerId = "502A2428-35F6-4863-AD44-5AC44627310C";
shapes = (
{
closed = 1;
nodes = (
(431,0,l),
(431,68,l),
(126,68,l),
(420,443,l),
(420,504,l),
(46,504,l),
(46,436,l),
(330,436,l),
(36,60,l),
(36,0,l)
);
}
);
width = 467;
}
);
metricRight = "=|";
unicode = 122;
}
{
glyphname = braceleft;
kernLeft = braceleft;
kernRight = braceleft;
layers = (
{
guides = (
{
pos = (0,278);
}
);
layerId = "42F8977D-8264-44FF-8A66-A72BD7D3E619";
shapes = (
{
closed = 1;
nodes = (
(378,-195,l),
(378,-45,l),
(349,-45,ls),
(295,-45,o),
(274,-25,o),
(274,30,cs),
(274,212,ls),
(274,255,o),
(254,287,o),
(200,298,c),
(254,310,o),
(274,341,o),
(274,384,cs),
(274,567,ls),
(274,621,o),
(295,642,o),
(349,642,cs),
(378,642,l),
(378,792,l),
(286,792,ls),
(178,792,o),
(103,716,o),
(103,610,cs),
(103,448,ls),
(103,393,o),
(83,373,o),
(28,373,c),
(28,223,l),
(83,223,o),
(103,203,o),
(103,148,cs),
(103,-13,ls),
(103,-120,o),
(178,-195,o),
(286,-195,cs)
);
}
);
width = 411;
},
{
guides = (
{
pos = (-46,258);
}
);
layerId = "1750929F-40DF-47FF-8B11-7621AD6711F1";
shapes = (
{
closed = 1;
nodes = (
(313,-195,l),
(313,-163,l),
(241,-163,ls),
(198,-163,o),
(170,-136,o),
(170,-90,cs),
(170,190,ls),
(170,233,o),
(149,265,o),
(95,276,c),
(149,289,o),
(170,319,o),
(170,362,cs),
(170,644,ls),
(170,690,o),
(198,716,o),
(241,716,cs),
(313,716,l),
(313,748,l),
(241,748,ls),
(177,748,o),
(135,707,o),
(135,644,cs),
(135,366,ls),
(135,312,o),
(107,292,o),
(53,292,c),
(53,261,l),
(107,261,o),
(135,242,o),
(135,186,cs),
(135,-90,ls),
(135,-154,o),
(177,-195,o),
(241,-195,cs)
);
}
);
width = 381;
},
{
layerId = "502A2428-35F6-4863-AD44-5AC44627310C";
shapes = (
{
closed = 1;
nodes = (
(328,-195,l),
(328,-129,l),
(267,-129,ls),
(220,-129,o),
(195,-104,o),
(195,-56,cs),
(195,208,ls),
(195,251,o),
(175,282,o),
(121,294,c),
(175,306,o),
(195,337,o),
(195,380,cs),
(195,643,ls),
(195,692,o),
(220,716,o),
(267,716,cs),
(328,716,l),
(328,782,l),
(250,782,ls),
(174,782,o),
(122,731,o),
(122,656,cs),
(122,400,ls),
(122,346,o),
(88,325,o),
(34,325,c),
(34,261,l),
(88,261,o),
(122,242,o),
(122,186,cs),
(122,-69,ls),
(122,-143,o),
(174,-195,o),
(250,-195,cs)
);
}
);
width = 382;
}
);
unicode = 123;
}
{
glyphname = bar;
kernLeft = bracketleft;
kernRight = bracketright;
layers = (
{
background = {
shapes = (
{
closed = 1;
nodes = (
(210,-270,l),
(210,791,l),
(60,791,l),
(60,-270,l)
);
}
);
};
layerId = "42F8977D-8264-44FF-8A66-A72BD7D3E619";
shapes = (
{
closed = 1;
nodes = (
(210,-195,l),
(210,792,l),
(60,792,l),
(60,-195,l)
);
}
);
width = 270;
},
{
background = {
shapes = (
{
closed = 1;
nodes = (
(137,-270,l),
(137,791,l),
(103,791,l),
(103,-270,l)
);
}
);
};
layerId = "1750929F-40DF-47FF-8B11-7621AD6711F1";
shapes = (
{
closed = 1;
nodes = (
(127,-195,l),
(127,749,l),
(93,749,l),
(93,-195,l)
);
}
);
width = 220;
},
{
layerId = "502A2428-35F6-4863-AD44-5AC44627310C";
shapes = (
{
closed = 1;
nodes = (
(144,-195,l),
(144,783,l),
(78,783,l),
(78,-195,l)
);
}
);
width = 222;
}
);
unicode = 124;
}
{
glyphname = braceright;
kernLeft = braceright;
kernRight = braceright;
layers = (
{
guides = (
{
pos = (0,278);
}
);
layerId = "42F8977D-8264-44FF-8A66-A72BD7D3E619";
shapes = (
{
closed = 1;
nodes = (
(127,-195,ls),
(233,-195,o),
(309,-120,o),
(309,-13,cs),
(309,148,ls),
(309,203,o),
(329,223,o),
(384,223,c),
(384,373,l),
(329,373,o),
(309,393,o),
(309,448,cs),
(309,610,ls),
(309,716,o),
(233,792,o),
(127,792,cs),
(35,792,l),
(35,642,l),
(62,642,ls),
(117,642,o),
(137,621,o),
(137,567,cs),
(137,384,ls),
(137,341,o),
(158,310,o),
(212,298,c),
(158,287,o),
(137,255,o),
(137,212,cs),
(137,51,ls),
(137,-3,o),
(117,-45,o),
(62,-45,cs),
(35,-45,l),
(35,-195,l)
);
}
);
width = 411;
},
{
guides = (
{
pos = (-46,258);
}
);
layerId = "1750929F-40DF-47FF-8B11-7621AD6711F1";
shapes = (
{
closed = 1;
nodes = (
(140,-195,ls),
(203,-195,o),
(245,-154,o),
(245,-90,cs),
(245,186,ls),
(245,242,o),
(272,261,o),
(328,261,c),
(328,292,l),
(272,292,o),
(245,312,o),
(245,366,cs),
(245,644,ls),
(245,707,o),
(203,749,o),
(140,749,cs),
(67,749,l),
(67,716,l),
(140,716,ls),
(182,716,o),
(211,690,o),
(211,644,cs),
(211,362,ls),
(211,319,o),
(231,289,o),
(286,276,c),
(231,265,o),
(211,233,o),
(211,190,cs),
(211,-90,ls),
(211,-136,o),
(182,-163,o),
(140,-163,cs),
(67,-163,l),
(67,-195,l)
);
}
);
width = 381;
},
{
layerId = "502A2428-35F6-4863-AD44-5AC44627310C";
shapes = (
{
closed = 1;
nodes = (
(132,-195,ls),
(207,-195,o),
(259,-143,o),
(259,-69,cs),
(259,186,ls),
(259,242,o),
(294,261,o),
(348,261,c),
(348,325,l),
(294,325,o),
(259,346,o),
(259,400,cs),
(259,656,ls),
(259,731,o),
(207,783,o),
(132,783,cs),
(53,783,l),
(53,716,l),
(114,716,ls),
(161,716,o),
(185,692,o),
(185,643,cs),
(185,380,ls),
(185,337,o),
(206,306,o),
(261,294,c),
(206,282,o),
(185,251,o),
(185,208,cs),
(185,-56,ls),
(185,-104,o),
(161,-129,o),
(114,-129,cs),
(53,-129,l),
(53,-195,l)
);
}
);
width = 382;
}
);
unicode = 125;
}
{
glyphname = asciitilde;
kernLeft = plus;
kernRight = plus;
layers = (
{
background = {
shapes = (
{
closed = 1;
nodes = (
(188,240,l),
(197,294,o),
(203,318,o),
(231,318,cs),
(272,318,o),
(324,240,o),
(416,240,cs),
(523,240,o),
(574,331,o),
(574,477,c),
(435,477,l),
(428,423,o),
(422,397,o),
(392,397,cs),
(351,397,o),
(299,477,o),
(208,477,cs),
(100,477,o),
(49,386,o),
(49,240,c)
);
}
);
};
layerId = "42F8977D-8264-44FF-8A66-A72BD7D3E619";
shapes = (
{
closed = 1;
nodes = (
(188,240,l),
(197,294,o),
(203,318,o),
(231,318,cs),
(272,318,o),
(324,240,o),
(416,240,cs),
(523,240,o),
(574,331,o),
(574,477,c),
(435,477,l),
(428,423,o),
(422,397,o),
(392,397,cs),
(351,397,o),
(299,477,o),
(208,477,cs),
(100,477,o),
(49,386,o),
(49,240,c)
);
}
);
width = 623;
},
{
background = {
shapes = (
{
closed = 1;
nodes = (
(131,288,l),
(135,363,o),
(158,399,o),
(208,399,cs),
(279,399,o),
(331,288,o),
(416,288,cs),
(490,288,o),
(521,335,o),
(521,429,c),
(493,429,l),
(488,353,o),
(466,317,o),
(416,317,cs),
(342,317,o),
(294,429,o),
(208,429,cs),
(134,429,o),
(103,382,o),
(103,288,c)
);
}
);
};
layerId = "1750929F-40DF-47FF-8B11-7621AD6711F1";
shapes = (
{
closed = 1;
nodes = (
(121,288,l),
(125,363,o),
(147,399,o),
(198,399,cs),
(269,399,o),
(320,288,o),
(405,288,cs),
(480,288,o),
(511,335,o),
(511,429,c),
(483,429,l),
(478,353,o),
(455,317,o),
(405,317,cs),
(332,317,o),
(284,429,o),
(198,429,cs),
(124,429,o),
(93,382,o),
(93,288,c)
);
}
);
width = 603;
},
{
layerId = "502A2428-35F6-4863-AD44-5AC44627310C";
shapes = (
{
closed = 1;
nodes = (
(136,274,l),
(141,344,o),
(155,377,o),
(194,377,cs),
(255,377,o),
(312,274,o),
(402,274,cs),
(486,274,o),
(523,334,o),
(523,442,c),
(462,442,l),
(455,373,o),
(442,340,o),
(402,340,cs),
(342,340,o),
(285,442,o),
(194,442,cs),
(111,442,o),
(75,383,o),
(75,274,c)
);
}
);
width = 597;
}
);
metricLeft = plus;
metricWidth = plus;
unicode = 126;
}
{
glyphname = exclamdown;
kernLeft = p;
kernRight = q;
layers = (
{
background = {
shapes = (
{
closed = 1;
nodes = (
(264,-195,l),
(264,0,l),
(231,268,l),
(92,268,l),
(60,0,l),
(60,-195,l)
);
},
{
closed = 1;
nodes = (
(226,331,o),
(268,372,o),
(268,431,cs),
(268,490,o),
(226,531,o),
(162,531,cs),
(97,531,o),
(55,490,o),
(55,431,cs),
(55,372,o),
(97,331,o),
(162,331,cs)
);
}
);
};
layerId = "42F8977D-8264-44FF-8A66-A72BD7D3E619";
shapes = (
{
closed = 1;
nodes = (
(264,-195,l),
(264,0,l),
(231,268,l),
(92,268,l),
(60,0,l),
(60,-195,l)
);
},
{
closed = 1;
nodes = (
(226,331,o),
(268,372,o),
(268,431,cs),
(268,490,o),
(226,531,o),
(162,531,cs),
(97,531,o),
(55,490,o),
(55,431,cs),
(55,372,o),
(97,331,o),
(162,331,cs)
);
}
);
width = 323;
},
{
background = {
shapes = (
{
closed = 1;
nodes = (
(137,-195,l),
(137,0,l),
(131,333,l),
(110,333,l),
(103,0,l),
(103,-195,l)
);
},
{
closed = 1;
nodes = (
(137,472,o),
(148,482,o),
(148,498,cs),
(148,515,o),
(137,525,o),
(120,525,cs),
(103,525,o),
(92,515,o),
(92,498,cs),
(92,482,o),
(103,472,o),
(120,472,cs)
);
}
);
};
layerId = "1750929F-40DF-47FF-8B11-7621AD6711F1";
shapes = (
{
closed = 1;
nodes = (
(127,-195,l),
(127,0,l),
(121,333,l),
(99,333,l),
(93,0,l),
(93,-195,l)
);
},
{
closed = 1;
nodes = (
(127,472,o),
(138,482,o),
(138,498,cs),
(138,515,o),
(127,525,o),
(110,525,cs),
(93,525,o),
(82,515,o),
(82,498,cs),
(82,482,o),
(93,472,o),
(110,472,cs)
);
}
);
width = 220;
},
{
layerId = "502A2428-35F6-4863-AD44-5AC44627310C";
shapes = (
{
closed = 1;
nodes = (
(162,-195,l),
(162,0,l),
(148,315,l),
(94,315,l),
(80,0,l),
(80,-195,l)
);
},
{
closed = 1;
nodes = (
(150,432,o),
(171,452,o),
(171,480,cs),
(171,507,o),
(150,527,o),
(121,527,cs),
(90,527,o),
(70,507,o),
(70,480,cs),
(70,452,o),
(90,432,o),
(121,432,cs)
);
}
);
width = 242;
}
);
unicode = 161;
}
{
glyphname = cent;
kernLeft = cent;
kernRight = cent;
layers = (
{
layerId = "42F8977D-8264-44FF-8A66-A72BD7D3E619";
shapes = (
{
pos = (1,106);
ref = c;
scale = (0.9602,1);
},
{
closed = 1;
nodes = (
(377,0,l),
(377,716,l),
(233,716,l),
(233,0,l)
);
}
);
width = 508;
},
{
layerId = "1750929F-40DF-47FF-8B11-7621AD6711F1";
shapes = (
{
pos = (2,106);
ref = c;
scale = (0.962,1);
},
{
closed = 1;
nodes = (
(313,0,l),
(313,716,l),
(278,716,l),
(278,0,l)
);
}
);
width = 517;
},
{
layerId = "502A2428-35F6-4863-AD44-5AC44627310C";
shapes = (
{
pos = (2,106);
ref = c;
scale = (0.962,1);
},
{
closed = 1;
nodes = (
(321,0,l),
(321,716,l),
(267,716,l),
(267,0,l)
);
}
);
width = 509;
},
{
associatedMasterId = "1750929F-40DF-47FF-8B11-7621AD6711F1";
attr = {
axisRules = (
{
min = 700;
}
);
};
layerId = "8FDFC9E2-BDD3-4872-A955-D6FF0F999279";
name = "Dec 21, 23 at 00:09";
shapes = (
{
pos = (2,106);
ref = c;
scale = (0.962,1);
},
{
closed = 1;
nodes = (
(313,605,l),
(313,716,l),
(278,716,l),
(278,605,l)
);
},
{
closed = 1;
nodes = (
(313,0,l),
(313,116,l),
(278,116,l),
(278,0,l)
);
}
);
width = 517;
},
{
associatedMasterId = "502A2428-35F6-4863-AD44-5AC44627310C";
attr = {
axisRules = (
{
min = 700;
}
);
};
layerId = "81CBEA56-E242-4FA8-B14C-B68C087AB9CE";
name = "Dec 21, 23 at 00:09";
shapes = (
{
pos = (2,106);
ref = c;
scale = (0.962,1);
},
{
closed = 1;
nodes = (
(328,572,l),
(328,716,l),
(260,716,l),
(260,572,l)
);
},
{
closed = 1;
nodes = (
(328,0,l),
(328,138,l),
(260,138,l),
(260,0,l)
);
}
);
width = 509;
},
{
associatedMasterId = "42F8977D-8264-44FF-8A66-A72BD7D3E619";
attr = {
axisRules = (
{
min = 700;
}
);
};
layerId = "A6F9C649-C2E3-42CC-859E-44F0658839F3";
name = "Dec 21, 23 at 00:09";
shapes = (
{
pos = (1,106);
ref = c;
scale = (0.9602,1);
},
{
closed = 1;
nodes = (
(382,502,l),
(382,716,l),
(227,716,l),
(227,502,l)
);
},
{
closed = 1;
nodes = (
(382,0,l),
(382,204,l),
(227,204,l),
(227,0,l)
);
}
);
width = 508;
}
);
metricLeft = c;
metricRight = c;
unicode = 162;
}
{
glyphname = sterling;
layers = (
{
background = {
shapes = (
{
closed = 1;
nodes = (
(566,0,l),
(566,165,l),
(247,165,l),
(276,190,o),
(290,215,o),
(290,251,cs),
(290,260,o),
(290,271,o),
(289,280,c),
(425,280,l),
(425,386,l),
(267,386,l),
(255,429,o),
(245,468,o),
(245,498,cs),
(245,538,o),
(275,562,o),
(322,562,cs),
(374,562,o),
(423,549,o),
(507,506,c),
(566,637,l),
(480,697,o),
(406,727,o),
(312,727,cs),
(149,727,o),
(39,645,o),
(39,498,cs),
(39,463,o),
(51,428,o),
(74,386,c),
(6,386,l),
(6,280,l),
(103,280,l),
(104,271,o),
(105,260,o),
(105,251,cs),
(105,200,o),
(88,170,o),
(28,141,c),
(28,0,l)
);
}
);
};
layerId = "42F8977D-8264-44FF-8A66-A72BD7D3E619";
shapes = (
{
closed = 1;
nodes = (
(566,0,l),
(566,165,l),
(247,165,l),
(276,190,o),
(290,215,o),
(290,251,cs),
(290,260,o),
(290,271,o),
(289,280,c),
(425,280,l),
(425,386,l),
(267,386,l),
(255,429,o),
(245,468,o),
(245,498,cs),
(245,538,o),
(275,560,o),
(322,560,cs),
(374,560,o),
(423,549,o),
(507,506,c),
(566,637,l),
(480,697,o),
(406,726,o),
(312,726,cs),
(149,726,o),
(39,645,o),
(39,498,cs),
(39,463,o),
(51,428,o),
(74,386,c),
(6,386,l),
(6,280,l),
(103,280,l),
(104,271,o),
(105,260,o),
(105,251,cs),
(105,200,o),
(88,170,o),
(28,141,c),
(28,0,l)
);
}
);
width = 594;
},
{
background = {
shapes = (
{
closed = 1;
nodes = (
(523,0,l),
(523,30,l),
(107,30,l),
(167,59,o),
(184,134,o),
(184,186,cs),
(184,221,o),
(174,257,o),
(162,299,c),
(382,299,l),
(382,329,l),
(153,329,l),
(135,384,o),
(118,439,o),
(118,498,cs),
(118,615,o),
(199,697,o),
(312,697,cs),
(381,697,o),
(436,672,o),
(505,602,c),
(523,626,l),
(459,698,o),
(385,727,o),
(312,727,cs),
(181,727,o),
(82,635,o),
(82,498,cs),
(82,441,o),
(97,384,o),
(115,329,c),
(49,329,l),
(49,299,l),
(123,299,l),
(136,256,o),
(148,218,o),
(148,186,cs),
(148,134,o),
(131,59,o),
(71,30,c),
(71,0,l)
);
}
);
};
layerId = "1750929F-40DF-47FF-8B11-7621AD6711F1";
shapes = (
{
closed = 1;
nodes = (
(513,0,l),
(513,30,l),
(97,30,l),
(157,59,o),
(174,134,o),
(174,186,cs),
(174,221,o),
(164,257,o),
(151,299,c),
(372,299,l),
(372,329,l),
(142,329,l),
(125,384,o),
(107,439,o),
(107,498,cs),
(107,615,o),
(188,695,o),
(302,695,cs),
(371,695,o),
(426,672,o),
(494,602,c),
(513,626,l),
(448,698,o),
(375,726,o),
(302,726,cs),
(171,726,o),
(72,635,o),
(72,498,cs),
(72,441,o),
(87,384,o),
(104,329,c),
(39,329,l),
(39,299,l),
(113,299,l),
(126,256,o),
(138,218,o),
(138,186,cs),
(138,134,o),
(121,59,o),
(60,30,c),
(60,0,l)
);
}
);
width = 573;
},
{
layerId = "502A2428-35F6-4863-AD44-5AC44627310C";
shapes = (
{
closed = 1;
nodes = (
(523,0,l),
(523,69,l),
(133,69,l),
(185,94,o),
(201,158,o),
(201,205,cs),
(201,232,o),
(193,262,o),
(184,294,c),
(381,294,l),
(381,345,l),
(171,345,l),
(156,397,o),
(140,447,o),
(140,498,cs),
(140,594,o),
(207,658,o),
(302,658,cs),
(365,658,o),
(420,638,o),
(492,574,c),
(523,629,l),
(450,698,o),
(379,726,o),
(299,726,cs),
(159,726,o),
(56,638,o),
(56,498,cs),
(56,447,o),
(71,397,o),
(89,345,c),
(24,345,l),
(24,294,l),
(104,294,l),
(115,260,o),
(123,230,o),
(123,205,cs),
(123,153,o),
(105,90,o),
(45,61,c),
(45,0,l)
);
}
);
width = 567;
}
);
unicode = 163;
}
{
glyphname = currency;
kernLeft = X;
kernRight = K;
layers = (
{
background = {
shapes = (
{
closed = 1;
nodes = (
(286,126,l),
(319,114,o),
(357,107,o),
(397,107,cs),
(439,107,o),
(476,114,o),
(509,126,c),
(647,-12,l),
(768,108,l),
(638,236,l),
(656,272,o),
(664,312,o),
(664,358,cs),
(664,404,o),
(656,445,o),
(638,478,c),
(768,608,l),
(647,728,l),
(509,590,l),
(476,601,o),
(439,609,o),
(397,609,cs),
(356,609,o),
(318,601,o),
(286,590,c),
(148,728,l),
(28,608,l),
(157,478,l),
(139,444,o),
(131,404,o),
(131,358,cs),
(131,312,o),
(139,272,o),
(157,236,c),
(28,108,l),
(148,-12,l)
);
},
{
closed = 1;
nodes = (
(341,252,o),
(304,294,o),
(304,358,cs),
(304,423,o),
(341,464,o),
(397,464,cs),
(454,464,o),
(491,423,o),
(491,358,cs),
(491,294,o),
(454,252,o),
(397,252,cs)
);
}
);
};
layerId = "42F8977D-8264-44FF-8A66-A72BD7D3E619";
shapes = (
{
closed = 1;
nodes = (
(286,126,l),
(319,114,o),
(357,107,o),
(397,107,cs),
(439,107,o),
(476,114,o),
(509,126,c),
(647,-12,l),
(768,108,l),
(638,236,l),
(656,272,o),
(664,312,o),
(664,358,cs),
(664,404,o),
(656,445,o),
(638,478,c),
(768,608,l),
(647,728,l),
(509,590,l),
(476,601,o),
(439,609,o),
(397,609,cs),
(356,609,o),
(318,601,o),
(286,590,c),
(148,728,l),
(28,608,l),
(157,478,l),
(139,444,o),
(131,404,o),
(131,358,cs),
(131,312,o),
(139,272,o),
(157,236,c),
(28,108,l),
(148,-12,l)
);
},
{
closed = 1;
nodes = (
(341,252,o),
(304,294,o),
(304,358,cs),
(304,423,o),
(341,464,o),
(397,464,cs),
(454,464,o),
(491,423,o),
(491,358,cs),
(491,294,o),
(454,252,o),
(397,252,cs)
);
}
);
width = 795;
},
{
background = {
shapes = (
{
closed = 1;
nodes = (
(234,172,l),
(273,130,o),
(328,107,o),
(397,107,cs),
(466,107,o),
(522,130,o),
(561,172,c),
(744,-12,l),
(768,12,l),
(581,198,l),
(610,242,o),
(624,295,o),
(624,358,cs),
(624,423,o),
(610,476,o),
(581,518,c),
(768,704,l),
(744,728,l),
(561,545,l),
(522,586,o),
(466,609,o),
(397,609,cs),
(328,609,o),
(273,586,o),
(234,545,c),
(51,728,l),
(28,704,l),
(213,518,l),
(184,475,o),
(170,422,o),
(170,358,cs),
(170,295,o),
(184,242,o),
(213,198,c),
(28,12,l),
(51,-12,l)
);
},
{
closed = 1;
nodes = (
(272,137,o),
(205,225,o),
(205,358,cs),
(205,491,o),
(272,578,o),
(397,578,cs),
(522,578,o),
(591,491,o),
(591,358,cs),
(591,225,o),
(522,137,o),
(397,137,cs)
);
}
);
};
layerId = "1750929F-40DF-47FF-8B11-7621AD6711F1";
shapes = (
{
closed = 1;
nodes = (
(224,172,l),
(263,130,o),
(317,107,o),
(387,107,cs),
(455,107,o),
(512,130,o),
(551,172,c),
(734,-12,l),
(757,12,l),
(571,198,l),
(600,242,o),
(614,295,o),
(614,358,cs),
(614,423,o),
(600,476,o),
(571,518,c),
(757,704,l),
(734,728,l),
(551,545,l),
(512,586,o),
(455,609,o),
(387,609,cs),
(317,609,o),
(263,586,o),
(224,545,c),
(41,728,l),
(17,704,l),
(203,518,l),
(174,475,o),
(160,422,o),
(160,358,cs),
(160,295,o),
(174,242,o),
(203,198,c),
(17,12,l),
(41,-12,l)
);
},
{
closed = 1;
nodes = (
(262,137,o),
(194,225,o),
(194,358,cs),
(194,491,o),
(262,578,o),
(387,578,cs),
(512,578,o),
(580,491,o),
(580,358,cs),
(580,225,o),
(512,137,o),
(387,137,cs)
);
}
);
width = 775;
},
{
layerId = "502A2428-35F6-4863-AD44-5AC44627310C";
shapes = (
{
closed = 1;
nodes = (
(232,156,l),
(272,124,o),
(322,107,o),
(384,107,cs),
(445,107,o),
(496,123,o),
(535,156,c),
(703,-12,l),
(754,40,l),
(583,208,l),
(610,250,o),
(623,300,o),
(623,358,cs),
(623,416,o),
(610,465,o),
(584,507,c),
(754,677,l),
(703,728,l),
(535,561,l),
(496,592,o),
(445,609,o),
(384,609,cs),
(322,609,o),
(272,592,o),
(233,561,c),
(67,728,l),
(14,677,l),
(184,507,l),
(159,465,o),
(145,416,o),
(145,358,cs),
(145,300,o),
(159,250,o),
(184,208,c),
(14,40,l),
(67,-12,l)
);
},
{
closed = 1;
nodes = (
(277,170,o),
(220,244,o),
(220,358,cs),
(220,473,o),
(277,547,o),
(384,547,cs),
(491,547,o),
(549,473,o),
(549,358,cs),
(549,244,o),
(491,170,o),
(384,170,cs)
);
}
);
width = 769;
}
);
unicode = 164;
}
{
glyphname = yen;
layers = (
{
background = {
shapes = (
{
closed = 1;
nodes = (
(446,0,l),
(446,71,l),
(596,71,l),
(596,176,l),
(446,176,l),
(446,237,l),
(596,237,l),
(596,343,l),
(484,343,l),
(670,715,l),
(441,715,l),
(344,482,l),
(247,715,l),
(17,715,l),
(203,343,l),
(92,343,l),
(92,237,l),
(243,237,l),
(243,176,l),
(92,176,l),
(92,71,l),
(243,71,l),
(243,0,l)
);
}
);
};
layerId = "42F8977D-8264-44FF-8A66-A72BD7D3E619";
shapes = (
{
closed = 1;
nodes = (
(446,0,l),
(446,262,l),
(670,716,l),
(440,716,l),
(344,482,l),
(247,716,l),
(17,716,l),
(243,262,l),
(243,0,l)
);
},
{
closed = 1;
nodes = (
(596,71,l),
(596,177,l),
(92,177,l),
(92,71,l)
);
},
{
closed = 1;
nodes = (
(596,237,l),
(596,343,l),
(92,343,l),
(92,237,l)
);
}
);
width = 688;
},
{
background = {
shapes = (
{
closed = 1;
nodes = (
(358,0,l),
(358,108,l),
(550,108,l),
(550,138,l),
(358,138,l),
(358,275,l),
(550,275,l),
(550,305,l),
(368,305,l),
(614,715,l),
(573,715,l),
(341,315,l),
(108,715,l),
(68,715,l),
(312,305,l),
(132,305,l),
(132,275,l),
(323,275,l),
(323,138,l),
(132,138,l),
(132,108,l),
(323,108,l),
(323,0,l)
);
}
);
};
layerId = "1750929F-40DF-47FF-8B11-7621AD6711F1";
shapes = (
{
closed = 1;
nodes = (
(347,0,l),
(347,286,l),
(600,716,l),
(562,716,l),
(331,316,l),
(98,716,l),
(60,716,l),
(313,286,l),
(313,0,l)
);
},
{
closed = 1;
nodes = (
(539,108,l),
(539,138,l),
(122,138,l),
(122,108,l)
);
},
{
closed = 1;
nodes = (
(539,275,l),
(539,305,l),
(122,305,l),
(122,275,l)
);
}
);
width = 660;
},
{
layerId = "502A2428-35F6-4863-AD44-5AC44627310C";
shapes = (
{
closed = 1;
nodes = (
(371,0,l),
(371,280,l),
(617,716,l),
(526,716,l),
(330,361,l),
(133,716,l),
(42,716,l),
(289,280,l),
(289,0,l)
);
},
{
closed = 1;
nodes = (
(552,97,l),
(552,149,l),
(108,149,l),
(108,97,l)
);
},
{
closed = 1;
nodes = (
(552,264,l),
(552,316,l),
(108,316,l),
(108,264,l)
);
}
);
width = 659;
}
);
unicode = 165;
}
{
glyphname = brokenbar;
kernLeft = bracketleft;
kernRight = bracketright;
layers = (
{
background = {
shapes = (
{
closed = 1;
nodes = (
(210,302,l),
(210,791,l),
(60,791,l),
(60,302,l)
);
},
{
closed = 1;
nodes = (
(210,-270,l),
(210,219,l),
(60,219,l),
(60,-270,l)
);
}
);
};
layerId = "42F8977D-8264-44FF-8A66-A72BD7D3E619";
shapes = (
{
closed = 1;
nodes = (
(210,340,l),
(210,792,l),
(60,792,l),
(60,340,l)
);
},
{
closed = 1;
nodes = (
(210,-195,l),
(210,257,l),
(60,257,l),
(60,-195,l)
);
}
);
width = 270;
},
{
background = {
shapes = (
{
closed = 1;
nodes = (
(137,302,l),
(137,791,l),
(103,791,l),
(103,302,l)
);
},
{
closed = 1;
nodes = (
(137,-270,l),
(137,219,l),
(103,219,l),
(103,-270,l)
);
}
);
};
layerId = "1750929F-40DF-47FF-8B11-7621AD6711F1";
shapes = (
{
closed = 1;
nodes = (
(127,318,l),
(127,749,l),
(93,749,l),
(93,318,l)
);
},
{
closed = 1;
nodes = (
(127,-195,l),
(127,235,l),
(93,235,l),
(93,-195,l)
);
}
);
width = 220;
},
{
layerId = "502A2428-35F6-4863-AD44-5AC44627310C";
shapes = (
{
closed = 1;
nodes = (
(144,335,l),
(144,783,l),
(78,783,l),
(78,335,l)
);
},
{
closed = 1;
nodes = (
(144,-195,l),
(144,252,l),
(78,252,l),
(78,-195,l)
);
}
);
width = 222;
}
);
unicode = 166;
}
